<?xml version="1.0" encoding="utf-8"?>
<!DOCTYPE svg PUBLIC "-//W3C//DTD SVG 1.1//EN" "http://www.w3.org/Graphics/SVG/1.1/DTD/svg11.dtd">
<svg version="1.1" xmlns="http://www.w3.org/2000/svg" xmlns:xlink="http://www.w3.org/1999/xlink" x="0px" y="0px"
	 width="70px" height="70px" viewBox="0 0 70 70" enable-background="new 0 0 70 70" xml:space="preserve">
<g>
	<path fill="#2879FE" fill-rule="evenodd" clip-rule="evenodd" d="M50.033,27.488c-3.051-5.86-9.285-9.888-16.499-9.888
		c-10.217,0-18.5,8.059-18.5,17.999c0,9.943,8.283,18,18.5,18c4.566,0,8.601-1.54,11.827-4.209l0,0l6.967-0.016
		c-4.214,4.879-10.699,8.104-17.833,8.104c-12.703,0-23-9.848-23-21.998c0-12.151,10.302-22.986,23.005-22.986
		c0.172,0,0.34,0.022,0.511,0.026c0.202-0.008,0.4-0.021,0.604-0.026c0.109-0.002,0.214-0.014,0.323-0.014
		c0.044,0,0.086,0.005,0.13,0.005c0.47-0.003,0.944,0,1.427,0.021c3.197,0.13,6.033,0.756,8.029,1.663
		c6.631,2.417,11.867,7.268,14.365,13.318H50.033z"/>
</g>
<defs>
	<filter id="Adobe_OpacityMaskFilter" filterUnits="userSpaceOnUse" x="22.037" y="30.47" width="37.992" height="15.938">
		
			<feColorMatrix  type="matrix" values="-1 0 0 0 1  0 -1 0 0 1  0 0 -1 0 1  0 0 0 1 0" color-interpolation-filters="sRGB" result="source"/>
		<feFlood  style="flood-color:white;flood-opacity:1" result="back"/>
		<feBlend  in="source" in2="back" mode="normal"/>
	</filter>
</defs>
<mask maskUnits="userSpaceOnUse" x="22.037" y="30.47" width="37.992" height="15.938" id="SVGID_1_">
	<g filter="url(#Adobe_OpacityMaskFilter)">
	</g>
</mask>
<g mask="url(#SVGID_1_)">
	<path fill="#2879FE" d="M60.029,30.47l-4.242,12.188c-1.156,2.5-3.102,3.75-5.836,3.75H38.092c-2.078,0-3.234-0.688-3.469-2.063
		c-1.141,1.375-2.789,2.063-4.945,2.063h-4.172c-2.313,0-3.469-0.82-3.469-2.461c0-0.391,0.086-0.82,0.258-1.289l4.266-12.188h8.508
		l-4.383,12.188h4.078l4.383-12.188h8.391l-4.266,12.188h3.984l4.359-12.188H60.029z"/>
</g>
</svg>
