<?xml version="1.0" encoding="utf-8"?>
<!-- Generator: Adobe Illustrator 18.0.0, SVG Export Plug-In . SVG Version: 6.00 Build 0)  -->
<!DOCTYPE svg PUBLIC "-//W3C//DTD SVG 1.1//EN" "http://www.w3.org/Graphics/SVG/1.1/DTD/svg11.dtd">
<svg version="1.1" xmlns="http://www.w3.org/2000/svg" xmlns:xlink="http://www.w3.org/1999/xlink" x="0px" y="0px"
	 viewBox="0 0 70 70" enable-background="new 0 0 70 70" xml:space="preserve">
<g display="none">
</g>
<g display="none">
	
		<line display="inline" fill="none" stroke="#000000" stroke-width="0.25" stroke-miterlimit="10" x1="27.3" y1="43.4" x2="43.3" y2="43.4"/>
	
		<line display="inline" fill="none" stroke="#000000" stroke-width="0.25" stroke-miterlimit="10" x1="43.3" y1="43.4" x2="27.3" y2="43.4"/>
	<path display="inline" fill="none" stroke="#000000" stroke-width="0.25" stroke-miterlimit="10" d="M43.9,29.7v-1.4
		c0-0.4-0.2-0.7-0.9-0.7h-8.5c-0.7,0-0.8-0.5-0.8-0.5l-0.3-0.9c-0.1-0.6-0.7-0.6-1.1-0.6h-8.1c-0.6,0-0.9,0.3-0.8,0.9l3.1,16.5
		c0.1,0.4,0.3,0.6,0.7,0.6"/>
	<path display="inline" fill="none" stroke="#000000" stroke-width="0.25" stroke-miterlimit="10" d="M27.4,43.4
		c-0.4,0-0.8-0.1-0.6-0.7l2.9-12.2c0.2-0.7,0.5-0.8,1.2-0.8h15.5c0.5,0,0.8,0.3,0.7,0.7L44,42.8c-0.2,0.5-0.3,0.6-0.8,0.6"/>
</g>
<g>
	<path d="M61.7,37.6l3.4-13.4c0.2-1,0-2.1-0.6-2.9c-0.7-0.9-1.8-1.3-3.1-1.3h-4.2v-1.5c0-0.9-0.3-3.7-4.2-3.7H32.6c0,0,0,0,0,0
		l-0.5-2c-0.3-1.4-1.3-3-4.5-3H7.8c-1.7,0-2.6,0.7-3.1,1.3c-0.5,0.6-1,1.6-0.7,3.1l7.4,39.9c0.5,1.9,1.8,2.9,3.6,2.9l0.2,0
		c0,0,0.1,0,0.1,0h24.8c2.7,4.2,7.4,6.7,12.3,6.7c8.1,0,14.7-6.6,14.7-14.7C67.2,44.6,65.1,40.4,61.7,37.6z M13.8,45.2L8,13.7h19.5
		c0.4,0,0.6,0,0.7,0l0.6,2.1c0.2,1.4,1.5,2.8,3.7,2.9H53c0.1,0,0.2,0,0.3,0V20H23.9c-2,0-4,0.4-4.9,3.5L13.8,45.2z M38.4,53L16,53
		l6.8-28.5C22.9,24.1,23,24,23,24c0.1,0,0.2-0.1,0.9-0.1h37.2L58,35.5c-1.8-0.7-3.6-1.1-5.5-1.1c-8.1,0-14.7,6.6-14.7,14.7
		C37.9,50.4,38.1,51.7,38.4,53z M52.5,59.7c-5.9,0-10.7-4.8-10.7-10.7s4.8-10.7,10.7-10.7S63.2,43.2,63.2,49S58.4,59.7,52.5,59.7z"
		/>
	<path d="M59.2,47.2h-4.8v-4.8c0-1-0.8-1.8-1.8-1.8s-1.8,0.8-1.8,1.8v4.8h-4.8c-1,0-1.8,0.8-1.8,1.8c0,1,0.8,1.8,1.8,1.8h4.8v4.8
		c0,1,0.8,1.8,1.8,1.8s1.8-0.8,1.8-1.8v-4.8h4.8c1,0,1.8-0.8,1.8-1.8C61,48,60.2,47.2,59.2,47.2z"/>
</g>
</svg>
