<?xml version="1.0" encoding="utf-8"?>
<!-- Generator: Adobe Illustrator 18.0.0, SVG Export Plug-In . SVG Version: 6.00 Build 0)  -->
<!DOCTYPE svg PUBLIC "-//W3C//DTD SVG 1.1//EN" "http://www.w3.org/Graphics/SVG/1.1/DTD/svg11.dtd">
<svg version="1.1" xmlns="http://www.w3.org/2000/svg" xmlns:xlink="http://www.w3.org/1999/xlink" x="0px" y="0px"
	 viewBox="0 0 70 70" enable-background="new 0 0 70 70" xml:space="preserve">
<g display="none" opacity="0.3">
	<g display="inline">
		<path d="M20.2,30.5h0.9h22.5h0.9l0.3,0.9l3.8,15v0.2v0.2v7.5v1.3h-1.3h-30h-1.3v-1.3v-7.5v-0.2v-0.2l3.8-15L20.2,30.5z M18.7,48v5
			h27.5v-5H18.7z M22.1,33L19,45.5h26.9L42.7,33H22.1z M41.5,49.6c0.2-0.2,0.5-0.4,0.9-0.4c0.4,0,0.7,0.1,0.9,0.4s0.4,0.5,0.4,0.9
			c0,0.4-0.1,0.7-0.4,0.9s-0.5,0.4-0.9,0.4c-0.4,0-0.7-0.1-0.9-0.4s-0.4-0.5-0.4-0.9C41.2,50.1,41.3,49.8,41.5,49.6z"/>
	</g>
	<g display="inline">
		<path fill="#FFFFFF" stroke="#FFFFFF" stroke-width="0.5" stroke-miterlimit="10" d="M31.5,18.6h1.9v15.5l4.9-5l1.4,1.4l-6.6,6.6
			l-0.7,0.6l-0.7-0.6l-6.6-6.6l1.4-1.4l4.9,5L31.5,18.6L31.5,18.6z"/>
	</g>
	<g display="inline">
		<path d="M31.5,18.6h1.9v15.5l4.9-5l1.4,1.4l-6.6,6.6l-0.7,0.6l-0.7-0.6l-6.6-6.6l1.4-1.4l4.9,5L31.5,18.6L31.5,18.6z"/>
	</g>
</g>
<g display="none">
	<path display="inline" fill="none" stroke="#000000" stroke-width="2" stroke-miterlimit="10" d="M7.1,55.4c0-0.9,0.7-1.6,1.6-1.6
		h52.6c0.9,0,1.6,0.7,1.6,1.6v8c0,0.9-0.7,1.6-1.6,1.6H8.7c-0.9,0-1.6-0.7-1.6-1.6C7.1,63.4,7.1,55.4,7.1,55.4z"/>
	<path display="inline" fill="none" stroke="#000000" stroke-width="2" stroke-miterlimit="10" d="M46.7,35.9"/>
	<path display="inline" fill="none" stroke="#000000" stroke-width="2" stroke-miterlimit="10" d="M62.9,55.1L50.8,37.2
		c-1-1.3-3.1-1.3-4.1-1.3"/>
	<path display="inline" fill="none" stroke="#000000" stroke-width="2" stroke-miterlimit="10" d="M7.1,55.1l12-17.8
		c0.7-0.8,1.5-1.4,4-1.4h23.5"/>
	<polygon display="inline" fill="#FFFFFF" points="22.4,30.3 32,41.2 36.9,41.2 46.8,30.3 	"/>
	<circle display="inline" cx="54.9" cy="59.4" r="1.6"/>
	<circle display="inline" cx="50.1" cy="59.4" r="1.6"/>
	<circle display="inline" cx="45.3" cy="59.4" r="1.6"/>
	<path display="inline" fill="none" stroke="#000000" stroke-width="2" stroke-miterlimit="10" d="M34.9,39.8l9.5-10.5
		c0.6-0.9-0.3-1.2-0.7-1.2h-6.1V6.3c0-0.7-0.4-1.3-1.2-1.3h-3.8c-1.1,0-1.4,0.7-1.4,1.3v21.9h-6.1c-0.3,0-1,0.5-0.5,1.2L34,39.8
		C34,39.8,34.4,40.5,34.9,39.8z"/>
</g>
<g>
	<circle cx="54.9" cy="59.4" r="2.1"/>
	<circle cx="50.1" cy="59.4" r="2.1"/>
	<circle cx="45.3" cy="59.4" r="2.1"/>
	<path d="M63,53.1c-2.9-4.2-11.5-16.9-11.5-16.9c-1.4-1.8-3.9-1.8-5.1-1.8h-4.2l-2.6,2.9h6.8c0.6,0,2.3,0,2.7,0.6l9.4,13.9H11.6
		l9.2-13.6c0.3-0.3,0.7-0.8,2.7-0.8h6L27,34.4h-3.4c-2.4,0-3.8,0.5-5,1.9c0,0-8.6,12.6-11.4,16.7L7,53.1l0,0.1c0,0,0,0.1-0.1,0.1
		c-0.3,0.5-0.4,1-0.4,1.5v7.7c0,1.7,1.4,3,3,3h51c1.7,0,3-1.4,3-3v-7.7C63.5,54.2,63.3,53.6,63,53.1z M60.6,62.5
		C60.6,62.5,60.5,62.6,60.6,62.5l-51,0.1c0,0-0.1,0-0.1-0.1v-7.7c0,0,0-0.1,0.1-0.1h51c0,0,0.1,0,0.1,0.1L60.6,62.5z M7.4,53.5
		L7.4,53.5L7.4,53.5L7.4,53.5z"/>
	<path d="M32.8,40.5c0.4,0.5,1,0.9,1.6,0.9c0.4,0,1-0.1,1.6-0.7l9.3-10.2l0.1-0.1c0.8-1,0.4-1.9,0.3-2.3c-0.4-0.9-1.4-1.2-2.2-1.2
		H39V7.3c0-0.8-0.3-1.5-0.7-2c-0.5-0.5-1.1-0.8-1.9-0.8h-3.7c-2,0-2.8,1.4-2.8,2.7v19.7h-4.4c-0.8,0-1.6,0.5-1.9,1.2
		c-0.4,0.7-0.3,1.5,0.2,2.3L32.8,40.5z M32.9,29.8l0-22.4h3.2v22.4h5.8L34.5,38l-7.3-8.2L32.9,29.8z"/>
</g>
</svg>
