<?xml version="1.0" encoding="utf-8"?>
<!-- Generator: Adobe Illustrator 16.0.0, SVG Export Plug-In . SVG Version: 6.00 Build 0)  -->
<!DOCTYPE svg PUBLIC "-//W3C//DTD SVG 1.1//EN" "http://www.w3.org/Graphics/SVG/1.1/DTD/svg11.dtd">
<svg version="1.1" id="Layer_1" xmlns="http://www.w3.org/2000/svg" xmlns:xlink="http://www.w3.org/1999/xlink" x="0px" y="0px"
	 width="26px" height="26px" viewBox="0 0 26 26" enable-background="new 0 0 26 26" xml:space="preserve">
<g>
	<path d="M21.71,2.572H4.403C3.076,2.572,2,3.648,2,4.975V21.31c0,1.326,1.076,2.402,2.403,2.402h17.292
		c1.326,0,2.402-1.076,2.402-2.402V4.975C24.113,3.648,23.036,2.572,21.71,2.572z M23.081,21.31c0,0.751-0.619,1.37-1.371,1.37
		H4.403c-0.751,0-1.371-0.619-1.371-1.37V4.975c0-0.752,0.62-1.372,1.371-1.372h17.292c0.751,0,1.371,0.62,1.371,1.372V21.31H23.081
		z"/>
	<rect x="5.803" y="7.171" width="2.329" height="11.956"/>
	<rect x="10.358" y="7.171" width="9.95" height="2.33"/>
	<rect x="10.358" y="11.978" width="9.95" height="2.329"/>
	<rect x="10.358" y="16.798" width="9.95" height="2.329"/>
</g>
</svg>
