<?xml version="1.0" encoding="utf-8"?>
<!-- Generator: Adobe Illustrator 18.0.0, SVG Export Plug-In . SVG Version: 6.00 Build 0)  -->
<!DOCTYPE svg PUBLIC "-//W3C//DTD SVG 1.1//EN" "http://www.w3.org/Graphics/SVG/1.1/DTD/svg11.dtd">
<svg version="1.1" xmlns="http://www.w3.org/2000/svg" xmlns:xlink="http://www.w3.org/1999/xlink" x="0px" y="0px"
	 viewBox="0 0 70 70" enable-background="new 0 0 70 70" xml:space="preserve">
<g display="none">
</g>
<g display="none">
	<path display="inline" fill="none" stroke="#000000" stroke-width="2" stroke-miterlimit="10" d="M7.9,36.4h28.6l0,0V7.9
		C52.2,7.9,65,20.6,65,36.4S52.2,65,36.4,65S7.9,52.2,7.9,36.4z"/>
	<path display="inline" fill="none" stroke="#000000" stroke-width="2" stroke-miterlimit="10" d="M33.6,33.6H5
		C5,17.8,17.8,5,33.6,5V33.6z"/>
</g>
<g>
	<path d="M36.4,7.3h-1.5v27.6H7.3v1.5c0,16.1,13.1,29.1,29.1,29.1s29.1-13.1,29.1-29.1S52.4,7.3,36.4,7.3z M62.6,36.4
		c0,14.4-11.7,26.2-26.2,26.2c-14,0-25.4-10.8-26.1-24.7h27.6V10.2C51.8,11,62.6,22.4,62.6,36.4z"/>
	<path d="M33.1,2.5h-1.5c-16,0-29.1,13.1-29.1,29.1v1.5h30.6V2.5z M5.5,30.1C6.2,16.9,16.9,6.2,30.1,5.5v24.7H5.5V30.1z"/>
</g>
</svg>
