<?xml version="1.0" encoding="utf-8"?>
<!-- Generator: Adobe Illustrator 16.0.0, SVG Export Plug-In . SVG Version: 6.00 Build 0)  -->
<!DOCTYPE svg PUBLIC "-//W3C//DTD SVG 1.1//EN" "http://www.w3.org/Graphics/SVG/1.1/DTD/svg11.dtd">
<svg version="1.1" xmlns="http://www.w3.org/2000/svg" xmlns:xlink="http://www.w3.org/1999/xlink" x="0px" y="0px"
	 width="70px" height="70px" viewBox="0 0 70 70" enable-background="new 0 0 70 70" xml:space="preserve">
<g>
	<g>
		<path d="M7.857,51.993V26.224c0-0.316,0.273-0.583,0.595-0.583h39.475c0.323,0,0.596,0.267,0.596,0.583v5.123h2.856v-5.123
			c0-1.864-1.548-3.381-3.452-3.381h-9.925C37.864,12.91,35.062,9,28.123,9c-7.124,0-9.754,3.655-9.881,13.843h-9.79
			C6.548,22.843,5,24.36,5,26.224v25.769c0,1.863,1.548,3.38,3.452,3.38h15.147v-2.798H8.452C8.13,52.575,7.857,52.308,7.857,51.993
			z M28.123,11.332c4.743,0,7.363,1.88,7.497,11.511H20.622C20.738,13.039,23.062,11.332,28.123,11.332z M44.847,48.747
			c-4.271,0-6.055-1.177-6.055-8.473H36.41c0,7.876,2.287,10.805,8.437,10.805c5.992,0,8.437-3.13,8.437-10.805h-2.382
			C50.901,47.438,48.862,48.747,44.847,48.747z M61.666,32.434h-33.64c-1.838,0-3.333,1.465-3.333,3.266v22.035
			c0,1.802,1.496,3.266,3.333,3.266h33.64C63.505,61,65,59.536,65,57.734V35.699C65,33.899,63.505,32.434,61.666,32.434z
			 M62.142,57.734c0,0.254-0.218,0.467-0.476,0.467h-33.64c-0.258,0-0.476-0.213-0.476-0.467V35.699
			c0-0.254,0.218-0.467,0.476-0.467h33.64c0.258,0,0.476,0.213,0.476,0.467V57.734z"/>
	</g>
</g>
</svg>
