<?xml version="1.0" encoding="utf-8"?>
<!-- Generator: Adobe Illustrator 16.0.0, SVG Export Plug-In . SVG Version: 6.00 Build 0)  -->
<!DOCTYPE svg PUBLIC "-//W3C//DTD SVG 1.1//EN" "http://www.w3.org/Graphics/SVG/1.1/DTD/svg11.dtd">
<svg version="1.1" xmlns="http://www.w3.org/2000/svg" xmlns:xlink="http://www.w3.org/1999/xlink" x="0px" y="0px"
	 width="70px" height="70px" viewBox="0 0 70 70" enable-background="new 0 0 70 70" xml:space="preserve">
<path d="M44.812,5l1.705,1.56l17.062,17.021L65,25.283l-1.422,1.703c-2.94,2.838-6.586,3.971-10.947,3.405l-8.106,8.227
	c0.759,3.027,0.735,6.051-0.071,9.078c-0.805,3.023-2.344,5.674-4.619,7.943l-1.566,1.701l-1.705-1.701l-9.524-9.503L8.128,65H5
	v-3.119l18.91-18.867l-9.81-9.788l-1.705-1.559l1.705-1.56c4.361-4.446,9.67-6.101,15.926-4.964l9.383-9.222
	c0.282-3.688,1.516-6.761,3.697-9.219L44.812,5z M45.238,11.95c-1.045,1.891-1.566,3.639-1.566,5.247v0.853l-0.566,0.709
	L32.584,29.255l-0.996,0.853l-1.278-0.283c-3.604-1.042-7.253-0.287-10.949,2.269l18.625,18.581
	c2.751-3.782,3.415-7.849,1.992-12.201L39.408,37.2l1.139-1.136l9.381-9.362l0.996-0.992l1.279,0.426
	c1.801,0.377,3.793-0.049,5.971-1.28L45.238,11.95z"/>
</svg>
