<?xml version="1.0" encoding="utf-8"?>
<!DOCTYPE svg PUBLIC "-//W3C//DTD SVG 1.1//EN" "http://www.w3.org/Graphics/SVG/1.1/DTD/svg11.dtd">
<svg version="1.1" xmlns="http://www.w3.org/2000/svg" xmlns:xlink="http://www.w3.org/1999/xlink" x="0px" y="0px" width="70px"
	height="70px" viewBox="0 0 70 70" enable-background="new 0 0 70 70" xml:space="preserve">
<g>
	<path d="M64,32L37.4,9.8c-0.7-0.6-1.3-0.9-1.8-0.9c-0.5,0-1.1,0.3-1.8,0.9L7.3,32c-0.9,0.8-0.7,1.7-0.6,1.9C6.8,34.2,7.2,35,8.5,35
		h2.9v23.3c0,1.2,1,2.2,2.3,2.2h13.5c1.3,0,2.3-1,2.3-2.2V45.7h12.3v12.6c0,1.2,1,2.2,2.3,2.2h13.5c1.3,0,2.3-1,2.3-2.2V35h2.9
		c1.3,0,1.7-0.8,1.8-1.1C64.7,33.7,64.9,32.8,64,32z M42.4,42.9H28.9c-1.3,0-2.3,1-2.3,2.2v12.6H14.3V34.4c0-1.2-1-2.2-2.3-2.2h-0.5
		L35.6,12l24.1,20.2h-0.5c-1.3,0-2.3,1-2.3,2.2l0,23.3H44.7V45.1C44.7,43.9,43.7,42.9,42.4,42.9z"/>
</g>
</svg>
