<?xml version="1.0" encoding="utf-8"?>
<!-- Generator: Adobe Illustrator 18.0.0, SVG Export Plug-In . SVG Version: 6.00 Build 0)  -->
<!DOCTYPE svg PUBLIC "-//W3C//DTD SVG 1.1//EN" "http://www.w3.org/Graphics/SVG/1.1/DTD/svg11.dtd">
<svg version="1.1" xmlns="http://www.w3.org/2000/svg" xmlns:xlink="http://www.w3.org/1999/xlink" x="0px" y="0px"
	 viewBox="0 0 70 70" enable-background="new 0 0 70 70" xml:space="preserve">
<g>
	<path d="M48.3,14.6c-8.9-8.9-23.3-8.9-32.2,0c-8.9,8.9-8.9,23.3,0,32.2c8.5,8.5,22.2,8.9,31.1,1c-0.2,0.9,0.1,1.8,0.8,2.5l7.9,7.9
		c1.1,1.1,2.8,1.1,3.9,0c1.1-1.1,1.1-2.8,0-3.9l-7.9-7.9c-0.7-0.7-1.6-0.9-2.5-0.8C57.2,36.7,56.8,23.1,48.3,14.6z M45.7,44.2
		c-7.5,7.5-19.6,7.5-27,0c-7.5-7.5-7.5-19.6,0-27c7.5-7.5,19.6-7.5,27,0C53.2,24.6,53.2,36.8,45.7,44.2z"/>
</g>
</svg>
