<?xml version="1.0" encoding="utf-8"?>
<!-- Generator: Adobe Illustrator 16.0.0, SVG Export Plug-In . SVG Version: 6.00 Build 0)  -->
<!DOCTYPE svg PUBLIC "-//W3C//DTD SVG 1.1//EN" "http://www.w3.org/Graphics/SVG/1.1/DTD/svg11.dtd">
<svg version="1.1" xmlns="http://www.w3.org/2000/svg" xmlns:xlink="http://www.w3.org/1999/xlink" x="0px" y="0px"
	 width="70px" height="70px" viewBox="0 0 70 70" enable-background="new 0 0 70 70" xml:space="preserve">
<g>
	<g>
		<path d="M42.103,42.542c-2.239-1.041-4.609-1.559-7.103-1.559s-4.863,0.518-7.109,1.559c-2.243,1.042-4.199,2.559-5.859,4.551
			c-0.501,0.583-0.709,1.293-0.625,2.126c0.084,0.83,0.436,1.517,1.061,2.058c0.622,0.537,1.351,0.765,2.181,0.687
			c0.833-0.085,1.498-0.456,1.996-1.126c1.081-1.247,2.35-2.207,3.805-2.871c1.452-0.661,2.972-1,4.551-1
			c1.575,0,3.099,0.339,4.551,1c1.458,0.664,2.722,1.624,3.806,2.871c0.498,0.67,1.168,1.041,1.995,1.126
			c0.833,0.078,1.556-0.149,2.181-0.687c0.625-0.541,0.977-1.228,1.059-2.058c0.088-0.833-0.117-1.54-0.625-2.126
			C46.302,45.101,44.355,43.584,42.103,42.542z M25.02,33.001c1.087,0,2.018-0.397,2.809-1.185c0.788-0.788,1.182-1.729,1.182-2.806
			c0-1.077-0.391-2.018-1.182-2.806c-0.791-0.788-1.722-1.185-2.809-1.185c-1.081,0-2.012,0.397-2.803,1.185
			c-0.788,0.788-1.188,1.729-1.188,2.806c0,1.078,0.397,2.015,1.188,2.806C23.008,32.604,23.939,33.001,25.02,33.001z M44.974,25.02
			c-1.077,0-2.018,0.397-2.806,1.185c-0.788,0.791-1.185,1.729-1.185,2.806c0,1.078,0.396,2.019,1.185,2.806
			s1.729,1.185,2.806,1.185c1.084,0,2.019-0.397,2.813-1.185c0.781-0.788,1.179-1.729,1.179-2.806c0-1.077-0.397-2.015-1.179-2.806
			C46.992,25.417,46.058,25.02,44.974,25.02z M60.95,20c-2.695-4.58-6.38-8.265-10.957-10.951C45.437,6.361,40.391,5,35,5
			c-5.387,0-10.433,1.364-14.994,4.049C15.43,11.735,11.743,15.42,9.048,20C6.362,24.577,5,29.623,5,35
			c0,5.381,1.362,10.423,4.048,14.987c2.689,4.573,6.375,8.262,10.958,10.963C24.583,63.64,29.629,65,35,65
			c5.374,0,10.417-1.36,14.993-4.05c4.584-2.701,8.269-6.39,10.957-10.96C63.64,45.417,65,40.374,65,35
			C65,29.629,63.636,24.583,60.95,20z M57.376,47.942c-2.324,3.945-5.498,7.119-9.434,9.431c-3.958,2.324-8.313,3.499-12.942,3.499
			c-4.635,0-8.988-1.175-12.943-3.499c-3.936-2.312-7.111-5.485-9.432-9.431C10.306,43.987,9.129,39.632,9.129,35
			c0-4.639,1.177-8.994,3.496-12.943c2.314-3.945,5.488-7.122,9.432-9.437C26.002,10.303,30.358,9.127,35,9.127
			c4.636,0,8.991,1.175,12.942,3.493c3.942,2.314,7.116,5.491,9.431,9.437c2.321,3.952,3.499,8.308,3.499,12.943
			C60.872,39.629,59.694,43.984,57.376,47.942z"/>
	</g>
</g>
</svg>
