<?xml version="1.0" encoding="utf-8"?>
<!-- Generator: Adobe Illustrator 16.0.0, SVG Export Plug-In . SVG Version: 6.00 Build 0)  -->
<!DOCTYPE svg PUBLIC "-//W3C//DTD SVG 1.1//EN" "http://www.w3.org/Graphics/SVG/1.1/DTD/svg11.dtd">
<svg version="1.1" xmlns="http://www.w3.org/2000/svg" xmlns:xlink="http://www.w3.org/1999/xlink" x="0px" y="0px"
	 width="70px" height="70px" viewBox="0 0 70 70" enable-background="new 0 0 70 70" xml:space="preserve">
<g>
	<g>
		<path d="M35,32.237c-3.118,0-5.834,1.143-8.086,3.395c-2.251,2.256-3.39,4.977-3.39,8.086s1.139,5.83,3.39,8.082
			c2.247,2.252,4.968,3.395,8.086,3.395s5.839-1.143,8.086-3.395c2.252-2.252,3.39-4.973,3.39-8.082s-1.138-5.83-3.39-8.086
			C40.834,33.38,38.114,32.237,35,32.237z M39.239,47.958c-1.143,1.138-2.569,1.716-4.239,1.716s-3.097-0.578-4.239-1.716
			c-1.139-1.131-1.717-2.562-1.717-4.24c0-1.678,0.578-3.109,1.717-4.244c1.138-1.134,2.565-1.711,4.239-1.711
			s3.102,0.577,4.239,1.716c1.139,1.13,1.717,2.562,1.717,4.239C40.956,45.396,40.378,46.827,39.239,47.958z M63.242,18.2
			L51.8,6.758C50.624,5.578,49.226,5,47.53,5H11.027C9.336,5,7.938,5.578,6.758,6.758C5.573,7.942,5,9.34,5,11.027v47.947
			c0,1.69,0.573,3.088,1.758,4.269C7.925,64.405,9.361,65,11.027,65h47.942c1.67,0,3.105-0.595,4.273-1.758
			C64.423,62.062,65,60.664,65,58.974V22.469C65,20.778,64.423,19.385,63.242,18.2z M23.595,10.521h18.449v11.916H23.595V10.521z
			 M59.479,58.153c0,0.317-0.138,0.61-0.414,0.899c-0.344,0.355-0.687,0.427-0.912,0.427H11.847c-0.226,0-0.569-0.071-0.908-0.423
			c-0.28-0.293-0.418-0.586-0.418-0.903V11.847c0-0.318,0.142-0.62,0.418-0.904c0.347-0.352,0.687-0.422,0.908-0.422h6.228v14.673
			c0,0.774,0.264,1.419,0.804,1.955c0.544,0.544,1.185,0.804,1.955,0.804h23.973c0.774,0,1.415-0.26,1.959-0.804
			c0.54-0.536,0.804-1.18,0.804-1.955V10.349l11.488,11.489c0.28,0.285,0.423,0.59,0.423,0.904V58.153z"/>
	</g>
</g>
</svg>
