<?xml version="1.0" encoding="utf-8"?>
<!-- Generator: Adobe Illustrator 16.0.0, SVG Export Plug-In . SVG Version: 6.00 Build 0)  -->
<!DOCTYPE svg PUBLIC "-//W3C//DTD SVG 1.1//EN" "http://www.w3.org/Graphics/SVG/1.1/DTD/svg11.dtd">
<svg version="1.1" xmlns="http://www.w3.org/2000/svg" xmlns:xlink="http://www.w3.org/1999/xlink" x="0px" y="0px"
	 width="70px" height="70px" viewBox="0 0 70 70" enable-background="new 0 0 70 70" xml:space="preserve">
<g>
	<g>
		<path d="M5,33.492c0,1.1,0.9,2,2,2h23.541c1.1,0,2-0.9,2-2V7c0-1.1-0.9-2-2-2H7C5.9,5,5,5.9,5,7V33.492z M9.889,11.731
			c0-1.1,0.9-2,2-2h13.763c1.1,0,2,0.9,2,2V28.76c0,1.1-0.9,2-2,2H11.889c-1.1,0-2-0.9-2-2V11.731z"/>
	</g>
	<g>
		<path d="M64.999,7c0-1.1-0.9-2-2-2h-23.54c-1.1,0-2,0.9-2,2v20.593c0,1.1,0.9,2,2,2h23.54c1.1,0,2-0.9,2-2V7z M60.11,22.905
			c0,1.1-0.9,2-2,2H44.348c-1.1,0-2-0.9-2-2V11.688c0-1.1,0.9-2,2-2H58.11c1.1,0,2,0.9,2,2V22.905z"/>
	</g>
	<g>
		<path d="M39.459,34.509c-1.1,0-2,0.9-2,2V63c0,1.1,0.9,2,2,2H63c1.1,0,2-0.9,2-2V36.509c0-1.1-0.9-2-2-2H39.459z M60.111,58.27
			c0,1.1-0.9,2-2,2H44.348c-1.1,0-2-0.9-2-2V41.24c0-1.1,0.9-2,2-2h13.764c1.1,0,2,0.9,2,2V58.27z"/>
	</g>
	<g>
		<path d="M5,63c0,1.1,0.9,2,2,2h23.541c1.1,0,2-0.9,2-2V42.407c0-1.1-0.9-2-2-2H7c-1.1,0-2,0.9-2,2V63z M9.89,47.094
			c0-1.1,0.9-2,2-2h13.762c1.1,0,2,0.9,2,2v11.219c0,1.1-0.9,2-2,2H11.89c-1.1,0-2-0.9-2-2V47.094z"/>
	</g>
</g>
</svg>
