<?xml version="1.0" encoding="utf-8"?>
<!-- Generator: Adobe Illustrator 16.0.0, SVG Export Plug-In . SVG Version: 6.00 Build 0)  -->
<!DOCTYPE svg PUBLIC "-//W3C//DTD SVG 1.1//EN" "http://www.w3.org/Graphics/SVG/1.1/DTD/svg11.dtd">
<svg version="1.1" xmlns="http://www.w3.org/2000/svg" xmlns:xlink="http://www.w3.org/1999/xlink" x="0px" y="0px"
	 width="70px" height="70px" viewBox="0 0 70 70" enable-background="new 0 0 70 70" xml:space="preserve">
<g>
	<path fill="#eee" d="M54.262,26.306c0-0.541-0.209-1.045-0.588-1.416c-0.377-0.384-0.896-0.603-1.428-0.603h-37.69
		c-0.531,0-1.047,0.216-1.416,0.591c-0.388,0.38-0.6,0.886-0.6,1.428v1.224H5V43.21h7.54v6.86H8.435v2.464
		c0,0.661,0.257,1.282,0.724,1.747C9.627,54.745,10.245,55,10.9,55h44.997c0.657,0,1.276-0.255,1.745-0.721
		c0.466-0.465,0.723-1.086,0.723-1.745V50.07h-4.104V26.306z M22.422,43.21V28.866h27.264v21.203H17.117V43.21H22.422z
		 M13.877,26.306c0-0.183,0.072-0.35,0.207-0.483c0.124-0.125,0.296-0.199,0.472-0.199h37.69c0.178,0,0.35,0.075,0.483,0.212
		c0.161,0.156,0.194,0.343,0.194,0.471v23.764h-1.9v-22.54H22.422h-0.454h-8.091V26.306z M6.337,28.866h14.748v13.007H6.337V28.866z
		 M15.78,43.21v6.859h-1.903V43.21H15.78z M57.028,52.534c0,0.303-0.117,0.586-0.33,0.798c-0.216,0.214-0.5,0.332-0.801,0.332H10.9
		c-0.301,0-0.585-0.117-0.799-0.331c-0.213-0.211-0.33-0.495-0.33-0.799v-1.127h6.009h35.243h6.005V52.534z"/>
	<path fill="#eee" d="M33.399,47.758c4.806,0,8.716-3.908,8.716-8.711c0-4.802-3.91-8.708-8.716-8.708
		c-4.803,0-8.711,3.906-8.711,8.708C24.688,43.85,28.597,47.758,33.399,47.758z M36.336,45.811c-0.932,0.405-1.919,0.61-2.937,0.61
		c-1.016,0-2.003-0.205-2.933-0.61l-0.223-0.097l0.124-0.209c0.629-1.063,1.791-1.724,3.031-1.724s2.402,0.66,3.035,1.723
		l0.125,0.209L36.336,45.811z M31.388,39.046c0-1.108,0.903-2.009,2.013-2.009c1.111,0,2.015,0.9,2.015,2.009
		c0,1.112-0.903,2.017-2.015,2.017C32.291,41.063,31.388,40.158,31.388,39.046z M33.399,31.675c4.068,0,7.378,3.308,7.378,7.372
		c0,2.299-1.049,4.426-2.877,5.837l-0.191,0.148l-0.124-0.209c-0.666-1.121-1.728-1.913-2.991-2.229l-0.668-0.168l0.645-0.241
		c1.306-0.489,2.182-1.75,2.182-3.139c0-1.845-1.503-3.346-3.352-3.346c-1.847,0-3.35,1.501-3.35,3.346
		c0,1.388,0.876,2.649,2.18,3.138l0.645,0.242l-0.668,0.167c-1.264,0.317-2.325,1.108-2.989,2.23l-0.124,0.209l-0.191-0.148
		c-1.828-1.41-2.876-3.538-2.876-5.837C26.026,34.982,29.334,31.675,33.399,31.675z"/>
	<rect x="19.195" y="15" fill="#eee" width="7.545" height="1.337"/>
	<rect x="22.768" y="18.533" fill="#eee" width="14.154" height="1.336"/>
	<path fill="#eee" d="M65,41.863l-7.867-2.852l2.854,7.87l2.035-2.038l1.896,1.898l0.945-0.945l-1.897-1.898L65,41.863z
		 M60.526,44.449l-1.163-3.207l3.206,1.163L60.526,44.449z"/>
	<rect x="42.662" y="34.104" fill="#eee" width="1.766" height="1.767"/>
	<rect x="46.107" y="34.104" fill="#eee" width="1.678" height="1.767"/>
	<rect x="56.182" y="34.104" fill="#eee" width="1.678" height="1.767"/>
	<rect x="59.539" y="34.104" fill="#eee" width="1.767" height="1.767"/>
	<rect x="59.539" y="27.39" fill="#eee" width="1.767" height="1.679"/>
	<rect x="59.539" y="20.675" fill="#eee" width="1.767" height="1.678"/>
	<rect x="59.539" y="30.747" fill="#eee" width="1.767" height="1.679"/>
	<rect x="59.539" y="24.033" fill="#eee" width="1.767" height="1.678"/>
	<rect x="59.539" y="17.23" fill="#eee" width="1.767" height="1.766"/>
	<rect x="49.465" y="17.23" fill="#eee" width="1.68" height="1.766"/>
	<rect x="56.182" y="17.23" fill="#eee" width="1.678" height="1.766"/>
	<rect x="52.824" y="17.23" fill="#eee" width="1.678" height="1.766"/>
	<rect x="46.107" y="17.23" fill="#eee" width="1.679" height="1.766"/>
	<rect x="42.662" y="17.23" fill="#eee" width="1.766" height="1.766"/>
	<rect x="42.662" y="30.747" fill="#eee" width="1.766" height="1.679"/>
	<rect x="42.662" y="20.675" fill="#eee" width="1.766" height="1.678"/>
	<path fill="#eee" d="M16.74,31.367h-0.556v1.111h0.556c0.163,0,0.315,0.063,0.431,0.178s0.179,0.269,0.179,0.432v4.66
		c0,0.162-0.063,0.314-0.179,0.431c-0.115,0.115-0.268,0.179-0.431,0.179h-0.556v1.11h0.556c0.46,0,0.892-0.179,1.217-0.504
		s0.504-0.757,0.504-1.216v-4.66c0-0.46-0.179-0.893-0.504-1.218C17.632,31.546,17.199,31.367,16.74,31.367z"/>
	<path fill="#eee" d="M10.018,38.179c-0.115-0.115-0.179-0.269-0.179-0.431v-4.66c0-0.163,0.063-0.316,0.178-0.432
		c0.115-0.115,0.269-0.178,0.432-0.178h0.556v-1.111h-0.556c-0.459,0-0.892,0.179-1.218,0.504c-0.324,0.325-0.503,0.757-0.503,1.217
		v4.66c0,0.458,0.179,0.891,0.504,1.216s0.757,0.504,1.217,0.504h0.556v-1.11h-0.556C10.285,38.357,10.132,38.294,10.018,38.179z"/>
	<rect x="10.922" y="34.862" fill="#eee" width="1.111" height="1.111"/>
	<rect x="12.922" y="34.862" fill="#eee" width="1.111" height="1.111"/>
	<rect x="14.922" y="34.862" fill="#eee" width="1.111" height="1.111"/>
</g>
</svg>
