<?xml version="1.0" encoding="utf-8"?>
<!-- Generator: Adobe Illustrator 16.0.0, SVG Export Plug-In . SVG Version: 6.00 Build 0)  -->
<!DOCTYPE svg PUBLIC "-//W3C//DTD SVG 1.1//EN" "http://www.w3.org/Graphics/SVG/1.1/DTD/svg11.dtd">
<svg version="1.1" xmlns="http://www.w3.org/2000/svg" xmlns:xlink="http://www.w3.org/1999/xlink" x="0px" y="0px"
	 width="70px" height="70px" viewBox="0 0 70 70" enable-background="new 0 0 70 70" xml:space="preserve">
<path d="M63.887,47.806L52.197,42.3l11.625-4.949c0.696-0.295,1.161-0.979,1.178-1.745c0.02-0.759-0.42-1.461-1.106-1.786
	l-11.692-5.506l11.624-4.951c0.699-0.298,1.158-0.982,1.175-1.745c0.017-0.759-0.423-1.459-1.106-1.784L35.965,6.68
	c-0.507-0.239-1.129-0.241-1.64,0L6.115,19.856C5.423,20.181,4.987,20.882,5,21.64c0.013,0.767,0.471,1.451,1.17,1.747l11.638,4.994
	L6.115,33.844C5.423,34.167,4.987,34.869,5,35.625c0.013,0.763,0.471,1.451,1.17,1.745l11.638,4.996L6.115,47.83
	C5.423,48.154,4.987,48.854,5,49.613c0.013,0.76,0.471,1.447,1.17,1.745l27.927,11.984c0.241,0.104,0.498,0.157,0.762,0.157
	c0.261,0,0.515-0.053,0.755-0.154l28.209-12.01c0.699-0.299,1.158-0.982,1.178-1.746C65.013,48.831,64.577,48.127,63.887,47.806z
	 M48.286,26.202l-13.428,5.716L24.56,27.497l-13.854-5.945l24.432-11.414l24.16,11.375L48.286,26.202z M22.562,30l11.688,4.823
	c0.192,0.082,0.4-0.065,0.605-0.065h0.003c0.205,0,0.41,0.147,0.6,0.065l11.976-5.002l11.858,5.631l-11.006,4.714l-13.428,5.729
	l-10.302-4.413l-13.854-5.944L22.562,30z M22.563,43.985l11.689,4.869c0.189,0.081,0.397-0.023,0.603-0.023h0.003
	c0.205,0,0.41,0.107,0.6,0.023l11.976-5.026l11.858,5.621L34.858,59.892L10.705,49.525L22.563,43.985z"/>
</svg>
