<?xml version="1.0" encoding="utf-8"?>
<!-- Generator: Adobe Illustrator 16.0.0, SVG Export Plug-In . SVG Version: 6.00 Build 0)  -->
<!DOCTYPE svg PUBLIC "-//W3C//DTD SVG 1.1//EN" "http://www.w3.org/Graphics/SVG/1.1/DTD/svg11.dtd">
<svg version="1.1" xmlns="http://www.w3.org/2000/svg" xmlns:xlink="http://www.w3.org/1999/xlink" x="0px" y="0px"
	 width="70px" height="70px" viewBox="0 0 70 70" enable-background="new 0 0 70 70" xml:space="preserve">
<g>
	<g>
		<path fill="#060505" d="M5,58.175C5,59.181,5.806,60,6.791,60H30.48c0.985,0,1.791-0.819,1.791-1.825V11.824
			c0-1.005-0.806-1.824-1.791-1.824H6.791C5.806,10,5,10.819,5,11.824V58.175z M10.454,17.382c0-1.005,0.806-1.824,1.791-1.824
			h12.782c0.985,0,1.791,0.819,1.791,1.824v35.239c0,1.005-0.806,1.824-1.791,1.824H12.245c-0.985,0-1.791-0.819-1.791-1.824V17.382
			z"/>
	</g>
	<g>
		<path fill="#060505" d="M39.52,10c-0.986,0-1.791,0.819-1.791,1.824v1.909c0,1.005,0.805,1.824,1.791,1.824h23.689
			c0.986,0,1.791-0.819,1.791-1.824v-1.909C65,10.819,64.195,10,63.209,10H39.52z"/>
	</g>
	<g>
		<path fill="#060505" d="M37.729,58.175c0,1.006,0.805,1.825,1.791,1.825h23.689C64.195,60,65,59.181,65,58.175V56.27
			c0-1.005-0.805-1.824-1.791-1.824H39.52c-0.986,0-1.791,0.819-1.791,1.824V58.175z"/>
	</g>
	<g>
		<path fill="#060505" d="M37.729,24.843c0,1.004,0.805,1.823,1.791,1.823h23.689c0.986,0,1.791-0.819,1.791-1.823v-1.906
			c0-1.005-0.805-1.824-1.791-1.824H39.52c-0.986,0-1.791,0.819-1.791,1.824V24.843z"/>
	</g>
	<g>
		<path fill="#060505" d="M37.729,47.067c0,1.005,0.805,1.824,1.791,1.824h23.689c0.986,0,1.791-0.819,1.791-1.824v-1.909
			c0-1.006-0.805-1.825-1.791-1.825H39.52c-0.986,0-1.791,0.819-1.791,1.825V47.067z"/>
	</g>
	<g>
		<path fill="#060505" d="M37.729,35.954c0,1.005,0.805,1.825,1.791,1.825h23.689c0.986,0,1.791-0.82,1.791-1.825v-1.905
			c0-1.005-0.805-1.824-1.791-1.824H39.52c-0.986,0-1.791,0.819-1.791,1.824V35.954z"/>
	</g>
</g>
</svg>
