<?xml version="1.0" encoding="utf-8"?>
<!-- Generator: Adobe Illustrator 16.0.0, SVG Export Plug-In . SVG Version: 6.00 Build 0)  -->
<!DOCTYPE svg PUBLIC "-//W3C//DTD SVG 1.1//EN" "http://www.w3.org/Graphics/SVG/1.1/DTD/svg11.dtd">
<svg version="1.1" xmlns="http://www.w3.org/2000/svg" xmlns:xlink="http://www.w3.org/1999/xlink" x="0px" y="0px"
	 width="100px" height="100px" viewBox="0 0 100 100" enable-background="new 0 0 100 100" xml:space="preserve">
<g>
	<path d="M50.005,31.082c-5.333,0-9.964,1.871-13.763,5.561c-3.791,3.685-5.713,8.18-5.713,13.358c0,5.184,1.922,9.677,5.713,13.355
		c3.79,3.69,8.42,5.562,13.763,5.562c5.332,0,9.96-1.871,13.757-5.562c3.795-3.688,5.719-8.181,5.719-13.355
		c0-5.171-1.924-9.665-5.719-13.358C59.957,32.953,55.329,31.082,50.005,31.082z M58.848,58.618
		c-2.416,2.351-5.392,3.543-8.843,3.543c-3.461,0-6.438-1.192-8.849-3.543c-2.423-2.353-3.652-5.252-3.652-8.616
		c0-3.361,1.229-6.26,3.653-8.618c2.416-2.351,5.393-3.542,8.848-3.542c3.445,0,6.42,1.191,8.843,3.542
		c2.419,2.361,3.646,5.26,3.646,8.619C62.494,53.365,61.267,56.264,58.848,58.618z"/>
	<path d="M98.516,68.2l1.306-2.325l-1.969-1.915l-9.188-7.689l0.049-0.286c0.493-2.853,0.743-4.866,0.743-5.982
		c0-1.119-0.25-3.132-0.743-5.986l-0.049-0.286l9.215-7.713l1.941-1.89l-1.311-2.334l-7.981-13.586l-1.309-2.329l-2.86,0.856
		L74.373,20.7l-0.216-0.176c-3.118-2.548-6.519-4.563-10.109-5.99l-0.256-0.102L61.494,2.751L60.846,0H39.164L38.5,2.771
		l-2.293,11.662l-0.256,0.102c-3.595,1.432-6.995,3.447-10.105,5.991L25.631,20.7l-12.002-3.971l-2.845-0.852l-1.297,2.32
		L1.484,31.802l-1.306,2.325l1.973,1.915l9.183,7.688l-0.049,0.286c-0.49,2.861-0.738,4.875-0.738,5.986
		c0,1.109,0.249,3.122,0.738,5.983l0.049,0.286l-9.21,7.715l-1.946,1.891l1.311,2.332l7.992,13.589l1.303,2.325l2.859-0.853
		l11.988-3.97l0.215,0.177c3.105,2.544,6.505,4.56,10.104,5.989l0.256,0.102l2.298,11.686L39.164,100h21.682l0.652-2.765
		l2.294-11.668l0.256-0.102c3.595-1.425,6.995-3.44,10.109-5.989l0.216-0.177l12.001,3.975l2.847,0.848l1.304-2.316L98.516,68.2z
		 M85.938,75.86l-10.622-3.527l-1.728-0.418l-1.812,1.319c-3.501,3.077-7.596,5.398-12.132,6.869l-1.973,0.642l-0.441,1.905
		l-2.068,10.595H44.837l-2.079-10.611l-0.432-1.889l-1.979-0.642c-4.543-1.475-8.634-3.796-12.162-6.898l-1.773-1.29l-1.772,0.43
		L14.063,75.86l-5.184-8.482l8.326-7.077l1.733-1.265l-0.64-2.088c-0.516-2.144-0.772-4.47-0.772-6.944
		c0-2.47,0.257-4.797,0.764-6.917l0.648-2.116l-1.704-1.243l-8.355-7.103l5.184-8.48l10.618,3.526l1.731,0.418l1.811-1.317
		c3.498-3.079,7.589-5.401,12.125-6.872l1.979-0.64l0.435-1.906l2.075-10.592h10.326l2.071,10.608l0.438,1.89l1.973,0.64
		c4.525,1.466,8.62,3.788,12.168,6.901l1.774,1.288l1.769-0.43l10.582-3.514l5.179,8.48l-8.32,7.08l-1.738,1.266l0.644,2.084
		c0.515,2.171,0.771,4.498,0.771,6.949c0,2.455-0.257,4.781-0.763,6.913l-0.436,2.12l1.516,1.261l8.324,7.08L85.938,75.86z"/>
</g>
</svg>
