<?xml version="1.0" encoding="utf-8"?>
<!-- Generator: Adobe Illustrator 16.0.0, SVG Export Plug-In . SVG Version: 6.00 Build 0)  -->
<!DOCTYPE svg PUBLIC "-//W3C//DTD SVG 1.1//EN" "http://www.w3.org/Graphics/SVG/1.1/DTD/svg11.dtd">
<svg version="1.1" id="Layer_1" xmlns="http://www.w3.org/2000/svg" xmlns:xlink="http://www.w3.org/1999/xlink" x="0px" y="0px"
	 width="100px" height="100px" viewBox="0 0 100 100" enable-background="new 0 0 100 100" xml:space="preserve">
<g>
	<path d="M46.84,44.115c-0.943,0.018-0.975-0.254-0.996-0.418c-0.066-0.506-0.133,0.217-0.08-8.363
		c0.012-0.707,0.076-0.852,0.781-0.903c0.016,0,0.047,0.01,0.047,0c0.682-0.557-0.133-0.66-0.195-0.66l-3.729,0.017
		c-0.646,0.217-0.637,0.59,0.135,0.659c0.564,0.049,0.631,0.23,0.631,1.334c-0.037,8.85-0.029,7.258-0.088,7.926
		c-0.009,0.233-0.202,0.417-0.436,0.414c-0.729,0.074-1.41-0.068-1.93-0.611c-2.027-2.121-3.189-3.619-3.375-3.844
		c0.418-0.452,0.809-0.875,1.199-1.314c1.714-1.952,0.164-4.209-1.549-4.418c-1.451-0.175-3.557-0.16-5.869-0.14
		c-0.391,0.001-1.15,0.52,0.217,0.661c0.545,0.056,0.648,0.296,0.648,0.965c-0.003,0.41-0.06,2.802-0.044,7.832
		c0.006,1.379-0.68,0.467-1.145,1.199c0.07,0.224,0.286,0.369,0.52,0.35h3.795c0.762,0.004,0.766-0.713-0.162-0.693
		c-0.782,0.021-0.609-0.234-0.782-3.451c-0.021-0.389,1.29-0.354,1.602,0.072c2.098,2.855,2.645,4.066,4.729,4.066
		c2.025-0.014,4.051,0.002,6.076-0.014C47.594,44.773,47.326,44.115,46.84,44.115z M34.916,39.303
		c-0.343-0.036-0.423-0.153-0.423-0.504c-0.01-0.959,0.006-2.751-0.004-3.63c-0.006-0.468,2.473-0.667,2.802,1.525
		C37.359,37.154,37.576,39.574,34.916,39.303z"/>
	<path d="M93.664,74.539c-0.014-16.301-0.014-32.6,0-48.898c0-0.606-0.137-1.052-0.723-1.282C92.834,24.318,50.586,0.029,50.534,0
		h-0.341C48.07,1.171,11.74,21.896,7.197,24.455c-0.375,0.168-0.603,0.553-0.573,0.963c0.01,5.304,0.01,49.263,0.01,49.433
		c-0.021,0.267,0.125,0.52,0.368,0.633C7.031,75.5,34.164,91.082,49.658,100h0.586c2.162-1.229,38.586-21.988,42.76-24.332
		C93.438,75.466,93.7,75.017,93.664,74.539z M88.84,75.021c-3.012,1.746-35.238,20.063-38.559,21.975
		c-0.192,0.129-0.444,0.129-0.637,0l-0.014-0.002c-3.453-1.99-37.777-21.705-38.282-22.023h35.743c0.391,0,0.391,0.01,0.391,0.391
		c-0.139,6.227-0.264,8.895-0.295,9.375c-0.037,0.724,0.097,1.445,0.391,2.107c0.838,2.008,1.637,4.035,2.455,6.055
		c0.195,0.447,0.248,0.352,0.391,0.016c2.711-6.393,2.529-5.938,2.637-6.295c0.157-0.487,0.247-0.994,0.266-1.506
		c0.006-1.146-0.238-9.82-0.238-9.84c-0.008-0.232,0.061-0.305,0.299-0.305C91.039,74.986,88.813,74.938,88.84,75.021z
		 M91.032,71.961c-0.011-0.012-13.683-23.715-15.11-26.184c-0.207-0.361-0.218-0.357-0.607-0.281
		c-1.385,0.271-0.865,0.143-1.307,0.271c5.274,9.15,10.563,18.317,15.867,27.504H53.408c-0.238,0-0.38-0.02-0.369-0.316
		c0.001-0.021-0.17-5.213-0.17-5.234c0.004-0.221-0.078-0.289-0.289-0.26c-1.521,0.271-3.077,0.291-4.605,0.059
		c-0.213-0.033-0.275,0.051-0.275,0.246v2.148c0,0.143-0.021,0.25-0.195,0.225c-3.354-0.492-2.68,0.033-8.063-6.457
		c-0.53-0.625-0.998-1.285-1.506-1.92c-0.012-0.01-0.022-0.02-0.031-0.032c-0.103-0.119-0.089-0.299,0.031-0.401
		c1.658-2,3.102-3.516,2.93-6.365c-0.1-1.742-0.932-3.084-2.443-3.984c-1.949-1.158-4.373-0.949-10.949-0.949
		c-0.736,0.002-0.908,0.752-0.346,0.947c0.225,0.076,0.678,0.061,0.917,0.107c0.979,0.189,1.046,0.533,1.046,2.646
		c0.014,13.754,0.039,12.844-0.214,15.512c-0.098,1.025-0.659,0.719-1.301,0.867c-0.187,0.026-0.34,0.161-0.39,0.343
		c-0.069,0.252,0.079,0.512,0.331,0.581c0.404,0.119,6.27,0.096,6.576,0.02c0.656-0.164,0.512-0.91-0.102-0.961
		c-1.471-0.119-1.792-0.086-1.893-0.939c-0.166-1.443-0.138-1.26-0.195-6.379c-0.004-0.355,0.001-0.355,0.344-0.355
		c2.6,0,2.828-0.137,3.273,0.465c1.413,1.91,2.827,3.818,4.268,5.705c1.414,1.852,2.719,2.467,4.176,2.48
		c4.049,0.037,3.588-0.066,3.588,0.195v1.734c-0.002,0.275-0.051,0.32-0.332,0.32H10.793c-0.363,0-0.402,0.053-0.245-0.221
		c6.07-10.535,5.135-8.908,13.18-22.84c0.137-0.234,0.121-0.26-0.152-0.277c-1.195-0.078-1.465-0.254-1.781,0.297
		c-0.012,0.018-12.354,21.404-12.526,21.68V26.951c0.514,0.141,5.215,1.954,5.235,1.954c0.455,0.17,0.574,0.17,2.08-1.002
		l-6.027-2.273c-0.01-0.023-0.025-0.045-0.025-0.069c12.638-7.202,25.28-14.404,37.926-21.603L48.5,3.988l-0.008,0.003
		c-5.59,9.669-11.201,19.37-16.832,29.102c0.658,0,1.234,0.018,1.807-0.015C33.82,33.057,48.363,7.365,50.141,4.5
		c1.66,2.822,15.82,27.436,16.016,27.766c0.262,0.457,0.436,0.594,2.304,0.769l0.056-0.064L51.558,3.598
		C64.34,10.941,77.063,18.252,89.84,25.59c-1.459,0.57-20.098,7.572-20.117,7.572c-0.145,0.051-0.189,0.117-0.127,0.271
		c0.146,0.364,0.285,0.727,0.408,1.097c0.07,0.212,0.162,0.254,0.373,0.172c0.48-0.188,20.32-7.653,20.655-7.75V71.961z
		 M31.887,51.996c-0.012-0.834,2.723-0.41,3.113-0.295c2.957,0.865,3.609,4.762,2.438,7.586c-0.906,2.16-2.754,1.658-5.008,1.43
		c-0.468-0.041-0.539-0.117-0.539-0.586C31.889,54.264,31.896,53.566,31.887,51.996z"/>
	<path d="M61.638,44.115c2.598,1.383,6.071,0.703,6.384,0.662c1.283-0.168,1.172-2.471,1.172-2.49
		c-0.17-0.574-0.369-0.469-0.609-0.215c-0.201,0.211-0.193,1.119-1.35,1.48c-1.34,0.418-4.488,0.318-5.638-2.691
		c-1.102-2.883,0.175-7.412,5.309-5.902c0.882,0.259,1.403,0.848,1.478,1.787c0.037,0.467,0.523,0.488,0.652,0.053
		c0.041-0.134,0.043-0.858,0.107-1.892c0.035-0.564-0.096-0.79-0.576-0.909h-0.006c-0.471-0.115-5.532-1.482-8.266,1.264
		C58.368,37.187,57.537,41.93,61.638,44.115z"/>
	<path d="M69.352,44.16c-0.459,0.012-0.426,0.627,0.145,0.627h5.15c0.756-0.002,0.457-0.617-0.129-0.729
		c-0.846-0.164-2.629,0.209-2.381-0.422c0.281-0.725,0.572-1.441,0.881-2.148c0.068-0.113,0.185-0.19,0.316-0.207
		c0.948-0.055,1.898-0.06,2.848-0.014c0.181-0.012,0.344,0.106,0.391,0.281c0.26,0.666,0.523,1.332,0.803,1.99
		c0.363,0.854-0.42,0.977,0.074,1.094c0.23,0.071,0.468,0.119,0.709,0.143c0.566,0.018-2.115-0.021,9.906,0.061
		c1.068,0.008,0.799-0.627,1.035-2.02l-0.006-0.012c0.078-0.455-0.402-1.092-0.729,0.037c-0.211,0.752-0.537,0.75-3.125,0.666
		c-0.3,0.022-0.57-0.181-0.631-0.475c-0.094-0.453-0.07-7.73-0.057-8.048c-0.003-0.026-0.003-0.051-0.003-0.076
		c0.013-0.276,0.247-0.49,0.522-0.478c1.275-0.137,0.689-0.673,0.236-0.673c-4.412-0.018-4.197-0.01-4.238,0.029
		c-0.484,0.474-0.035,0.598,0.015,0.598c0.624,0.104,1.085-0.037,1.085,0.833c0.002,8.284,0.004,7.69-0.014,8.055
		c-0.025,0.621-0.102,0.863-0.807,0.838c-0.121,0-0.852,0.137-1.242-0.391c-1.02-1.408-4.041-9.488-4.613-10.14
		c-0.024-0.035-0.054-0.065-0.088-0.088c-0.162-0.113-0.385-0.074-0.498,0.088c-0.266,0.28-0.047-0.104-3.598,8.126
		c-0.256,0.604-0.51,1.189-0.803,1.775C70.29,43.917,69.837,44.183,69.352,44.16z M74.77,36.955l1.19,3.094h-2.408
		C73.957,39.02,74.348,38.025,74.77,36.955z"/>
	<path d="M30.219,43.242c-1.141,0.055,0.469,3.607-4.852,3.998c-7.243,0.537-10.623-5.266-10.563-9.938
		c0.149-11.348,13.965-9.342,14.576-4.961c0.076,0.554-0.011,1.755,0.781,1.424c0.187-0.077,0.311-0.256,0.318-0.457
		c0.016-0.16,0.202-3.545,0.243-4.521c0.023-0.543-0.168-0.721-0.707-0.781c-3.87-0.439-6.377-1.211-10.252-0.33
		c-5.826,1.325-8.395,6.699-7.865,11.748c1.298,12.529,17.932,10.006,18.232,8.215c0.006-0.039,0.316-1.621,0.674-3.74
		c0.016-0.065,0.02-0.134,0.011-0.201C30.777,43.407,30.509,43.203,30.219,43.242z"/>
	<path d="M68.527,54.723c-0.744,0.004-0.71,0.666,0.119,0.666l0.006,0.004c0.75-0.002,1.24-0.955,0.764,10.025
		c-0.031,0.605-0.598,0.463-0.813,0.5c-0.473,0.088-0.574,0.574-0.043,0.674c0.131,0.023-0.381,0.045,6.877,0.061
		c0.879,0.002,0.91-0.396,0.91-0.467c0.074-0.627,0.154-1.256,0.24-1.883c0.063-0.459-0.457-0.576-0.621-0.113
		c-0.396,1.115,0.041,1.209-3.209,1.115c-0.908-0.025-0.76-0.779-0.76-3.172c0-1.67-0.49-1.348,2.521-1.172
		c0.725,0.043,0.496,0.645,0.725,1.035c0.137,0.232,0.4,0.189,0.504-0.063c0.082-0.203,0.23-2.184,0.23-2.225
		c0.045-0.693-0.508-0.375-0.6-0.344c-1.051,0.363-2.455,0.248-3.064,0.297c-0.316,0.025-0.316,0.035-0.316-0.287v-3.15
		c0-0.297,0.012-0.311,0.32-0.297c2.633,0.123,2.979-0.045,3.053,0.992c0.039,0.539,0.615,0.451,0.664,0.029
		c0.069-0.66,0.145-1.322,0.195-1.984c0.025-0.322-0.111-0.406-0.439-0.369C74.018,54.797,75.54,54.691,68.527,54.723z"/>
	<path d="M54.386,56.303c-0.552-0.296-1.119-0.56-1.7-0.791c-0.135-0.061-0.236-0.121-0.236-0.295
		c-0.002-0.021-0.729-23.824-0.729-23.85c0-0.137,0.059-0.181,0.195-0.181c8.854,0.456,6.663,0.45,7.641,2.343
		c0.141,0.275,0.326,0.309,0.508,0.037c0.181-0.271,0.168-3.972,0.168-3.994c-0.014-0.335-0.178-0.434-0.508-0.375
		c-0.356,0.082-0.719,0.137-1.082,0.166l0.008,0.015c-2.24,0.056-6.713,0.072-6.732,0.072c-0.158,0.003-0.242-0.041-0.242-0.217
		c-0.217-6.711-0.196-5.754-0.196-5.869c-0.041-0.345,0.131-0.68,0.434-0.847c1.612-1.023,1.815-3.313,0.479-4.717
		c-1.887-1.985-5.416-0.644-5.348,2.248c0.029,1.234,0.645,2.142,1.738,2.709c0.216,0.091,0.347,0.314,0.318,0.547
		c-0.082,1.359-0.063,0.402-0.195,5.771c-0.008,0.346-0.018,0.361-0.355,0.361c-5.963-0.043-6.184,0.037-7.275-0.375
		c-0.391-0.146-0.592-0.048-0.67,0.363c-0.224,1.172-0.439,2.345-0.647,3.516c-0.037,0.213,0.299,1.162,0.772-0.045
		c0.678-1.729,1.537-1.563,7.855-1.664c0.143-0.002,0.273,0.014,0.264,0.225c-0.139,2.783-0.705,22.602-0.725,23.701
		c0.025,0.249-0.145,0.475-0.391,0.52c-2.271,0.723-4.795,3.348-3.885,7.109c1.149,4.752,6.131,4.566,6.668,4.541
		c5.75-0.268,6.572-4.949,6.29-7.254C56.607,58.42,55.813,57.148,54.386,56.303z M50.146,18.519v-0.007
		c1.959,0.006,1.873,2.935-0.014,2.912C48.246,21.4,48.227,18.519,50.146,18.519z M53.676,64.777
		c-0.911,1.486-2.774,2.074-4.373,1.381c-4.074-1.678-4.012-8.078-1.258-9.531c0.053,0.393-0.199,7.311-0.215,7.701
		c-0.068,1.633,4.994,2.447,4.928,0.506c-0.005-0.088-0.213-7.227-0.213-7.643v-0.008c0.023-0.006,0.047-0.015,0.07-0.023
		C55.012,59.021,54.635,63.262,53.676,64.777z"/>
	<path d="M66.505,64.021c-0.749,0.916,0.628,1.475-3.669,1.238c-0.447-0.025-0.65-0.266-0.672-0.713
		c-0.115-2.422-0.078-7.705-0.078-8.096c0-1.148,0.467-1.004,0.977-1.066c0.684-0.084,0.608-0.67-0.031-0.67
		c-1.001-0.002-4.227,0-4.51,0.004c-0.457,0-0.549,0.555-0.066,0.629c0.563,0.086,1.056-0.012,1.108,0.725
		c0.046,0.617,0.13,6.238-0.066,9.338c-0.036,0.625-0.61,0.453-1.001,0.547c-0.32,0.074-0.295,0.615,0.082,0.66l7.453,0.037
		c0.232-0.002,1.082,0.238,1.013-2.422C67.044,64.186,66.863,63.584,66.505,64.021z"/>
	<path d="M58.025,44.127c-0.614-0.023-1.158,0.098-1.172-0.699h-0.01c-0.146-8.236,0.014-8.514,0.014-8.554
		c0.056-0.538,0.615-0.381,0.811-0.483c0.447-0.236,0.273-0.438,0.082-0.559c-0.191-0.122-3.883-0.041-4.135-0.041
		c-0.346,0.011-0.584,0.375-0.08,0.615c0.283,0.135,0.922-0.166,0.922,0.826c-0.033,9.209,0.211,8.895-0.667,8.895
		c-0.659,0.004-0.75,0.658,0,0.658c1.546,0.012,2.956,0.012,4.222,0.012C58.52,44.793,58.535,44.146,58.025,44.127z"/>
</g>
</svg>
