<?xml version="1.0" encoding="utf-8"?>
<!-- Generator: Adobe Illustrator 16.0.0, SVG Export Plug-In . SVG Version: 6.00 Build 0)  -->
<!DOCTYPE svg PUBLIC "-//W3C//DTD SVG 1.1//EN" "http://www.w3.org/Graphics/SVG/1.1/DTD/svg11.dtd">
<svg version="1.1" xmlns="http://www.w3.org/2000/svg" xmlns:xlink="http://www.w3.org/1999/xlink" x="0px" y="0px"
	 width="100px" height="100px" viewBox="0 0 100 100" enable-background="new 0 0 100 100" xml:space="preserve">
<path d="M98.906,27.13c-0.659-2.3-2.331-3.923-4.613-4.46c-2.19-0.506-4.356,0.152-5.943,1.751L72.851,39.706l-10.806-1.748
	l-1.752-10.813l15.279-15.49c1.636-1.647,2.258-3.762,1.758-5.964c-0.519-2.255-2.142-3.933-4.577-4.632
	C66.792-0.43,60.647-0.347,54.545,1.3c-6.126,1.654-11.496,4.763-15.975,9.235c-4.809,4.817-8.006,10.617-9.495,17.253
	c-1.324,5.849-1.208,11.646,0.317,17.262L5.333,69.33C1.8,72.867,0.006,77.162,0.006,82.111c0,4.945,1.757,9.211,5.211,12.678
	C8.677,98.242,12.942,100,17.885,100l0.024-0.006c4.937,0.006,9.226-1.789,12.759-5.316L54.74,70.594
	c5.748,1.545,11.582,1.648,17.366,0.34c6.541-1.492,12.362-4.676,17.403-9.551c4.441-4.604,7.529-10,9.183-16.023
	C100.347,39.318,100.432,33.229,98.906,27.13z M91.651,43.428c-1.324,4.836-3.813,9.171-7.311,12.802
	c-3.973,3.838-8.634,6.391-13.845,7.578c-5.236,1.195-10.459,0.928-15.64-0.799l-2.142-0.715L25.512,89.508
	c-2.148,2.145-4.638,3.184-7.603,3.184h-0.012c-2.99,0-5.443-1.002-7.512-3.072c-2.068-2.068-3.069-4.527-3.069-7.508
	s1.038-5.467,3.186-7.625l27.214-27.449l-0.732-2.145c-1.733-5.077-1.989-10.145-0.787-15.505c1.202-5.333,3.667-9.812,7.536-13.687
	c3.612-3.606,7.774-6.016,12.717-7.353c2.587-0.696,5.187-1.05,7.725-1.05c1.672,0,3.368,0.156,4.998,0.452L52.495,24.649
	l3.185,19.676l19.667,3.185l16.902-16.676C93.006,34.995,92.805,39.221,91.651,43.428z"/>
</svg>
