<?xml version="1.0" encoding="utf-8"?>
<!-- Generator: Adobe Illustrator 24.3.0, SVG Export Plug-In . SVG Version: 6.00 Build 0)  -->
<svg version="1.1" id="Layer_1" xmlns="http://www.w3.org/2000/svg" xmlns:xlink="http://www.w3.org/1999/xlink" x="0px" y="0px"
	 viewBox="0 0 100 100" style="enable-background:new 0 0 100 100;" xml:space="preserve">
<g>
	<path d="M89,72.8H78.2V89c0,6-4.8,10.8-10.8,10.8H10.8C4.8,99.8,0,95,0,89V32.4c0-6,4.8-10.8,10.8-10.8H27V10.8
		C27,4.8,31.8,0,37.8,0H89c6,0,10.8,4.8,10.8,10.8v51.3C99.8,68,95,72.8,89,72.8z M91.7,13.5c0-3-2.4-5.4-5.4-5.4H40.5
		c-3,0-5.4,2.4-5.4,5.4v8.1h25.4l-8.1,8.1H13.5c-3,0-5.4,2.4-5.4,5.4v51.3c0,3,2.4,5.4,5.4,5.4h51.3c3,0,5.4-2.4,5.4-5.4V47.5
		l8.1-8.1v25.4h8.1c3,0,5.4-2.4,5.4-5.4L91.7,13.5L91.7,13.5z M35.4,70.1h11.8c2.2,0,4,1.8,4,4c0,2.2-1.8,4-4,4H25.6
		c-1.2,0-2.2-0.5-3-1.4c-0.7-0.7-1.1-1.7-1.1-2.7V52.6c0-2.2,1.8-4,4-4s4,1.8,4,4v11.8l42.6-42.6c1.6-1.6,4.1-1.6,5.7,0
		s1.6,4.1,0,5.7L35.4,70.1z"/>
</g>
</svg>
