<?xml version="1.0" encoding="utf-8"?>
<!-- Generator: Adobe Illustrator 16.0.0, SVG Export Plug-In . SVG Version: 6.00 Build 0)  -->
<!DOCTYPE svg PUBLIC "-//W3C//DTD SVG 1.1//EN" "http://www.w3.org/Graphics/SVG/1.1/DTD/svg11.dtd">
<svg version="1.1" xmlns="http://www.w3.org/2000/svg" xmlns:xlink="http://www.w3.org/1999/xlink" x="0px" y="0px"
	 width="211px" height="230px" viewBox="0 0 211 230" enable-background="new 0 0 211 230" xml:space="preserve">
<path fill="#343436" d="M211,227c0,1.65-1.35,3-3,3H3c-1.649,0-3-1.35-3-3V3c0-1.65,1.351-3,3-3h205c1.65,0,3,1.35,3,3V227z"/>
<g>
	<g>
		<path fill-rule="evenodd" clip-rule="evenodd" fill="#606062" d="M191.913,175c0,1.1-0.9,2-2,2H20.672c-1.1,0-2-0.9-2-2V84.954
			c0-1.1,0.9-2,2-2h169.241c1.1,0,2,0.9,2,2V175z"/>
	</g>
	<path fill-rule="evenodd" clip-rule="evenodd" fill="#3A3A3C" d="M62.642,117.336c12.272-7.027,21.458,3.471,37.329,23.005
		c15.87,19.53,25.856,28.767,40.199,10.541c15.697-19.946,24.748-9.003,30.627-1.915c3.988,4.805,14.188,16.565,21.116,24.666V84.35
		c0-1.323-0.856-2.396-1.914-2.396H20.586c-1.057,0-1.915,1.073-1.915,2.396v88.011C24.275,163.993,51.652,123.629,62.642,117.336z
		 M131.623,120.291c5.286,0,9.571,4.291,9.571,9.586c0,5.293-4.285,9.584-9.571,9.584s-9.572-4.291-9.572-9.584
		C122.051,124.582,126.337,120.291,131.623,120.291z"/>
</g>
<g>
	<g>
		<g>
			<path fill="#606062" d="M191.913,56.454c0,0.825-0.675,1.5-1.5,1.5H140.42c-0.825,0-1.5-0.675-1.5-1.5V30.458
				c0-0.825,0.675-1.5,1.5-1.5h49.993c0.825,0,1.5,0.675,1.5,1.5V56.454z"/>
		</g>
		<g>
			<g>
				<path fill-rule="evenodd" clip-rule="evenodd" fill="#3A3A3C" d="M152.369,39.632c3.754-2.121,6.564,1.047,11.42,6.939
					c4.854,5.893,7.908,8.679,12.297,3.181c4.802-6.017,7.57-2.716,9.369-0.577c1.219,1.449,4.34,4.997,6.458,7.44V29.68
					c0-0.399-0.261-0.723-0.585-0.723h-51.824c-0.322,0-0.584,0.324-0.584,0.723v26.552
					C140.633,53.708,149.008,41.53,152.369,39.632z M173.471,40.523c1.618,0,2.928,1.294,2.928,2.893
					c0,1.596-1.31,2.891-2.928,2.891c-1.616,0-2.928-1.294-2.928-2.891C170.543,41.817,171.854,40.523,173.471,40.523z"/>
			</g>
		</g>
	</g>
</g>
<g>
	<g>
		<path fill="#606062" d="M131.913,56.454c0,0.825-0.675,1.5-1.5,1.5H80.419c-0.825,0-1.5-0.675-1.5-1.5V30.458
			c0-0.825,0.675-1.5,1.5-1.5h49.994c0.825,0,1.5,0.675,1.5,1.5V56.454z"/>
	</g>
	<path fill-rule="evenodd" clip-rule="evenodd" fill="#3A3A3C" d="M92.37,39.632c3.753-2.121,6.564,1.047,11.419,6.939
		c4.854,5.893,7.909,8.679,12.297,3.181c4.802-6.017,7.57-2.716,9.369-0.577c1.219,1.449,4.34,4.997,6.458,7.44V29.68
		c0-0.399-0.261-0.723-0.585-0.723H79.504c-0.323,0-0.585,0.324-0.585,0.723v26.552C80.632,53.708,89.008,41.53,92.37,39.632z
		 M113.471,40.523c1.618,0,2.928,1.294,2.928,2.893c0,1.596-1.31,2.891-2.928,2.891c-1.616,0-2.928-1.294-2.928-2.891
		C110.543,41.817,111.854,40.523,113.471,40.523z"/>
</g>
<g>
	<g>
		<g>
			<path fill="#606062" d="M71.666,56.454c0,0.825-0.675,1.5-1.5,1.5H20.172c-0.825,0-1.5-0.675-1.5-1.5V30.458
				c0-0.825,0.675-1.5,1.5-1.5h49.994c0.825,0,1.5,0.675,1.5,1.5V56.454z"/>
		</g>
		<g>
			<g>
				<path fill-rule="evenodd" clip-rule="evenodd" fill="#3A3A3C" d="M32.122,39.632c3.753-2.121,6.564,1.047,11.419,6.939
					c4.854,5.893,7.909,8.679,12.297,3.181c4.802-6.017,7.57-2.716,9.369-0.577c1.219,1.449,4.34,4.997,6.458,7.44V29.68
					c0-0.399-0.261-0.723-0.585-0.723H19.257c-0.323,0-0.585,0.324-0.585,0.723v26.552C20.385,53.708,28.761,41.53,32.122,39.632z
					 M53.223,40.523c1.618,0,2.928,1.294,2.928,2.893c0,1.596-1.31,2.891-2.928,2.891c-1.616,0-2.928-1.294-2.928-2.891
					C50.295,41.817,51.607,40.523,53.223,40.523z"/>
			</g>
		</g>
	</g>
</g>
<g>
	<path fill-rule="evenodd" clip-rule="evenodd" fill="#4A4A4C" d="M191.913,218c0,1.1-0.9,2-2,2H20.672c-1.1,0-2-0.9-2-2v-16.167
		c0-1.1,0.9-2,2-2h169.241c1.1,0,2,0.9,2,2V218z"/>
</g>
<g>
	<g>
		<path fill-rule="evenodd" clip-rule="evenodd" fill="#343436" d="M44.75,207.166h20v2h-20V207.166z"/>
	</g>
</g>
<g>
	<g>
		<path fill-rule="evenodd" clip-rule="evenodd" fill="#343436" d="M44.75,211.998h15.917v2H44.75V211.998z"/>
	</g>
</g>
<g>
	<g>
		<path fill-rule="evenodd" clip-rule="evenodd" fill="#343436" d="M31.667,205.083h8c1.104,0,2,0.896,2,2v7c0,1.104-0.896,2-2,2h-8
			c-1.104,0-2-0.896-2-2v-7C29.667,205.979,30.563,205.083,31.667,205.083z"/>
	</g>
</g>
<g opacity="0.5">
	<g>
		<path fill-rule="evenodd" clip-rule="evenodd" fill="#606062" d="M76.517,205h102.467c0.976,0,1.767,1.119,1.767,2.5v5
			c0,1.381-0.791,2.5-1.767,2.5H76.517c-0.976,0-1.767-1.119-1.767-2.5v-5C74.75,206.119,75.541,205,76.517,205z"/>
	</g>
</g>
<path fill-rule="evenodd" clip-rule="evenodd" fill="#343436" d="M178.983,205h-18.316v10h18.316c0.976,0,1.767-1.119,1.767-2.5v-5
	C180.75,206.119,179.959,205,178.983,205z"/>
<g>
	<path fill="#676767" d="M96.635,189.585c0.301-0.544,0.711-0.967,1.23-1.271c0.52-0.303,1.1-0.455,1.74-0.455
		c0.779,0,1.447,0.186,2.004,0.556s0.963,0.892,1.216,1.564h-0.82c-0.2-0.467-0.505-0.831-0.915-1.095s-0.904-0.396-1.484-0.396
		c-0.514,0-0.976,0.12-1.385,0.36c-0.41,0.24-0.732,0.584-0.966,1.03s-0.35,0.963-0.35,1.55s0.116,1.102,0.35,1.545
		s0.556,0.785,0.966,1.025c0.409,0.239,0.871,0.359,1.385,0.359c0.58,0,1.074-0.13,1.484-0.39s0.715-0.62,0.915-1.08h0.82
		c-0.253,0.667-0.66,1.184-1.22,1.55c-0.561,0.367-1.227,0.55-2,0.55c-0.641,0-1.221-0.151-1.74-0.454
		c-0.52-0.304-0.93-0.726-1.23-1.266c-0.3-0.54-0.449-1.153-0.449-1.84S96.335,190.128,96.635,189.585z"/>
	<path fill="#676767" d="M108.305,187.939v0.561h-1.939v6.43h-0.7v-6.43h-1.95v-0.561H108.305z"/>
	<path fill="#676767" d="M113.465,193.27h-3.18l-0.61,1.66h-0.74l2.55-6.9h0.791l2.539,6.9h-0.74L113.465,193.27z M113.266,192.71
		l-1.391-3.8l-1.391,3.8H113.266z"/>
</g>
<g>
	<path fill="#676767" d="M92.685,72.759c0.273,0.326,0.41,0.706,0.41,1.14c0,0.354-0.088,0.672-0.265,0.955s-0.435,0.507-0.774,0.67
		s-0.747,0.245-1.221,0.245h-2.42v-6.99h2.35c0.707,0,1.246,0.164,1.615,0.49c0.37,0.327,0.555,0.75,0.555,1.27
		c0,0.434-0.116,0.785-0.35,1.056c-0.233,0.27-0.533,0.458-0.9,0.564C92.079,72.232,92.411,72.432,92.685,72.759z M89.115,71.879
		h1.63c0.474,0,0.838-0.113,1.096-0.341c0.256-0.227,0.385-0.536,0.385-0.93s-0.129-0.703-0.385-0.93
		c-0.258-0.227-0.633-0.34-1.125-0.34h-1.601V71.879z M91.97,74.834c0.283-0.244,0.426-0.579,0.426-1.006
		c0-0.42-0.148-0.755-0.445-1.005s-0.695-0.375-1.195-0.375h-1.64v2.75h1.67C91.292,75.198,91.687,75.077,91.97,74.834z"/>
	<path fill="#676767" d="M94.399,71.554c0.224-0.424,0.533-0.75,0.931-0.98c0.396-0.229,0.845-0.345,1.345-0.345
		c0.52,0,0.969,0.12,1.346,0.36c0.376,0.239,0.648,0.547,0.814,0.92v-1.2h0.7v5.46h-0.7v-1.21c-0.174,0.373-0.448,0.682-0.825,0.925
		c-0.376,0.243-0.825,0.365-1.345,0.365c-0.494,0-0.938-0.116-1.335-0.35c-0.397-0.233-0.707-0.563-0.931-0.99
		c-0.223-0.427-0.334-0.92-0.334-1.48C94.065,72.469,94.177,71.977,94.399,71.554z M98.565,71.879
		c-0.181-0.334-0.426-0.591-0.735-0.771s-0.651-0.27-1.024-0.27c-0.387,0-0.734,0.086-1.041,0.26s-0.549,0.425-0.725,0.755
		c-0.177,0.33-0.266,0.722-0.266,1.175c0,0.447,0.089,0.839,0.266,1.175c0.176,0.337,0.418,0.594,0.725,0.771
		s0.654,0.265,1.041,0.265c0.373,0,0.715-0.09,1.024-0.27c0.31-0.181,0.555-0.437,0.735-0.771c0.18-0.333,0.27-0.72,0.27-1.16
		C98.835,72.599,98.745,72.212,98.565,71.879z"/>
	<path fill="#676767" d="M105.295,70.813c0.413,0.403,0.62,0.988,0.62,1.755v3.2h-0.69v-3.12c0-0.593-0.148-1.047-0.444-1.36
		c-0.297-0.313-0.702-0.47-1.215-0.47c-0.527,0-0.947,0.167-1.26,0.5c-0.314,0.334-0.471,0.823-0.471,1.47v2.98h-0.7v-5.46h0.7v0.93
		c0.174-0.333,0.424-0.588,0.75-0.765s0.697-0.265,1.109-0.265C104.349,70.209,104.882,70.41,105.295,70.813z"/>
	<path fill="#676767" d="M111.625,70.813c0.413,0.403,0.62,0.988,0.62,1.755v3.2h-0.69v-3.12c0-0.593-0.148-1.047-0.444-1.36
		c-0.297-0.313-0.702-0.47-1.215-0.47c-0.527,0-0.947,0.167-1.261,0.5c-0.313,0.334-0.47,0.823-0.47,1.47v2.98h-0.7v-5.46h0.7v0.93
		c0.173-0.333,0.423-0.588,0.75-0.765c0.326-0.177,0.696-0.265,1.11-0.265C110.679,70.209,111.212,70.41,111.625,70.813z"/>
	<path fill="#676767" d="M118.715,73.288h-4.529c0.013,0.414,0.111,0.769,0.295,1.065c0.183,0.297,0.421,0.521,0.715,0.675
		c0.293,0.153,0.613,0.23,0.96,0.23c0.453,0,0.835-0.11,1.145-0.33c0.311-0.22,0.516-0.517,0.615-0.891h0.74
		c-0.134,0.534-0.419,0.969-0.855,1.306s-0.984,0.505-1.645,0.505c-0.514,0-0.974-0.115-1.38-0.345
		c-0.407-0.23-0.726-0.557-0.955-0.98c-0.23-0.423-0.345-0.918-0.345-1.485c0-0.566,0.113-1.063,0.34-1.489s0.543-0.754,0.949-0.98
		c0.407-0.227,0.87-0.34,1.391-0.34c0.52,0,0.975,0.111,1.365,0.335c0.39,0.224,0.689,0.528,0.899,0.915s0.315,0.81,0.315,1.271
		C118.735,72.982,118.729,73.162,118.715,73.288z M117.78,71.709c-0.17-0.294-0.402-0.514-0.695-0.66s-0.613-0.221-0.96-0.221
		c-0.34,0-0.653,0.074-0.939,0.221c-0.287,0.146-0.521,0.366-0.7,0.66c-0.181,0.293-0.28,0.646-0.3,1.06h3.84
		C118.031,72.355,117.95,72.002,117.78,71.709z"/>
	<path fill="#676767" d="M121.42,70.519c0.316-0.207,0.705-0.31,1.165-0.31v0.729h-0.19c-0.507,0-0.913,0.137-1.22,0.41
		s-0.46,0.729-0.46,1.37v3.05h-0.7v-5.46h0.7v1.08C120.868,71.016,121.104,70.726,121.42,70.519z"/>
</g>
<g>
	<path fill="#676767" d="M95.239,16.183c0.554,0.28,0.977,0.684,1.271,1.21c0.294,0.527,0.44,1.153,0.44,1.88
		c0,0.721-0.146,1.342-0.44,1.865s-0.717,0.924-1.271,1.2c-0.553,0.276-1.217,0.415-1.989,0.415h-2.07v-6.99h2.07
		C94.022,15.763,94.687,15.904,95.239,16.183z M95.476,21.428c0.51-0.517,0.764-1.234,0.764-2.155c0-0.92-0.254-1.64-0.764-2.159
		c-0.511-0.521-1.252-0.78-2.226-0.78h-1.37v5.87h1.37C94.224,22.204,94.965,21.945,95.476,21.428z"/>
	<path fill="#676767" d="M103.16,20.273h-4.53c0.014,0.414,0.111,0.769,0.295,1.065s0.422,0.521,0.715,0.675s0.613,0.23,0.961,0.23
		c0.453,0,0.834-0.11,1.145-0.33s0.515-0.517,0.615-0.891h0.74c-0.135,0.534-0.419,0.969-0.855,1.306
		c-0.438,0.337-0.985,0.505-1.645,0.505c-0.514,0-0.975-0.115-1.381-0.345c-0.406-0.23-0.725-0.557-0.955-0.98
		c-0.229-0.423-0.345-0.918-0.345-1.485c0-0.566,0.113-1.063,0.34-1.489s0.544-0.754,0.95-0.98s0.87-0.34,1.391-0.34
		c0.52,0,0.975,0.111,1.364,0.335s0.69,0.528,0.899,0.915c0.211,0.387,0.316,0.81,0.316,1.271
		C103.181,19.967,103.173,20.147,103.16,20.273z M102.226,18.694c-0.17-0.294-0.402-0.514-0.695-0.66
		c-0.294-0.146-0.613-0.221-0.961-0.221c-0.34,0-0.652,0.074-0.939,0.221s-0.52,0.366-0.699,0.66
		c-0.181,0.293-0.281,0.646-0.301,1.06h3.84C102.477,19.34,102.396,18.987,102.226,18.694z"/>
	<path fill="#676767" d="M112.524,17.798c0.404,0.403,0.605,0.988,0.605,1.755v3.2h-0.689v-3.12c0-0.593-0.145-1.047-0.432-1.36
		c-0.285-0.313-0.676-0.47-1.17-0.47c-0.512,0-0.922,0.17-1.229,0.51c-0.307,0.341-0.461,0.834-0.461,1.48v2.96h-0.689v-3.12
		c0-0.593-0.145-1.047-0.43-1.36c-0.287-0.313-0.681-0.47-1.181-0.47c-0.513,0-0.923,0.17-1.229,0.51
		c-0.307,0.341-0.461,0.834-0.461,1.48v2.96h-0.699v-5.46h0.699v0.94c0.174-0.341,0.42-0.599,0.74-0.775s0.677-0.265,1.07-0.265
		c0.473,0,0.889,0.113,1.244,0.34c0.357,0.227,0.615,0.56,0.775,1c0.146-0.434,0.398-0.766,0.756-0.995
		c0.355-0.23,0.762-0.345,1.215-0.345C111.601,17.194,112.122,17.395,112.524,17.798z"/>
	<path fill="#676767" d="M115.685,22.489c-0.41-0.23-0.733-0.557-0.97-0.98c-0.236-0.423-0.354-0.918-0.354-1.485
		c0-0.566,0.119-1.062,0.359-1.484c0.24-0.424,0.566-0.75,0.98-0.98c0.413-0.229,0.876-0.345,1.39-0.345s0.979,0.115,1.396,0.345
		c0.416,0.23,0.743,0.557,0.979,0.98c0.236,0.423,0.355,0.918,0.355,1.484c0,0.561-0.12,1.054-0.36,1.48s-0.57,0.755-0.99,0.985
		c-0.42,0.229-0.887,0.345-1.399,0.345C116.557,22.833,116.095,22.718,115.685,22.489z M118.07,21.994
		c0.306-0.167,0.555-0.417,0.744-0.75c0.19-0.334,0.285-0.74,0.285-1.221c0-0.479-0.093-0.886-0.279-1.22
		c-0.188-0.333-0.434-0.581-0.74-0.745c-0.307-0.163-0.641-0.245-1-0.245c-0.36,0-0.693,0.082-1,0.245
		c-0.307,0.164-0.552,0.412-0.735,0.745c-0.184,0.334-0.274,0.74-0.274,1.22c0,0.48,0.091,0.887,0.274,1.221
		c0.184,0.333,0.427,0.583,0.73,0.75c0.303,0.166,0.635,0.25,0.995,0.25C117.43,22.244,117.763,22.16,118.07,21.994z"/>
</g>
</svg>
