<?xml version="1.0" encoding="utf-8"?>
<!-- Generator: Adobe Illustrator 16.0.0, SVG Export Plug-In . SVG Version: 6.00 Build 0)  -->
<!DOCTYPE svg PUBLIC "-//W3C//DTD SVG 1.1//EN" "http://www.w3.org/Graphics/SVG/1.1/DTD/svg11.dtd">
<svg version="1.1" xmlns="http://www.w3.org/2000/svg" xmlns:xlink="http://www.w3.org/1999/xlink" x="0px" y="0px"
	 width="211px" height="230px" viewBox="0 0 211 230" enable-background="new 0 0 211 230" xml:space="preserve">
<g display="none">
	<path display="inline" fill="#F5F6F6" d="M211,227c0,1.65-1.35,3-3,3H3c-1.649,0-3-1.35-3-3V3c0-1.65,1.351-3,3-3h205
		c1.65,0,3,1.35,3,3V227z"/>
	<g display="inline">
		<rect x="18.672" y="81.954" fill="none" width="173.241" height="96.44"/>
		<path fill="#CDCCCC" d="M62.642,117.336c12.272-7.027,21.458,3.471,37.329,23.005c15.87,19.53,25.856,28.767,40.199,10.541
			c15.697-19.946,24.748-9.003,30.627-1.915c3.988,4.805,14.188,16.565,21.116,24.666V84.35c0-1.323-0.856-2.396-1.914-2.396H20.586
			c-1.057,0-1.915,1.073-1.915,2.396v88.011C24.275,163.993,51.652,123.629,62.642,117.336z M131.623,120.291
			c5.286,0,9.57,4.291,9.57,9.586c0,5.293-4.284,9.584-9.57,9.584s-9.572-4.291-9.572-9.584
			C122.051,124.582,126.337,120.291,131.623,120.291z"/>
	</g>
	<g display="inline">
		<g>
			<path fill="#F7F8F8" d="M191.913,56.454c0,0.825-0.675,1.5-1.5,1.5H140.42c-0.826,0-1.5-0.675-1.5-1.5V30.458
				c0-0.825,0.674-1.5,1.5-1.5h49.993c0.825,0,1.5,0.675,1.5,1.5V56.454z"/>
		</g>
		<path fill="#CDCCCC" d="M152.369,39.632c3.754-2.121,6.564,1.047,11.42,6.939c4.854,5.893,7.908,8.679,12.297,3.181
			c4.803-6.017,7.57-2.716,9.369-0.577c1.219,1.449,4.34,4.997,6.458,7.44V29.68c0-0.399-0.261-0.723-0.585-0.723h-51.824
			c-0.322,0-0.584,0.324-0.584,0.723v26.552C140.633,53.708,149.008,41.53,152.369,39.632z M173.471,40.523
			c1.618,0,2.928,1.294,2.928,2.893c0,1.596-1.31,2.891-2.928,2.891c-1.615,0-2.928-1.294-2.928-2.891
			C170.543,41.817,171.854,40.523,173.471,40.523z"/>
	</g>
	<g display="inline">
		<g>
			<path fill="#F7F8F8" d="M131.913,56.454c0,0.825-0.675,1.5-1.5,1.5H80.419c-0.825,0-1.5-0.675-1.5-1.5V30.458
				c0-0.825,0.675-1.5,1.5-1.5h49.994c0.825,0,1.5,0.675,1.5,1.5V56.454z"/>
		</g>
		<path fill="#CDCCCC" d="M92.37,39.632c3.753-2.121,6.564,1.047,11.419,6.939c4.854,5.893,7.909,8.679,12.297,3.181
			c4.803-6.017,7.57-2.716,9.369-0.577c1.219,1.449,4.34,4.997,6.458,7.44V29.68c0-0.399-0.261-0.723-0.585-0.723H79.504
			c-0.323,0-0.585,0.324-0.585,0.723v26.552C80.632,53.708,89.008,41.53,92.37,39.632z M113.471,40.523
			c1.618,0,2.928,1.294,2.928,2.893c0,1.596-1.31,2.891-2.928,2.891c-1.615,0-2.928-1.294-2.928-2.891
			C110.543,41.817,111.854,40.523,113.471,40.523z"/>
	</g>
	<g display="inline">
		<g>
			<path fill="#F7F8F8" d="M71.666,56.454c0,0.825-0.675,1.5-1.5,1.5H20.172c-0.825,0-1.5-0.675-1.5-1.5V30.458
				c0-0.825,0.675-1.5,1.5-1.5h49.994c0.825,0,1.5,0.675,1.5,1.5V56.454z"/>
		</g>
		<path fill="#CDCCCC" d="M32.122,39.632c3.753-2.121,6.564,1.047,11.419,6.939c4.854,5.893,7.909,8.679,12.297,3.181
			c4.802-6.017,7.57-2.716,9.369-0.577c1.219,1.449,4.34,4.997,6.458,7.44V29.68c0-0.399-0.261-0.723-0.585-0.723H19.257
			c-0.323,0-0.585,0.324-0.585,0.723v26.552C20.385,53.708,28.761,41.53,32.122,39.632z M53.223,40.523
			c1.618,0,2.928,1.294,2.928,2.893c0,1.596-1.31,2.891-2.928,2.891c-1.616,0-2.928-1.294-2.928-2.891
			C50.295,41.817,51.607,40.523,53.223,40.523z"/>
	</g>
	<rect x="18.672" y="199.833" display="inline" fill="#EFEEEE" width="173.241" height="20.167"/>
	<g display="inline">
		<path fill="#CDCCCC" d="M44.75,207.166h20v2h-20V207.166z"/>
	</g>
	<g display="inline">
		<path fill="#CDCCCC" d="M44.75,211.998h15.917v2H44.75V211.998z"/>
	</g>
	<g display="inline">
		<path fill="#CDCCCC" d="M31.667,205.083h8c1.104,0,2,0.896,2,2v7c0,1.104-0.896,2-2,2h-8c-1.104,0-2-0.896-2-2v-7
			C29.667,205.979,30.563,205.083,31.667,205.083z"/>
	</g>
	<g display="inline" opacity="0.5">
		<path fill="#FFFFFF" d="M76.517,205h102.467c0.976,0,1.767,1.119,1.767,2.5v5c0,1.381-0.791,2.5-1.767,2.5H76.517
			c-0.976,0-1.767-1.119-1.767-2.5v-5C74.75,206.119,75.541,205,76.517,205z"/>
	</g>
	<path display="inline" fill="#CDCCCC" d="M178.982,205h-18.315v10h18.315c0.977,0,1.768-1.119,1.768-2.5v-5
		C180.75,206.119,179.959,205,178.982,205z"/>
	<g display="inline">
		<path fill="#989898" d="M96.635,189.585c0.301-0.544,0.711-0.967,1.23-1.271c0.52-0.303,1.1-0.455,1.74-0.455
			c0.779,0,1.447,0.186,2.004,0.556s0.963,0.892,1.216,1.563h-0.82c-0.2-0.467-0.505-0.83-0.915-1.095
			c-0.41-0.264-0.904-0.396-1.484-0.396c-0.514,0-0.976,0.119-1.385,0.359c-0.41,0.24-0.732,0.584-0.966,1.03s-0.35,0.963-0.35,1.55
			c0,0.588,0.116,1.102,0.35,1.545s0.556,0.785,0.966,1.025c0.409,0.238,0.871,0.359,1.385,0.359c0.58,0,1.074-0.131,1.484-0.391
			c0.41-0.26,0.715-0.619,0.915-1.08h0.82c-0.253,0.668-0.66,1.184-1.22,1.551c-0.561,0.367-1.227,0.549-2,0.549
			c-0.641,0-1.221-0.15-1.74-0.453c-0.52-0.305-0.93-0.727-1.23-1.266c-0.3-0.541-0.449-1.154-0.449-1.841
			S96.335,190.128,96.635,189.585z"/>
		<path fill="#989898" d="M108.305,187.939v0.561h-1.938v6.43h-0.7v-6.43h-1.95v-0.561H108.305z"/>
		<path fill="#989898" d="M113.465,193.27h-3.18l-0.61,1.66h-0.739l2.549-6.9h0.791l2.539,6.9h-0.739L113.465,193.27z
			 M113.266,192.71l-1.391-3.8l-1.391,3.8H113.266z"/>
	</g>
	<g display="inline">
		<path fill="#989898" d="M92.685,72.759c0.273,0.326,0.41,0.706,0.41,1.14c0,0.354-0.088,0.672-0.265,0.955
			c-0.177,0.283-0.435,0.507-0.774,0.67c-0.339,0.163-0.747,0.245-1.221,0.245h-2.42v-6.99h2.35c0.707,0,1.246,0.164,1.615,0.49
			c0.37,0.327,0.555,0.75,0.555,1.27c0,0.434-0.116,0.785-0.35,1.056c-0.233,0.27-0.533,0.458-0.9,0.564
			C92.079,72.232,92.411,72.432,92.685,72.759z M89.115,71.879h1.63c0.474,0,0.838-0.113,1.096-0.341
			c0.256-0.227,0.385-0.536,0.385-0.93s-0.129-0.703-0.385-0.93c-0.258-0.227-0.633-0.34-1.125-0.34h-1.601V71.879z M91.97,74.834
			c0.283-0.244,0.426-0.579,0.426-1.006c0-0.42-0.148-0.755-0.445-1.005c-0.297-0.25-0.695-0.375-1.195-0.375h-1.64v2.75h1.67
			C91.292,75.198,91.687,75.077,91.97,74.834z"/>
		<path fill="#989898" d="M94.399,71.554c0.224-0.424,0.533-0.75,0.931-0.98c0.396-0.229,0.845-0.345,1.345-0.345
			c0.52,0,0.969,0.12,1.346,0.36c0.376,0.239,0.648,0.547,0.814,0.92v-1.2h0.7v5.46h-0.7v-1.21
			c-0.174,0.373-0.448,0.682-0.825,0.925c-0.376,0.243-0.825,0.365-1.345,0.365c-0.494,0-0.938-0.116-1.335-0.35
			c-0.397-0.233-0.707-0.563-0.931-0.99c-0.223-0.427-0.334-0.92-0.334-1.48S94.177,71.977,94.399,71.554z M98.565,71.879
			c-0.181-0.334-0.426-0.591-0.735-0.771s-0.651-0.27-1.024-0.27c-0.387,0-0.734,0.086-1.041,0.26
			c-0.307,0.174-0.549,0.425-0.725,0.755c-0.177,0.33-0.266,0.722-0.266,1.175c0,0.447,0.089,0.839,0.266,1.175
			c0.176,0.337,0.418,0.594,0.725,0.771c0.307,0.177,0.654,0.265,1.041,0.265c0.373,0,0.715-0.09,1.024-0.271
			c0.31-0.181,0.555-0.437,0.735-0.771c0.18-0.333,0.27-0.72,0.27-1.16C98.835,72.599,98.745,72.212,98.565,71.879z"/>
		<path fill="#989898" d="M105.295,70.813c0.413,0.403,0.62,0.988,0.62,1.755v3.2h-0.69v-3.12c0-0.593-0.148-1.047-0.444-1.36
			c-0.297-0.313-0.702-0.47-1.215-0.47c-0.527,0-0.947,0.167-1.26,0.5c-0.314,0.334-0.471,0.823-0.471,1.47v2.98h-0.7v-5.46h0.7
			v0.93c0.174-0.333,0.424-0.588,0.75-0.765c0.326-0.177,0.697-0.265,1.109-0.265C104.349,70.209,104.882,70.41,105.295,70.813z"/>
		<path fill="#989898" d="M111.625,70.813c0.413,0.403,0.62,0.988,0.62,1.755v3.2h-0.69v-3.12c0-0.593-0.147-1.047-0.443-1.36
			c-0.297-0.313-0.702-0.47-1.215-0.47c-0.527,0-0.947,0.167-1.262,0.5c-0.313,0.334-0.47,0.823-0.47,1.47v2.98h-0.7v-5.46h0.7v0.93
			c0.173-0.333,0.423-0.588,0.75-0.765c0.326-0.177,0.696-0.265,1.11-0.265C110.68,70.209,111.212,70.41,111.625,70.813z"/>
		<path fill="#989898" d="M118.715,73.288h-4.529c0.014,0.414,0.111,0.769,0.295,1.065c0.184,0.297,0.422,0.521,0.715,0.675
			c0.293,0.153,0.613,0.23,0.961,0.23c0.453,0,0.835-0.11,1.145-0.33c0.311-0.22,0.516-0.517,0.615-0.891h0.74
			c-0.135,0.534-0.42,0.969-0.855,1.306c-0.436,0.337-0.984,0.505-1.645,0.505c-0.514,0-0.975-0.115-1.381-0.345
			s-0.726-0.557-0.955-0.98s-0.344-0.918-0.344-1.485c0-0.566,0.112-1.063,0.34-1.489c0.227-0.426,0.543-0.754,0.949-0.98
			c0.406-0.227,0.869-0.34,1.391-0.34c0.52,0,0.975,0.111,1.365,0.335c0.39,0.224,0.688,0.528,0.898,0.915s0.314,0.81,0.314,1.271
			C118.734,72.982,118.729,73.162,118.715,73.288z M117.779,71.709c-0.17-0.294-0.401-0.514-0.694-0.66s-0.612-0.221-0.96-0.221
			c-0.34,0-0.652,0.074-0.939,0.221c-0.287,0.146-0.521,0.366-0.699,0.66c-0.182,0.293-0.28,0.646-0.301,1.06h3.84
			C118.031,72.355,117.95,72.002,117.779,71.709z"/>
		<path fill="#989898" d="M121.42,70.519c0.316-0.207,0.705-0.31,1.165-0.31v0.729h-0.19c-0.506,0-0.912,0.137-1.22,0.41
			c-0.307,0.273-0.46,0.729-0.46,1.37v3.05h-0.699v-5.46h0.699v1.08C120.868,71.016,121.104,70.726,121.42,70.519z"/>
	</g>
	<g display="inline">
		<path fill="#989898" d="M95.239,16.183c0.554,0.28,0.977,0.684,1.271,1.21c0.294,0.527,0.44,1.153,0.44,1.88
			c0,0.721-0.146,1.342-0.44,1.865c-0.294,0.523-0.717,0.924-1.271,1.2c-0.553,0.276-1.217,0.415-1.989,0.415h-2.07v-6.99h2.07
			C94.022,15.763,94.687,15.904,95.239,16.183z M95.476,21.428c0.51-0.517,0.764-1.234,0.764-2.155c0-0.92-0.254-1.64-0.764-2.159
			c-0.511-0.521-1.252-0.78-2.226-0.78h-1.37v5.87h1.37C94.224,22.204,94.965,21.945,95.476,21.428z"/>
		<path fill="#989898" d="M103.16,20.273h-4.53c0.014,0.414,0.111,0.769,0.295,1.065c0.184,0.296,0.422,0.521,0.715,0.675
			c0.293,0.154,0.613,0.23,0.961,0.23c0.453,0,0.834-0.11,1.145-0.33c0.311-0.22,0.515-0.517,0.615-0.891h0.74
			c-0.135,0.534-0.419,0.969-0.855,1.306c-0.438,0.337-0.985,0.505-1.645,0.505c-0.514,0-0.975-0.115-1.381-0.345
			c-0.406-0.23-0.725-0.557-0.955-0.98c-0.229-0.423-0.345-0.918-0.345-1.485c0-0.566,0.113-1.063,0.34-1.489
			c0.227-0.426,0.544-0.754,0.95-0.98c0.406-0.226,0.87-0.34,1.391-0.34c0.52,0,0.975,0.111,1.364,0.335
			c0.389,0.224,0.69,0.528,0.899,0.915c0.211,0.387,0.316,0.81,0.316,1.271C103.181,19.967,103.173,20.147,103.16,20.273z
			 M102.226,18.694c-0.17-0.294-0.402-0.514-0.695-0.66c-0.294-0.146-0.613-0.221-0.961-0.221c-0.34,0-0.652,0.074-0.939,0.221
			s-0.52,0.366-0.699,0.66c-0.181,0.293-0.281,0.646-0.301,1.06h3.84C102.477,19.34,102.396,18.987,102.226,18.694z"/>
		<path fill="#989898" d="M112.523,17.798c0.404,0.403,0.605,0.988,0.605,1.755v3.2h-0.689v-3.12c0-0.593-0.145-1.047-0.432-1.36
			c-0.285-0.313-0.676-0.47-1.17-0.47c-0.512,0-0.922,0.17-1.229,0.51c-0.308,0.341-0.461,0.834-0.461,1.48v2.96h-0.689v-3.12
			c0-0.593-0.145-1.047-0.43-1.36c-0.287-0.313-0.682-0.47-1.182-0.47c-0.513,0-0.923,0.17-1.229,0.51
			c-0.307,0.341-0.461,0.834-0.461,1.48v2.96h-0.699v-5.46h0.699v0.94c0.174-0.341,0.42-0.599,0.74-0.775s0.677-0.265,1.07-0.265
			c0.474,0,0.89,0.113,1.244,0.34c0.356,0.227,0.615,0.56,0.774,1c0.146-0.434,0.398-0.766,0.757-0.995
			c0.354-0.23,0.762-0.345,1.215-0.345C111.602,17.194,112.122,17.395,112.523,17.798z"/>
		<path fill="#989898" d="M115.686,22.489c-0.41-0.23-0.733-0.557-0.971-0.98c-0.236-0.423-0.354-0.918-0.354-1.485
			c0-0.566,0.119-1.062,0.359-1.484c0.239-0.424,0.565-0.75,0.979-0.98c0.413-0.229,0.876-0.345,1.39-0.345s0.979,0.115,1.396,0.345
			c0.416,0.23,0.742,0.557,0.979,0.98s0.355,0.918,0.355,1.484c0,0.561-0.12,1.054-0.36,1.48c-0.239,0.426-0.569,0.755-0.989,0.985
			c-0.421,0.229-0.888,0.345-1.4,0.345C116.557,22.833,116.096,22.718,115.686,22.489z M118.07,21.994
			c0.306-0.167,0.555-0.417,0.744-0.75c0.189-0.334,0.285-0.74,0.285-1.221c0-0.479-0.094-0.886-0.279-1.22
			c-0.188-0.333-0.434-0.581-0.74-0.745c-0.307-0.163-0.641-0.245-1-0.245s-0.693,0.082-1,0.245
			c-0.307,0.164-0.553,0.412-0.734,0.745c-0.185,0.334-0.275,0.74-0.275,1.22s0.092,0.887,0.275,1.221
			c0.184,0.333,0.426,0.583,0.729,0.75c0.303,0.166,0.635,0.25,0.995,0.25C117.43,22.244,117.764,22.16,118.07,21.994z"/>
	</g>
</g>
<g>
	<path fill="#343436" d="M211.48,228c0,1.65-1.35,3-3,3h-205c-1.65,0-3-1.35-3-3V4c0-1.65,1.35-3,3-3h205c1.65,0,3,1.35,3,3V228z"/>
	<path fill-rule="evenodd" clip-rule="evenodd" fill="#49494B" d="M211.48,26.073V3.978c0-1.649-1.35-3-3-3h-205
		c-1.65,0-3,1.351-3,3v22.095H211.48z"/>
	<g>
		<polygon fill="#676767" points="11.527,10.14 10.827,10.14 10.827,17.13 14.037,17.13 14.037,16.581 11.527,16.581 		"/>
		<path fill="#676767" d="M18.843,11.936c-0.417-0.23-0.882-0.346-1.396-0.346s-0.977,0.115-1.39,0.346
			c-0.414,0.229-0.74,0.557-0.98,0.979c-0.24,0.424-0.359,0.919-0.359,1.485s0.118,1.062,0.354,1.484
			c0.236,0.424,0.56,0.75,0.97,0.98c0.41,0.229,0.872,0.345,1.386,0.345c0.513,0,0.979-0.115,1.399-0.345
			c0.42-0.23,0.75-0.559,0.99-0.985s0.36-0.92,0.36-1.479c0-0.566-0.119-1.062-0.355-1.485
			C19.586,12.493,19.259,12.166,18.843,11.936z M19.172,15.621c-0.189,0.333-0.438,0.583-0.744,0.75c-0.308,0.167-0.641,0.25-1,0.25
			c-0.36,0-0.692-0.083-0.995-0.25c-0.304-0.167-0.547-0.417-0.73-0.75s-0.274-0.74-0.274-1.22c0-0.48,0.091-0.887,0.274-1.221
			c0.184-0.333,0.429-0.581,0.735-0.744c0.307-0.164,0.64-0.245,1-0.245c0.359,0,0.693,0.081,1,0.245
			c0.307,0.163,0.553,0.411,0.74,0.744c0.187,0.334,0.279,0.74,0.279,1.221C19.457,14.88,19.362,15.288,19.172,15.621z"/>
		<path fill="#676767" d="M25.907,12.861c-0.167-0.367-0.44-0.67-0.82-0.91s-0.826-0.36-1.34-0.36c-0.5,0-0.948,0.115-1.345,0.346
			c-0.396,0.229-0.707,0.557-0.93,0.979c-0.224,0.424-0.335,0.915-0.335,1.475c0,0.561,0.111,1.054,0.335,1.48
			c0.223,0.427,0.533,0.757,0.93,0.99s0.845,0.35,1.345,0.35c0.514,0,0.958-0.121,1.335-0.365c0.377-0.243,0.651-0.551,0.825-0.925
			v1.351c0,0.399-0.08,0.746-0.24,1.04c-0.16,0.293-0.38,0.515-0.66,0.665c-0.279,0.149-0.597,0.225-0.949,0.225
			c-0.487,0-0.898-0.113-1.235-0.34s-0.565-0.53-0.685-0.91h-0.69c0.113,0.573,0.401,1.026,0.865,1.36
			c0.463,0.333,1.045,0.5,1.745,0.5c0.493,0,0.933-0.105,1.319-0.315s0.688-0.509,0.905-0.895c0.217-0.387,0.325-0.83,0.325-1.33
			V11.67h-0.7V12.861z M25.638,15.561c-0.181,0.333-0.426,0.59-0.735,0.77c-0.311,0.18-0.651,0.271-1.025,0.271
			c-0.387,0-0.733-0.089-1.04-0.266s-0.548-0.434-0.725-0.77c-0.177-0.337-0.265-0.729-0.265-1.176c0-0.453,0.088-0.845,0.265-1.175
			s0.418-0.581,0.725-0.755c0.307-0.173,0.653-0.26,1.04-0.26c0.374,0,0.715,0.09,1.025,0.27c0.31,0.181,0.555,0.438,0.735,0.771
			c0.18,0.333,0.27,0.72,0.27,1.16C25.907,14.84,25.817,15.227,25.638,15.561z"/>
		<path fill="#676767" d="M32.013,11.936c-0.417-0.23-0.882-0.346-1.396-0.346s-0.977,0.115-1.39,0.346
			c-0.414,0.229-0.74,0.557-0.98,0.979c-0.24,0.424-0.359,0.919-0.359,1.485s0.118,1.062,0.354,1.484
			c0.236,0.424,0.56,0.75,0.97,0.98c0.41,0.229,0.872,0.345,1.386,0.345c0.513,0,0.979-0.115,1.399-0.345
			c0.42-0.23,0.75-0.559,0.99-0.985s0.36-0.92,0.36-1.479c0-0.566-0.119-1.062-0.355-1.485
			C32.756,12.493,32.429,12.166,32.013,11.936z M32.342,15.621c-0.189,0.333-0.438,0.583-0.744,0.75c-0.308,0.167-0.641,0.25-1,0.25
			c-0.36,0-0.692-0.083-0.995-0.25c-0.304-0.167-0.547-0.417-0.73-0.75s-0.274-0.74-0.274-1.22c0-0.48,0.091-0.887,0.274-1.221
			c0.184-0.333,0.429-0.581,0.735-0.744c0.307-0.164,0.64-0.245,1-0.245c0.359,0,0.693,0.081,1,0.245
			c0.307,0.163,0.553,0.411,0.74,0.744c0.187,0.334,0.279,0.74,0.279,1.221C32.627,14.88,32.532,15.288,32.342,15.621z"/>
		<rect x="45.503" y="13.121" fill="#343436" width="10.041" height="2"/>
		<rect x="63.44" y="13.121" fill="#343436" width="10.041" height="2"/>
		<rect x="81.503" y="13.121" fill="#343436" width="10.041" height="2"/>
		<rect x="99.44" y="13.121" fill="#343436" width="10.041" height="2"/>
		<rect x="117.534" y="13.121" fill="#343436" width="10.041" height="2"/>
		<rect x="135.472" y="13.121" fill="#343436" width="10.041" height="2"/>
	</g>
</g>
</svg>
