<svg version="1.1" xmlns="http://www.w3.org/2000/svg" xmlns:xlink="http://www.w3.org/1999/xlink" x="0px" y="0px"
	 width="70px" height="70px" viewBox="0 0 70 70" enable-background="new 0 0 70 70" xml:space="preserve">
<g>
	<path d="M18.75,0C24.791,0,30.208,2.448,35,7.344C39.793,2.448,45.207,0,51.248,0c5.209,0,9.639,1.85,13.281,5.547
		c3.645,3.698,5.469,8.1,5.469,13.203c0,2.085-0.518,4.194-1.563,6.328c-1.043,2.137-2.08,3.726-3.125,4.766l-1.563,1.406
		L36.873,58.436L35,60.311l-1.875-1.875L6.25,31.25c-1.042-0.938-2.084-2.134-3.125-3.594C1.041,24.531,0,21.562,0,18.75
		c0-5.103,1.822-9.504,5.469-13.203C9.114,1.85,13.541,0,18.75,0z M18.75,5C15,5,11.77,6.354,9.063,9.063C6.353,11.772,5,15,5,18.75
		c0,1.772,0.728,3.804,2.188,6.094l2.5,2.969L35,53.123l25.311-25.311c3.125-3.438,4.688-6.457,4.688-9.063
		c0-3.75-1.354-6.978-4.063-9.687C58.23,6.354,54.998,5,51.248,5c-2.188,0-4.479,0.6-6.875,1.797
		c-2.393,1.198-4.268,2.422-5.625,3.671l-1.875,1.719L35,14.375l-1.875-2.188c-0.521-0.52-1.225-1.172-2.109-1.953
		c-0.886-0.781-2.604-1.848-5.156-3.203C23.306,5.678,20.937,5,18.75,5z"/>
</g>
</svg>
