<svg version="1.1" xmlns="http://www.w3.org/2000/svg" xmlns:xlink="http://www.w3.org/1999/xlink" x="0px" y="0px"
	 width="70px" height="70px" viewBox="0 0 70 70" enable-background="new 0 0 70 70" xml:space="preserve">
<g>
	<circle cx="18.797" cy="34.998" r="6.48"/>
	<circle cx="34.998" cy="34.998" r="6.48"/>
	<circle cx="51.2" cy="34.998" r="6.48"/>
	<path d="M35.002,0C15.705,0,0,15.702,0,34.998c0,19.297,15.705,34.998,35.002,34.998C54.298,69.996,70,54.295,70,34.998
		C70,15.702,54.298,0,35.002,0z M35.002,65.527c-16.838,0-30.535-13.695-30.535-30.529s13.697-30.53,30.535-30.53
		c16.834,0,30.53,13.696,30.53,30.53S51.836,65.527,35.002,65.527z"/>
</g>
</svg>