<svg version="1.1" xmlns="http://www.w3.org/2000/svg" xmlns:xlink="http://www.w3.org/1999/xlink" x="0px" y="0px"
	 width="70px" height="70px" viewBox="0 0 70 70" enable-background="new 0 0 70 70" xml:space="preserve">
<g>
	<path d="M61.81,0H8.191C3.674,0,0,3.674,0,8.19v53.62c0,4.518,3.674,8.19,8.191,8.19H61.81c4.518,0,8.19-3.673,8.19-8.19V8.19
		C70,3.674,66.327,0,61.81,0z M65.532,61.811c0,2.051-1.672,3.723-3.723,3.723H8.191c-2.053,0-3.723-1.672-3.723-3.723V8.19
		c0-2.053,1.67-3.723,3.723-3.723H61.81c2.051,0,3.723,1.67,3.723,3.723V61.811z"/>
	<path d="M25.249,9.484h-9.17c-3.611,0-6.55,3.034-6.55,6.765v2.461c0,3.73,2.939,6.765,6.55,6.765h9.17
		c3.612,0,6.552-3.034,6.552-6.765v-2.461C31.801,12.519,28.861,9.484,25.249,9.484z M27.87,18.71c0,1.696-1.174,3.074-2.621,3.074
		h-9.17c-1.445,0-2.62-1.378-2.62-3.074v-2.461c0-1.695,1.175-3.075,2.62-3.075h9.17c1.447,0,2.621,1.379,2.621,3.075V18.71z"/>
	<path d="M53.918,44.524h-9.171c-3.61,0-6.55,3.036-6.55,6.765v2.461c0,3.729,2.939,6.765,6.55,6.765h9.171
		c3.612,0,6.552-3.036,6.552-6.765v-2.461C60.47,47.561,57.53,44.524,53.918,44.524z M56.539,53.75c0,1.696-1.174,3.076-2.621,3.076
		h-9.171c-1.444,0-2.619-1.38-2.619-3.076v-2.461c0-1.696,1.175-3.076,2.619-3.076h9.171c1.447,0,2.621,1.38,2.621,3.076V53.75z"/>
	<path d="M25.249,31.838H16.08c-3.614,0-6.552,2.922-6.552,6.516v15.646c0,3.592,2.938,6.513,6.552,6.513h9.169
		c3.614,0,6.552-2.921,6.552-6.513V38.354C31.801,34.76,28.863,31.838,25.249,31.838z M27.87,53.999
		c0,1.333-1.174,2.417-2.621,2.417H16.08c-1.448,0-2.623-1.084-2.623-2.417V38.354c0-1.333,1.174-2.419,2.623-2.419h9.169
		c1.447,0,2.621,1.086,2.621,2.419V53.999z"/>
	<path d="M44.409,38.22h9.346c3.688,0,6.681-2.922,6.681-6.514V16.061c0-3.593-2.993-6.516-6.681-6.516h-9.346
		c-3.688,0-6.683,2.922-6.683,6.516v15.646C37.727,35.298,40.722,38.22,44.409,38.22z M41.733,16.061
		c0-1.333,1.198-2.418,2.676-2.418h9.346c1.477,0,2.674,1.086,2.674,2.418v15.646c0,1.333-1.197,2.417-2.674,2.417h-9.346
		c-1.478,0-2.676-1.084-2.676-2.417V16.061z"/>
</g>
</svg>
