<svg version="1.1" xmlns="http://www.w3.org/2000/svg" xmlns:xlink="http://www.w3.org/1999/xlink" x="0px" y="0px"
	 width="70px" height="70px" viewBox="0 0 70 70" enable-background="new 0 0 70 70" xml:space="preserve">
<g>
	<path d="M44.211,50.107c0,2.455,0.856,4.543,2.578,6.262c1.72,1.721,3.805,2.58,6.264,2.58c2.456,0,4.541-0.859,6.263-2.58
		c1.72-1.719,2.579-3.807,2.579-6.262c0-2.457-0.859-4.545-2.579-6.264c-1.722-1.719-3.807-2.578-6.263-2.578
		c-2.459,0-4.544,0.859-6.264,2.578C45.067,45.563,44.211,47.65,44.211,50.107z M53.053,47.16c1.962,0,2.947,0.982,2.947,2.947
		s-0.985,2.947-2.947,2.947c-1.965,0-2.947-0.982-2.947-2.947S51.088,47.16,53.053,47.16z"/>
	<path d="M17.685,50.107c0,2.455,0.856,4.543,2.578,6.262c1.72,1.721,3.805,2.58,6.264,2.58c2.456,0,4.541-0.859,6.263-2.58
		c1.72-1.719,2.579-3.807,2.579-6.262c0-2.457-0.859-4.545-2.579-6.264c-1.722-1.719-3.807-2.578-6.263-2.578
		c-2.459,0-4.544,0.859-6.264,2.578C18.541,45.563,17.685,47.65,17.685,50.107z M26.526,47.16c1.962,0,2.947,0.982,2.947,2.947
		s-0.985,2.947-2.947,2.947c-1.965,0-2.947-0.982-2.947-2.947S24.562,47.16,26.526,47.16z"/>
	<path d="M60.329,40.066c1.041-0.797,1.686-1.871,1.934-3.223L70,8.842H20.632l1.474,5.895h40.157L56.737,35.37H22.842L15.105,4.421
		c-0.249-1.349-0.894-2.424-1.935-3.224C12.127,0.401,10.93,0,9.579,0H2.947C2.088,0,1.381,0.276,0.829,0.829
		C0.276,1.381,0,2.089,0,2.947c0,0.861,0.276,1.566,0.829,2.119c0.552,0.553,1.259,0.829,2.118,0.829h6.632l7.736,30.949
		c0.246,1.352,0.891,2.426,1.935,3.223c1.041,0.799,2.238,1.199,3.592,1.199h3.685h26.526h3.685
		C58.088,41.266,59.285,40.865,60.329,40.066z"/>
</g>
</svg>
