<svg version="1.1" xmlns="http://www.w3.org/2000/svg" xmlns:xlink="http://www.w3.org/1999/xlink" x="0px" y="0px"
	 width="70px" height="70px" viewBox="0 0 70 70" enable-background="new 0 0 70 70" xml:space="preserve">
<g>
	<path d="M61.807,0H8.192C3.674,0,0,3.674,0,8.192V61.81C0,66.327,3.674,70,8.192,70h53.614C66.324,70,70,66.327,70,61.81V8.192
		C70,3.674,66.324,0,61.807,0z M65.532,61.81c0,2.051-1.669,3.723-3.726,3.723H8.192c-2.054,0-3.724-1.672-3.724-3.723V8.192
		c0-2.054,1.67-3.724,3.724-3.724h53.614c2.057,0,3.726,1.67,3.726,3.724V61.81z"/>
	<g>
		<path d="M24.614,26.108h-4.487l-7.983,11.421v3.145h8.34v3.387h4.131v-3.387h2.098v-3.697h-2.098V26.108z M16.958,36.977
			l3.739-5.589v5.589H16.958z"/>
		<path d="M34.869,25.94c-4.533,0-6.832,3.036-6.832,9.025c0,6.003,2.299,9.045,6.832,9.045c4.534,0,6.833-3.042,6.833-9.045
			C41.702,28.977,39.403,25.94,34.869,25.94z M32.339,32.169c0.137-0.71,0.408-1.289,0.811-1.725c0.375-0.411,0.938-0.61,1.72-0.61
			s1.345,0.199,1.72,0.612c0.403,0.434,0.673,1.013,0.81,1.722c0.146,0.766,0.218,1.706,0.218,2.798
			c0,1.089-0.071,2.035-0.214,2.806c-0.141,0.721-0.41,1.302-0.814,1.737c-0.374,0.413-0.937,0.612-1.719,0.612
			s-1.345-0.199-1.721-0.615c-0.401-0.433-0.673-1.014-0.809-1.731c-0.145-0.768-0.217-1.712-0.217-2.809
			C32.123,33.866,32.195,32.926,32.339,32.169z"/>
		<path d="M55.76,36.977V26.108h-4.487l-7.985,11.421v3.145h8.34v3.387h4.133v-3.387h2.097v-3.697H55.76z M48.104,36.977
			l3.741-5.589v5.589H48.104z"/>
	</g>
</g>
</svg>
