<svg version="1.1" xmlns="http://www.w3.org/2000/svg" xmlns:xlink="http://www.w3.org/1999/xlink" x="0px" y="0px"
	 width="70px" height="70px" viewBox="0 0 70 70" enable-background="new 0 0 70 70" xml:space="preserve">
<path d="M61.81,0H8.192C3.674,0,0,3.674,0,8.192v53.616c0,4.518,3.674,8.193,8.192,8.193H61.81c4.517,0,8.19-3.676,8.19-8.193V8.192
	C70,3.674,66.326,0,61.81,0z M8.192,4.468H61.81c2.052,0,3.723,1.67,3.723,3.724v9.819H4.468V8.192
	C4.468,6.138,6.138,4.468,8.192,4.468z M61.81,65.533H8.192c-2.054,0-3.724-1.672-3.724-3.725v-39.33h61.064v39.33
	C65.532,63.861,63.861,65.533,61.81,65.533z"/>
</svg>
