<svg version="1.1" xmlns="http://www.w3.org/2000/svg" xmlns:xlink="http://www.w3.org/1999/xlink" x="0px" y="0px"
	 width="70px" height="70px" viewBox="0 0 70 70" enable-background="new 0 0 70 70" xml:space="preserve">
<g>
	<path d="M68.701,48.412l-13.638-6.447l13.563-5.803c0.814-0.349,1.354-1.148,1.373-2.046c0.021-0.889-0.49-1.712-1.292-2.094
		l-13.641-6.455l13.563-5.803c0.817-0.348,1.352-1.152,1.37-2.044s-0.49-1.712-1.292-2.094L36.124,0.21
		c-0.593-0.28-1.313-0.283-1.91,0L1.302,15.655C0.494,16.037-0.015,16.857,0,17.746c0.012,0.897,0.55,1.699,1.367,2.047
		l13.575,5.855L1.302,32.051C0.494,32.43-0.015,33.253,0,34.138c0.012,0.898,0.55,1.701,1.367,2.048l13.575,5.854L1.299,48.443
		C0.494,48.822-0.015,49.643,0,50.531c0.012,0.895,0.55,1.703,1.367,2.051l32.579,14.047c0.283,0.123,0.581,0.186,0.889,0.186
		c0.305,0,0.6-0.063,0.883-0.18l32.908-14.078c0.814-0.354,1.354-1.156,1.373-2.051C70.012,49.617,69.509,48.799,68.701,48.412z
		 M50.497,23.092l-15.662,6.703L22.819,24.61L6.657,17.64L35.164,4.264l28.182,13.333L50.497,23.092z M20.49,27.543L34.127,33.2
		c0.529,0.207,0.873,0.144,1.41,0l13.973-5.865l13.829,6.602l-12.842,5.524l-15.662,6.715l-12.016-5.174L6.654,34.035L20.49,27.543z
		 M20.49,43.939l13.637,5.703c0.498,0.222,1.062,0.115,1.41,0l13.973-5.889l13.832,6.592L34.835,62.584L6.654,50.432L20.49,43.939z"
		/>
</g>
</svg>
