<?xml version="1.0" encoding="utf-8"?>
<!-- Generator: Adobe Illustrator 16.0.0, SVG Export Plug-In . SVG Version: 6.00 Build 0)  -->
<!DOCTYPE svg PUBLIC "-//W3C//DTD SVG 1.1//EN" "http://www.w3.org/Graphics/SVG/1.1/DTD/svg11.dtd">
<svg version="1.1" xmlns="http://www.w3.org/2000/svg" xmlns:xlink="http://www.w3.org/1999/xlink" x="0px" y="0px"
	 width="211px" height="230px" viewBox="0 0 211 230" enable-background="new 0 0 211 230" xml:space="preserve">
<g display="none">
	<path display="inline" fill="#F5F6F6" d="M211,227c0,1.65-1.35,3-3,3H3c-1.649,0-3-1.35-3-3V3c0-1.65,1.351-3,3-3h205
		c1.65,0,3,1.35,3,3V227z"/>
	<g display="inline">
		<rect x="18.672" y="81.954" fill="none" width="173.241" height="96.44"/>
		<path fill="#CDCCCC" d="M62.642,117.336c12.272-7.027,21.458,3.471,37.329,23.005c15.87,19.53,25.856,28.767,40.199,10.541
			c15.697-19.946,24.748-9.003,30.627-1.915c3.988,4.805,14.188,16.565,21.116,24.666V84.35c0-1.323-0.856-2.396-1.914-2.396H20.586
			c-1.057,0-1.915,1.073-1.915,2.396v88.011C24.275,163.993,51.652,123.629,62.642,117.336z M131.623,120.291
			c5.286,0,9.57,4.291,9.57,9.586c0,5.293-4.284,9.584-9.57,9.584s-9.572-4.291-9.572-9.584
			C122.051,124.582,126.337,120.291,131.623,120.291z"/>
	</g>
	<g display="inline">
		<g>
			<path fill="#F7F8F8" d="M191.913,56.454c0,0.825-0.675,1.5-1.5,1.5H140.42c-0.826,0-1.5-0.675-1.5-1.5V30.458
				c0-0.825,0.674-1.5,1.5-1.5h49.993c0.825,0,1.5,0.675,1.5,1.5V56.454z"/>
		</g>
		<path fill="#CDCCCC" d="M152.369,39.632c3.754-2.121,6.564,1.047,11.42,6.939c4.854,5.893,7.908,8.679,12.297,3.181
			c4.803-6.017,7.57-2.716,9.369-0.577c1.219,1.449,4.34,4.997,6.458,7.44V29.68c0-0.399-0.261-0.723-0.585-0.723h-51.824
			c-0.322,0-0.584,0.324-0.584,0.723v26.552C140.633,53.708,149.008,41.53,152.369,39.632z M173.471,40.523
			c1.618,0,2.928,1.294,2.928,2.893c0,1.596-1.31,2.891-2.928,2.891c-1.615,0-2.928-1.294-2.928-2.891
			C170.543,41.817,171.854,40.523,173.471,40.523z"/>
	</g>
	<g display="inline">
		<g>
			<path fill="#F7F8F8" d="M131.913,56.454c0,0.825-0.675,1.5-1.5,1.5H80.419c-0.825,0-1.5-0.675-1.5-1.5V30.458
				c0-0.825,0.675-1.5,1.5-1.5h49.994c0.825,0,1.5,0.675,1.5,1.5V56.454z"/>
		</g>
		<path fill="#CDCCCC" d="M92.37,39.632c3.753-2.121,6.564,1.047,11.419,6.939c4.854,5.893,7.909,8.679,12.297,3.181
			c4.803-6.017,7.57-2.716,9.369-0.577c1.219,1.449,4.34,4.997,6.458,7.44V29.68c0-0.399-0.261-0.723-0.585-0.723H79.504
			c-0.323,0-0.585,0.324-0.585,0.723v26.552C80.632,53.708,89.008,41.53,92.37,39.632z M113.471,40.523
			c1.618,0,2.928,1.294,2.928,2.893c0,1.596-1.31,2.891-2.928,2.891c-1.615,0-2.928-1.294-2.928-2.891
			C110.543,41.817,111.854,40.523,113.471,40.523z"/>
	</g>
	<g display="inline">
		<g>
			<path fill="#F7F8F8" d="M71.666,56.454c0,0.825-0.675,1.5-1.5,1.5H20.172c-0.825,0-1.5-0.675-1.5-1.5V30.458
				c0-0.825,0.675-1.5,1.5-1.5h49.994c0.825,0,1.5,0.675,1.5,1.5V56.454z"/>
		</g>
		<path fill="#CDCCCC" d="M32.122,39.632c3.753-2.121,6.564,1.047,11.419,6.939c4.854,5.893,7.909,8.679,12.297,3.181
			c4.802-6.017,7.57-2.716,9.369-0.577c1.219,1.449,4.34,4.997,6.458,7.44V29.68c0-0.399-0.261-0.723-0.585-0.723H19.257
			c-0.323,0-0.585,0.324-0.585,0.723v26.552C20.385,53.708,28.761,41.53,32.122,39.632z M53.223,40.523
			c1.618,0,2.928,1.294,2.928,2.893c0,1.596-1.31,2.891-2.928,2.891c-1.616,0-2.928-1.294-2.928-2.891
			C50.295,41.817,51.607,40.523,53.223,40.523z"/>
	</g>
	<rect x="18.672" y="199.833" display="inline" fill="#EFEEEE" width="173.241" height="20.167"/>
	<g display="inline">
		<path fill="#CDCCCC" d="M44.75,207.166h20v2h-20V207.166z"/>
	</g>
	<g display="inline">
		<path fill="#CDCCCC" d="M44.75,211.998h15.917v2H44.75V211.998z"/>
	</g>
	<g display="inline">
		<path fill="#CDCCCC" d="M31.667,205.083h8c1.104,0,2,0.896,2,2v7c0,1.104-0.896,2-2,2h-8c-1.104,0-2-0.896-2-2v-7
			C29.667,205.979,30.563,205.083,31.667,205.083z"/>
	</g>
	<g display="inline" opacity="0.5">
		<path fill="#FFFFFF" d="M76.517,205h102.467c0.976,0,1.767,1.119,1.767,2.5v5c0,1.381-0.791,2.5-1.767,2.5H76.517
			c-0.976,0-1.767-1.119-1.767-2.5v-5C74.75,206.119,75.541,205,76.517,205z"/>
	</g>
	<path display="inline" fill="#CDCCCC" d="M178.982,205h-18.315v10h18.315c0.977,0,1.768-1.119,1.768-2.5v-5
		C180.75,206.119,179.959,205,178.982,205z"/>
	<g display="inline">
		<path fill="#989898" d="M96.635,189.585c0.301-0.544,0.711-0.967,1.23-1.271c0.52-0.303,1.1-0.455,1.74-0.455
			c0.779,0,1.447,0.186,2.004,0.556s0.963,0.892,1.216,1.563h-0.82c-0.2-0.467-0.505-0.83-0.915-1.095
			c-0.41-0.264-0.904-0.396-1.484-0.396c-0.514,0-0.976,0.119-1.385,0.359c-0.41,0.24-0.732,0.584-0.966,1.03s-0.35,0.963-0.35,1.55
			c0,0.588,0.116,1.102,0.35,1.545s0.556,0.785,0.966,1.025c0.409,0.238,0.871,0.359,1.385,0.359c0.58,0,1.074-0.131,1.484-0.391
			c0.41-0.26,0.715-0.619,0.915-1.08h0.82c-0.253,0.668-0.66,1.184-1.22,1.551c-0.561,0.367-1.227,0.549-2,0.549
			c-0.641,0-1.221-0.15-1.74-0.453c-0.52-0.305-0.93-0.727-1.23-1.266c-0.3-0.541-0.449-1.154-0.449-1.841
			S96.335,190.128,96.635,189.585z"/>
		<path fill="#989898" d="M108.305,187.939v0.561h-1.938v6.43h-0.7v-6.43h-1.95v-0.561H108.305z"/>
		<path fill="#989898" d="M113.465,193.27h-3.18l-0.61,1.66h-0.739l2.549-6.9h0.791l2.539,6.9h-0.739L113.465,193.27z
			 M113.266,192.71l-1.391-3.8l-1.391,3.8H113.266z"/>
	</g>
	<g display="inline">
		<path fill="#989898" d="M92.685,72.759c0.273,0.326,0.41,0.706,0.41,1.14c0,0.354-0.088,0.672-0.265,0.955
			c-0.177,0.283-0.435,0.507-0.774,0.67c-0.339,0.163-0.747,0.245-1.221,0.245h-2.42v-6.99h2.35c0.707,0,1.246,0.164,1.615,0.49
			c0.37,0.327,0.555,0.75,0.555,1.27c0,0.434-0.116,0.785-0.35,1.056c-0.233,0.27-0.533,0.458-0.9,0.564
			C92.079,72.232,92.411,72.432,92.685,72.759z M89.115,71.879h1.63c0.474,0,0.838-0.113,1.096-0.341
			c0.256-0.227,0.385-0.536,0.385-0.93s-0.129-0.703-0.385-0.93c-0.258-0.227-0.633-0.34-1.125-0.34h-1.601V71.879z M91.97,74.834
			c0.283-0.244,0.426-0.579,0.426-1.006c0-0.42-0.148-0.755-0.445-1.005c-0.297-0.25-0.695-0.375-1.195-0.375h-1.64v2.75h1.67
			C91.292,75.198,91.687,75.077,91.97,74.834z"/>
		<path fill="#989898" d="M94.399,71.554c0.224-0.424,0.533-0.75,0.931-0.98c0.396-0.229,0.845-0.345,1.345-0.345
			c0.52,0,0.969,0.12,1.346,0.36c0.376,0.239,0.648,0.547,0.814,0.92v-1.2h0.7v5.46h-0.7v-1.21
			c-0.174,0.373-0.448,0.682-0.825,0.925c-0.376,0.243-0.825,0.365-1.345,0.365c-0.494,0-0.938-0.116-1.335-0.35
			c-0.397-0.233-0.707-0.563-0.931-0.99c-0.223-0.427-0.334-0.92-0.334-1.48S94.177,71.977,94.399,71.554z M98.565,71.879
			c-0.181-0.334-0.426-0.591-0.735-0.771s-0.651-0.27-1.024-0.27c-0.387,0-0.734,0.086-1.041,0.26
			c-0.307,0.174-0.549,0.425-0.725,0.755c-0.177,0.33-0.266,0.722-0.266,1.175c0,0.447,0.089,0.839,0.266,1.175
			c0.176,0.337,0.418,0.594,0.725,0.771c0.307,0.177,0.654,0.265,1.041,0.265c0.373,0,0.715-0.09,1.024-0.271
			c0.31-0.181,0.555-0.437,0.735-0.771c0.18-0.333,0.27-0.72,0.27-1.16C98.835,72.599,98.745,72.212,98.565,71.879z"/>
		<path fill="#989898" d="M105.295,70.813c0.413,0.403,0.62,0.988,0.62,1.755v3.2h-0.69v-3.12c0-0.593-0.148-1.047-0.444-1.36
			c-0.297-0.313-0.702-0.47-1.215-0.47c-0.527,0-0.947,0.167-1.26,0.5c-0.314,0.334-0.471,0.823-0.471,1.47v2.98h-0.7v-5.46h0.7
			v0.93c0.174-0.333,0.424-0.588,0.75-0.765c0.326-0.177,0.697-0.265,1.109-0.265C104.349,70.209,104.882,70.41,105.295,70.813z"/>
		<path fill="#989898" d="M111.625,70.813c0.413,0.403,0.62,0.988,0.62,1.755v3.2h-0.69v-3.12c0-0.593-0.147-1.047-0.443-1.36
			c-0.297-0.313-0.702-0.47-1.215-0.47c-0.527,0-0.947,0.167-1.262,0.5c-0.313,0.334-0.47,0.823-0.47,1.47v2.98h-0.7v-5.46h0.7v0.93
			c0.173-0.333,0.423-0.588,0.75-0.765c0.326-0.177,0.696-0.265,1.11-0.265C110.68,70.209,111.212,70.41,111.625,70.813z"/>
		<path fill="#989898" d="M118.715,73.288h-4.529c0.014,0.414,0.111,0.769,0.295,1.065c0.184,0.297,0.422,0.521,0.715,0.675
			c0.293,0.153,0.613,0.23,0.961,0.23c0.453,0,0.835-0.11,1.145-0.33c0.311-0.22,0.516-0.517,0.615-0.891h0.74
			c-0.135,0.534-0.42,0.969-0.855,1.306c-0.436,0.337-0.984,0.505-1.645,0.505c-0.514,0-0.975-0.115-1.381-0.345
			s-0.726-0.557-0.955-0.98s-0.344-0.918-0.344-1.485c0-0.566,0.112-1.063,0.34-1.489c0.227-0.426,0.543-0.754,0.949-0.98
			c0.406-0.227,0.869-0.34,1.391-0.34c0.52,0,0.975,0.111,1.365,0.335c0.39,0.224,0.688,0.528,0.898,0.915s0.314,0.81,0.314,1.271
			C118.734,72.982,118.729,73.162,118.715,73.288z M117.779,71.709c-0.17-0.294-0.401-0.514-0.694-0.66s-0.612-0.221-0.96-0.221
			c-0.34,0-0.652,0.074-0.939,0.221c-0.287,0.146-0.521,0.366-0.699,0.66c-0.182,0.293-0.28,0.646-0.301,1.06h3.84
			C118.031,72.355,117.95,72.002,117.779,71.709z"/>
		<path fill="#989898" d="M121.42,70.519c0.316-0.207,0.705-0.31,1.165-0.31v0.729h-0.19c-0.506,0-0.912,0.137-1.22,0.41
			c-0.307,0.273-0.46,0.729-0.46,1.37v3.05h-0.699v-5.46h0.699v1.08C120.868,71.016,121.104,70.726,121.42,70.519z"/>
	</g>
	<g display="inline">
		<path fill="#989898" d="M95.239,16.183c0.554,0.28,0.977,0.684,1.271,1.21c0.294,0.527,0.44,1.153,0.44,1.88
			c0,0.721-0.146,1.342-0.44,1.865c-0.294,0.523-0.717,0.924-1.271,1.2c-0.553,0.276-1.217,0.415-1.989,0.415h-2.07v-6.99h2.07
			C94.022,15.763,94.687,15.904,95.239,16.183z M95.476,21.428c0.51-0.517,0.764-1.234,0.764-2.155c0-0.92-0.254-1.64-0.764-2.159
			c-0.511-0.521-1.252-0.78-2.226-0.78h-1.37v5.87h1.37C94.224,22.204,94.965,21.945,95.476,21.428z"/>
		<path fill="#989898" d="M103.16,20.273h-4.53c0.014,0.414,0.111,0.769,0.295,1.065c0.184,0.296,0.422,0.521,0.715,0.675
			c0.293,0.154,0.613,0.23,0.961,0.23c0.453,0,0.834-0.11,1.145-0.33c0.311-0.22,0.515-0.517,0.615-0.891h0.74
			c-0.135,0.534-0.419,0.969-0.855,1.306c-0.438,0.337-0.985,0.505-1.645,0.505c-0.514,0-0.975-0.115-1.381-0.345
			c-0.406-0.23-0.725-0.557-0.955-0.98c-0.229-0.423-0.345-0.918-0.345-1.485c0-0.566,0.113-1.063,0.34-1.489
			c0.227-0.426,0.544-0.754,0.95-0.98c0.406-0.226,0.87-0.34,1.391-0.34c0.52,0,0.975,0.111,1.364,0.335
			c0.389,0.224,0.69,0.528,0.899,0.915c0.211,0.387,0.316,0.81,0.316,1.271C103.181,19.967,103.173,20.147,103.16,20.273z
			 M102.226,18.694c-0.17-0.294-0.402-0.514-0.695-0.66c-0.294-0.146-0.613-0.221-0.961-0.221c-0.34,0-0.652,0.074-0.939,0.221
			s-0.52,0.366-0.699,0.66c-0.181,0.293-0.281,0.646-0.301,1.06h3.84C102.477,19.34,102.396,18.987,102.226,18.694z"/>
		<path fill="#989898" d="M112.523,17.798c0.404,0.403,0.605,0.988,0.605,1.755v3.2h-0.689v-3.12c0-0.593-0.145-1.047-0.432-1.36
			c-0.285-0.313-0.676-0.47-1.17-0.47c-0.512,0-0.922,0.17-1.229,0.51c-0.308,0.341-0.461,0.834-0.461,1.48v2.96h-0.689v-3.12
			c0-0.593-0.145-1.047-0.43-1.36c-0.287-0.313-0.682-0.47-1.182-0.47c-0.513,0-0.923,0.17-1.229,0.51
			c-0.307,0.341-0.461,0.834-0.461,1.48v2.96h-0.699v-5.46h0.699v0.94c0.174-0.341,0.42-0.599,0.74-0.775s0.677-0.265,1.07-0.265
			c0.474,0,0.89,0.113,1.244,0.34c0.356,0.227,0.615,0.56,0.774,1c0.146-0.434,0.398-0.766,0.757-0.995
			c0.354-0.23,0.762-0.345,1.215-0.345C111.602,17.194,112.122,17.395,112.523,17.798z"/>
		<path fill="#989898" d="M115.686,22.489c-0.41-0.23-0.733-0.557-0.971-0.98c-0.236-0.423-0.354-0.918-0.354-1.485
			c0-0.566,0.119-1.062,0.359-1.484c0.239-0.424,0.565-0.75,0.979-0.98c0.413-0.229,0.876-0.345,1.39-0.345s0.979,0.115,1.396,0.345
			c0.416,0.23,0.742,0.557,0.979,0.98s0.355,0.918,0.355,1.484c0,0.561-0.12,1.054-0.36,1.48c-0.239,0.426-0.569,0.755-0.989,0.985
			c-0.421,0.229-0.888,0.345-1.4,0.345C116.557,22.833,116.096,22.718,115.686,22.489z M118.07,21.994
			c0.306-0.167,0.555-0.417,0.744-0.75c0.189-0.334,0.285-0.74,0.285-1.221c0-0.479-0.094-0.886-0.279-1.22
			c-0.188-0.333-0.434-0.581-0.74-0.745c-0.307-0.163-0.641-0.245-1-0.245s-0.693,0.082-1,0.245
			c-0.307,0.164-0.553,0.412-0.734,0.745c-0.185,0.334-0.275,0.74-0.275,1.22s0.092,0.887,0.275,1.221
			c0.184,0.333,0.426,0.583,0.729,0.75c0.303,0.166,0.635,0.25,0.995,0.25C117.43,22.244,117.764,22.16,118.07,21.994z"/>
	</g>
</g>
<g display="none">
	<g display="inline">
		<path fill="#F5F6F6" d="M211,227c0,1.65-1.35,3-3,3H3c-1.65,0-3-1.35-3-3V3.021c0-1.649,1.35-3,3-3h205c1.65,0,3,1.35,3,3V227z"/>
		<path fill="#EFEEEE" d="M211,25.092V3c0-1.649-1.35-3-3-3H3C1.35,0,0,1.351,0,3v22.093L211,25.092L211,25.092z"/>
		<g>
			<polygon fill="#CDCCCC" points="11.047,9.161 10.347,9.161 10.347,16.151 13.557,16.151 13.557,15.601 11.047,15.601 			"/>
			<path fill="#CDCCCC" d="M18.362,10.957c-0.417-0.23-0.882-0.346-1.396-0.346c-0.514,0-0.977,0.115-1.39,0.346
				c-0.414,0.229-0.74,0.557-0.98,0.979c-0.24,0.424-0.359,0.919-0.359,1.485s0.118,1.062,0.354,1.484
				c0.236,0.424,0.56,0.75,0.97,0.98c0.41,0.229,0.872,0.345,1.386,0.345c0.513,0,0.979-0.115,1.399-0.345
				c0.42-0.23,0.75-0.559,0.99-0.985c0.24-0.426,0.36-0.92,0.36-1.479c0-0.566-0.119-1.061-0.355-1.485
				C19.105,11.514,18.778,11.187,18.362,10.957z M18.691,14.641c-0.189,0.333-0.438,0.583-0.744,0.75
				c-0.308,0.167-0.641,0.25-1,0.25c-0.36,0-0.692-0.083-0.995-0.25c-0.304-0.167-0.547-0.417-0.73-0.75
				c-0.183-0.333-0.274-0.74-0.274-1.22s0.091-0.886,0.274-1.22c0.184-0.333,0.429-0.581,0.735-0.744
				c0.307-0.164,0.64-0.245,1-0.245c0.359,0,0.693,0.081,1,0.245c0.307,0.163,0.553,0.411,0.74,0.744
				c0.187,0.334,0.279,0.74,0.279,1.22C18.977,13.901,18.882,14.308,18.691,14.641z"/>
			<path fill="#CDCCCC" d="M25.427,11.882c-0.167-0.367-0.44-0.67-0.82-0.91c-0.38-0.24-0.826-0.36-1.34-0.36
				c-0.5,0-0.948,0.115-1.345,0.346c-0.396,0.229-0.707,0.557-0.93,0.979c-0.224,0.424-0.335,0.915-0.335,1.474
				c0,0.561,0.111,1.054,0.335,1.48c0.223,0.427,0.533,0.757,0.93,0.99c0.397,0.233,0.845,0.35,1.345,0.35
				c0.514,0,0.958-0.121,1.335-0.365c0.377-0.243,0.651-0.551,0.825-0.925v1.351c0,0.399-0.08,0.746-0.24,1.04
				c-0.16,0.293-0.38,0.515-0.66,0.665c-0.279,0.149-0.597,0.225-0.949,0.225c-0.487,0-0.898-0.113-1.235-0.34
				c-0.337-0.227-0.565-0.53-0.685-0.91h-0.69c0.113,0.573,0.401,1.026,0.865,1.36c0.463,0.333,1.045,0.5,1.745,0.5
				c0.493,0,0.933-0.105,1.319-0.315c0.386-0.21,0.688-0.508,0.905-0.894c0.217-0.387,0.325-0.83,0.325-1.33v-5.6h-0.7V11.882z
				 M25.157,14.582c-0.181,0.333-0.426,0.59-0.735,0.77c-0.311,0.18-0.651,0.271-1.025,0.271c-0.387,0-0.733-0.089-1.04-0.266
				c-0.307-0.177-0.548-0.434-0.725-0.77c-0.177-0.337-0.265-0.729-0.265-1.176c0-0.453,0.088-0.844,0.265-1.174
				c0.177-0.33,0.418-0.581,0.725-0.755c0.307-0.173,0.653-0.26,1.04-0.26c0.374,0,0.715,0.09,1.025,0.27
				c0.31,0.181,0.555,0.438,0.735,0.771c0.18,0.333,0.27,0.72,0.27,1.16C25.427,13.861,25.337,14.248,25.157,14.582z"/>
			<path fill="#CDCCCC" d="M31.532,10.957c-0.417-0.23-0.882-0.346-1.396-0.346c-0.514,0-0.977,0.115-1.39,0.346
				c-0.414,0.229-0.74,0.557-0.98,0.979c-0.24,0.424-0.359,0.919-0.359,1.485s0.118,1.062,0.354,1.484
				c0.236,0.424,0.56,0.75,0.97,0.98c0.41,0.229,0.872,0.345,1.386,0.345c0.513,0,0.979-0.115,1.399-0.345
				c0.42-0.23,0.75-0.559,0.99-0.985c0.24-0.426,0.36-0.92,0.36-1.479c0-0.566-0.119-1.061-0.355-1.485
				C32.275,11.514,31.948,11.187,31.532,10.957z M31.861,14.641c-0.189,0.333-0.438,0.583-0.744,0.75
				c-0.308,0.167-0.641,0.25-1,0.25c-0.36,0-0.692-0.083-0.995-0.25c-0.304-0.167-0.547-0.417-0.73-0.75s-0.274-0.74-0.274-1.22
				s0.091-0.886,0.274-1.22c0.184-0.333,0.429-0.581,0.735-0.744c0.307-0.164,0.64-0.245,1-0.245c0.359,0,0.693,0.081,1,0.245
				c0.307,0.163,0.553,0.411,0.74,0.744c0.187,0.334,0.279,0.74,0.279,1.22S32.052,14.308,31.861,14.641z"/>
			<rect x="45.022" y="12.142" fill="#CDCCCC" width="10.041" height="2"/>
			<rect x="62.96" y="12.142" fill="#CDCCCC" width="10.041" height="2"/>
			<rect x="81.022" y="12.142" fill="#CDCCCC" width="10.041" height="2"/>
			<rect x="98.96" y="12.142" fill="#CDCCCC" width="10.041" height="2"/>
			<rect x="117.055" y="12.142" fill="#CDCCCC" width="10.041" height="2"/>
			<rect x="134.991" y="12.142" fill="#CDCCCC" width="10.041" height="2"/>
		</g>
	</g>
</g>
<g display="none">
	<g display="inline">
		<path fill="#F5F6F6" d="M211,227c0,1.65-1.35,3-3,3H3c-1.65,0-3-1.35-3-3V3c0-1.65,1.35-3,3-3h205c1.65,0,3,1.35,3,3V227z"/>
		<path fill="#EFEEEE" d="M211,180.016V227c0,1.65-1.35,3-3,3H3c-1.65,0-3-1.35-3-3v-46.984H211z"/>
		<g>
			<polygon fill="#CDCCCC" points="11.021,188.895 10.32,188.895 10.32,195.885 13.53,195.885 13.53,195.335 11.021,195.335 			"/>
			<path fill="#CDCCCC" d="M18.336,190.689c-0.417-0.229-0.882-0.346-1.396-0.346s-0.977,0.115-1.39,0.346
				c-0.414,0.229-0.74,0.558-0.98,0.979c-0.24,0.424-0.359,0.919-0.359,1.485s0.118,1.062,0.354,1.484
				c0.236,0.424,0.56,0.75,0.97,0.979c0.41,0.229,0.872,0.345,1.386,0.345c0.513,0,0.979-0.115,1.399-0.345
				c0.42-0.229,0.75-0.56,0.99-0.985c0.24-0.426,0.36-0.92,0.36-1.479c0-0.566-0.119-1.063-0.355-1.485
				C19.079,191.247,18.752,190.92,18.336,190.689z M18.665,194.375c-0.189,0.333-0.438,0.583-0.744,0.75
				c-0.308,0.167-0.641,0.25-1,0.25c-0.36,0-0.692-0.083-0.995-0.25c-0.304-0.167-0.547-0.417-0.73-0.75
				c-0.183-0.333-0.274-0.74-0.274-1.221c0-0.479,0.091-0.887,0.274-1.221c0.184-0.332,0.429-0.58,0.735-0.744
				c0.307-0.164,0.64-0.244,1-0.244c0.359,0,0.693,0.08,1,0.244c0.307,0.164,0.553,0.412,0.74,0.744
				c0.187,0.334,0.279,0.74,0.279,1.221S18.855,194.042,18.665,194.375z"/>
			<path fill="#CDCCCC" d="M25.4,191.615c-0.167-0.367-0.44-0.67-0.82-0.91s-0.826-0.359-1.34-0.359c-0.5,0-0.948,0.114-1.345,0.346
				c-0.396,0.229-0.707,0.557-0.93,0.979c-0.224,0.424-0.335,0.915-0.335,1.475c0,0.562,0.111,1.055,0.335,1.48
				c0.223,0.427,0.533,0.757,0.93,0.99c0.397,0.232,0.845,0.35,1.345,0.35c0.514,0,0.958-0.121,1.335-0.365
				c0.377-0.242,0.651-0.551,0.825-0.925v1.351c0,0.399-0.08,0.746-0.24,1.041c-0.16,0.293-0.38,0.515-0.66,0.664
				c-0.279,0.149-0.597,0.226-0.949,0.226c-0.487,0-0.898-0.113-1.235-0.34c-0.337-0.228-0.565-0.53-0.685-0.91h-0.69
				c0.113,0.573,0.401,1.026,0.865,1.36c0.463,0.332,1.045,0.5,1.745,0.5c0.493,0,0.933-0.105,1.319-0.315
				c0.386-0.21,0.688-0.509,0.905-0.896c0.217-0.387,0.325-0.83,0.325-1.33v-5.601h-0.7V191.615L25.4,191.615z M25.131,194.314
				c-0.181,0.334-0.426,0.59-0.735,0.771c-0.311,0.181-0.651,0.271-1.025,0.271c-0.387,0-0.733-0.088-1.04-0.266
				c-0.307-0.177-0.548-0.434-0.725-0.77c-0.177-0.338-0.265-0.729-0.265-1.176c0-0.453,0.088-0.846,0.265-1.176
				c0.177-0.33,0.418-0.58,0.725-0.755c0.307-0.173,0.653-0.26,1.04-0.26c0.374,0,0.715,0.09,1.025,0.271
				c0.31,0.18,0.555,0.438,0.735,0.771c0.18,0.333,0.27,0.72,0.27,1.159C25.4,193.596,25.311,193.98,25.131,194.314z"/>
			<path fill="#CDCCCC" d="M31.506,190.689c-0.417-0.229-0.882-0.346-1.396-0.346c-0.514,0-0.977,0.115-1.39,0.346
				c-0.414,0.229-0.74,0.558-0.98,0.979c-0.24,0.424-0.359,0.919-0.359,1.485s0.118,1.062,0.354,1.484
				c0.236,0.424,0.56,0.75,0.97,0.979s0.872,0.345,1.386,0.345c0.513,0,0.979-0.115,1.399-0.345c0.42-0.229,0.75-0.56,0.99-0.985
				c0.24-0.426,0.36-0.92,0.36-1.479c0-0.566-0.119-1.063-0.355-1.485C32.249,191.247,31.922,190.92,31.506,190.689z
				 M31.835,194.375c-0.189,0.333-0.438,0.583-0.744,0.75c-0.308,0.167-0.641,0.25-1,0.25c-0.36,0-0.692-0.083-0.995-0.25
				c-0.304-0.167-0.547-0.417-0.73-0.75c-0.183-0.333-0.274-0.74-0.274-1.221c0-0.479,0.091-0.887,0.274-1.221
				c0.184-0.332,0.429-0.58,0.735-0.744c0.307-0.164,0.64-0.244,1-0.244c0.359,0,0.693,0.08,1,0.244s0.553,0.412,0.74,0.744
				c0.187,0.334,0.279,0.74,0.279,1.221S32.025,194.042,31.835,194.375z"/>
			<rect x="62.934" y="193.857" fill="#CDCCCC" width="20.047" height="2"/>
			<rect x="62.934" y="200.896" fill="#CDCCCC" width="25.075" height="2"/>
			<rect x="62.934" y="207.857" fill="#CDCCCC" width="20.047" height="2"/>
			<rect x="62.934" y="214.896" fill="#CDCCCC" width="25.075" height="2"/>
			<rect x="100.934" y="193.857" fill="#CDCCCC" width="25.075" height="2"/>
			<rect x="100.934" y="200.896" fill="#CDCCCC" width="14.861" height="2"/>
			<rect x="100.934" y="207.857" fill="#CDCCCC" width="25.075" height="2"/>
			<rect x="100.934" y="214.896" fill="#CDCCCC" width="14.861" height="2"/>
			<rect x="176.018" y="193.857" fill="#CDCCCC" width="25.074" height="2"/>
			<rect x="176.018" y="200.896" fill="#CDCCCC" width="14.86" height="2"/>
			<rect x="176.018" y="207.857" fill="#CDCCCC" width="19.943" height="2"/>
			<rect x="176.018" y="214.896" fill="#CDCCCC" width="14.86" height="2"/>
			<rect x="137.996" y="193.857" fill="#CDCCCC" width="20.047" height="2"/>
			<rect x="137.996" y="200.896" fill="#CDCCCC" width="24.882" height="2"/>
			<rect x="137.996" y="207.857" fill="#CDCCCC" width="15.215" height="2"/>
			<rect x="137.996" y="214.896" fill="#CDCCCC" width="20.047" height="2"/>
		</g>
	</g>
</g>
<g>
</g>
<g>
</g>
<g>
	<path fill="#343436" d="M211,227c0,1.65-1.35,3-3,3H3c-1.649,0-3-1.35-3-3V3c0-1.65,1.351-3,3-3h205c1.65,0,3,1.35,3,3V227z"/>
	<g>
		<g>
			<path fill="#606062" d="M191.183,188.586c0,0.825-0.675,1.5-1.5,1.5h-49.993c-0.825,0-1.5-0.675-1.5-1.5v-25.998
				c0-0.825,0.675-1.5,1.5-1.5h49.993c0.825,0,1.5,0.675,1.5,1.5V188.586z"/>
		</g>
		<path fill-rule="evenodd" clip-rule="evenodd" fill="#3A3A3C" d="M151.639,171.764c3.754-2.121,6.564,1.047,11.42,6.939
			c4.854,5.893,7.908,8.678,12.297,3.18c4.802-6.016,7.57-2.717,9.369-0.576c1.219,1.449,4.34,4.996,6.458,7.439v-26.936
			c0-0.398-0.261-0.723-0.585-0.723h-51.824c-0.322,0-0.584,0.324-0.584,0.723v26.553
			C139.902,185.838,148.277,173.66,151.639,171.764z M172.74,172.654c1.618,0,2.928,1.295,2.928,2.893
			c0,1.596-1.31,2.891-2.928,2.891c-1.616,0-2.928-1.295-2.928-2.891C169.813,173.949,171.124,172.654,172.74,172.654z"/>
	</g>
	<g>
		<g>
			<path fill="#606062" d="M131.996,188.586c0,0.825-0.675,1.5-1.5,1.5H80.503c-0.825,0-1.5-0.675-1.5-1.5v-25.998
				c0-0.825,0.675-1.5,1.5-1.5h49.993c0.825,0,1.5,0.675,1.5,1.5V188.586z"/>
		</g>
		<path fill-rule="evenodd" clip-rule="evenodd" fill="#3A3A3C" d="M92.452,171.764c3.754-2.121,6.564,1.047,11.42,6.939
			c4.854,5.893,7.908,8.678,12.297,3.18c4.802-6.016,7.57-2.717,9.369-0.576c1.219,1.449,4.34,4.996,6.458,7.439v-26.936
			c0-0.398-0.261-0.723-0.585-0.723H79.587c-0.322,0-0.584,0.324-0.584,0.723v26.553C80.716,185.838,89.091,173.66,92.452,171.764z
			 M113.554,172.654c1.618,0,2.928,1.295,2.928,2.893c0,1.596-1.31,2.891-2.928,2.891c-1.616,0-2.928-1.295-2.928-2.891
			C110.626,173.949,111.938,172.654,113.554,172.654z"/>
	</g>
	<g>
		<g>
			<path fill="#606062" d="M72.915,188.586c0,0.825-0.675,1.5-1.5,1.5H21.421c-0.825,0-1.5-0.675-1.5-1.5v-25.998
				c0-0.825,0.675-1.5,1.5-1.5h49.994c0.825,0,1.5,0.675,1.5,1.5V188.586z"/>
		</g>
		<path fill-rule="evenodd" clip-rule="evenodd" fill="#3A3A3C" d="M33.371,171.764c3.753-2.121,6.564,1.047,11.419,6.939
			c4.854,5.893,7.908,8.678,12.297,3.18c4.803-6.016,7.57-2.717,9.369-0.576c1.219,1.449,4.34,4.996,6.459,7.439v-26.936
			c0-0.398-0.262-0.723-0.586-0.723H20.506c-0.323,0-0.585,0.324-0.585,0.723v26.553C21.634,185.838,30.01,173.66,33.371,171.764z
			 M54.472,172.654c1.619,0,2.928,1.295,2.928,2.893c0,1.596-1.309,2.891-2.928,2.891c-1.615,0-2.928-1.295-2.928-2.891
			C51.544,173.949,52.856,172.654,54.472,172.654z"/>
	</g>
	<g>
		<path fill-rule="evenodd" clip-rule="evenodd" fill="#CCCBCB" d="M44.75,207.166h20v2h-20V207.166z"/>
	</g>
	<g>
		<g>
			<path fill-rule="evenodd" clip-rule="evenodd" fill="#49494B" d="M22.196,104.046h16c1.104,0,2,0.896,2,2v2c0,1.104-0.896,2-2,2
				h-16c-1.104,0-2-0.896-2-2v-2C20.196,104.942,21.092,104.046,22.196,104.046z"/>
			<path fill-rule="evenodd" clip-rule="evenodd" fill="#49494B" d="M44.196,104.046h16c1.104,0,2,0.896,2,2v2c0,1.104-0.896,2-2,2
				h-16c-1.104,0-2-0.896-2-2v-2C42.196,104.942,43.092,104.046,44.196,104.046z"/>
			<path fill-rule="evenodd" clip-rule="evenodd" fill="#49494B" d="M66.196,104.046h16c1.104,0,2,0.896,2,2v2c0,1.104-0.896,2-2,2
				h-16c-1.104,0-2-0.896-2-2v-2C64.196,104.942,65.092,104.046,66.196,104.046z"/>
		</g>
	</g>
	<rect x="20.196" y="118.119" fill-rule="evenodd" clip-rule="evenodd" fill="#49494B" width="165.717" height="1.889"/>
	<rect x="20.196" y="124.951" fill-rule="evenodd" clip-rule="evenodd" fill="#49494B" width="92.609" height="1.889"/>
	<rect x="20.196" y="132.217" fill-rule="evenodd" clip-rule="evenodd" fill="#49494B" width="146.677" height="1.889"/>
	<rect x="20.196" y="139.049" fill-rule="evenodd" clip-rule="evenodd" fill="#49494B" width="133.596" height="1.889"/>
	<rect x="20.196" y="196.313" fill-rule="evenodd" clip-rule="evenodd" fill="#49494B" width="39.414" height="1.889"/>
	<rect x="20.196" y="201.109" fill-rule="evenodd" clip-rule="evenodd" fill="#49494B" width="44.554" height="1.889"/>
	<rect x="79.003" y="196.313" fill-rule="evenodd" clip-rule="evenodd" fill="#49494B" width="40.053" height="1.889"/>
	<rect x="79.003" y="201.109" fill-rule="evenodd" clip-rule="evenodd" fill="#49494B" width="44.554" height="1.889"/>
	<rect x="138.189" y="196.313" fill-rule="evenodd" clip-rule="evenodd" fill="#49494B" width="40.053" height="1.889"/>
	<rect x="138.189" y="201.109" fill-rule="evenodd" clip-rule="evenodd" fill="#49494B" width="44.554" height="1.889"/>
	<rect x="39.903" y="207.223" fill-rule="evenodd" clip-rule="evenodd" fill="#49494B" width="24.847" height="1.889"/>
	<rect x="113.876" y="58.946" fill-rule="evenodd" clip-rule="evenodd" fill="#49494B" width="59.952" height="2.021"/>
	<rect x="113.876" y="65.009" fill-rule="evenodd" clip-rule="evenodd" fill="#49494B" width="47.995" height="2.021"/>
	<rect x="113.876" y="71.029" fill-rule="evenodd" clip-rule="evenodd" fill="#49494B" width="53.048" height="2.021"/>
	<rect x="113.876" y="77.007" fill-rule="evenodd" clip-rule="evenodd" fill="#49494B" width="33.934" height="2.021"/>
	<g>
		<path fill="#676767" d="M118.609,48.074c-0.158,0.284-0.396,0.519-0.716,0.705c-0.32,0.187-0.71,0.287-1.171,0.3v0.8h-0.401v-0.81
			c-0.618-0.047-1.12-0.24-1.505-0.58s-0.591-0.76-0.618-1.26h0.773c0.027,0.307,0.154,0.58,0.382,0.82
			c0.226,0.24,0.549,0.387,0.968,0.44v-2.76c-0.46-0.12-0.833-0.24-1.118-0.36c-0.285-0.12-0.525-0.305-0.722-0.555
			c-0.195-0.25-0.294-0.588-0.294-1.015c0-0.347,0.087-0.658,0.258-0.935c0.172-0.276,0.42-0.497,0.742-0.66
			c0.322-0.163,0.701-0.251,1.134-0.265v-0.84h0.401v0.85c0.578,0.047,1.042,0.224,1.393,0.53c0.35,0.307,0.553,0.693,0.607,1.16
			h-0.763c-0.041-0.247-0.168-0.478-0.382-0.695c-0.212-0.217-0.498-0.352-0.855-0.405v2.67c0.461,0.12,0.832,0.24,1.113,0.36
			c0.282,0.12,0.521,0.309,0.717,0.565c0.196,0.257,0.294,0.602,0.294,1.035C118.847,47.489,118.768,47.791,118.609,48.074z
			 M115.28,44.625c0.241,0.19,0.588,0.348,1.041,0.475v-2.58c-0.426,0.014-0.766,0.127-1.021,0.34
			c-0.254,0.213-0.382,0.517-0.382,0.91C114.919,44.149,115.04,44.434,115.28,44.625z M117.76,48.104
			c0.243-0.244,0.365-0.545,0.365-0.905c0-0.387-0.12-0.676-0.36-0.87c-0.24-0.193-0.588-0.356-1.042-0.49v2.67
			C117.17,48.483,117.515,48.348,117.76,48.104z"/>
		<path fill="#676767" d="M125.051,42.439h-3.772V45c0.172-0.233,0.423-0.425,0.753-0.575c0.329-0.15,0.687-0.225,1.072-0.225
			c0.563,0,1.023,0.112,1.381,0.335c0.357,0.224,0.615,0.514,0.772,0.87c0.158,0.357,0.237,0.738,0.237,1.145
			c0,0.467-0.091,0.888-0.273,1.265c-0.182,0.376-0.46,0.675-0.834,0.895c-0.376,0.22-0.841,0.33-1.397,0.33
			c-0.707,0-1.281-0.178-1.721-0.535c-0.44-0.356-0.708-0.838-0.805-1.445h0.712c0.089,0.44,0.295,0.78,0.618,1.02
			c0.323,0.24,0.722,0.36,1.195,0.36c0.598,0,1.05-0.172,1.356-0.515c0.305-0.343,0.457-0.798,0.457-1.365
			c0-0.553-0.153-0.985-0.463-1.295s-0.753-0.465-1.329-0.465c-0.398,0-0.75,0.09-1.052,0.27s-0.525,0.423-0.671,0.73h-0.679v-3.97
			h4.441V42.439z"/>
		<path fill="#676767" d="M129.256,41.799c0.941,0,1.595,0.317,1.959,0.95c0.363,0.633,0.545,1.52,0.545,2.66
			s-0.182,2.028-0.545,2.665c-0.364,0.637-1.018,0.955-1.959,0.955s-1.594-0.316-1.959-0.95c-0.364-0.633-0.545-1.523-0.545-2.67
			c0-1.14,0.181-2.026,0.545-2.66C127.662,42.116,128.314,41.799,129.256,41.799z M129.256,42.439c-0.495,0-0.872,0.128-1.133,0.385
			c-0.262,0.257-0.438,0.597-0.526,1.02c-0.09,0.423-0.134,0.945-0.134,1.565s0.044,1.144,0.134,1.57
			c0.089,0.426,0.265,0.768,0.526,1.025c0.261,0.257,0.638,0.385,1.133,0.385c0.494,0,0.873-0.128,1.134-0.385
			c0.262-0.257,0.437-0.599,0.526-1.025c0.088-0.427,0.134-0.95,0.134-1.57s-0.046-1.142-0.134-1.565
			c-0.09-0.423-0.265-0.763-0.526-1.02C130.129,42.568,129.75,42.439,129.256,42.439z"/>
	</g>
	<g>
		<path fill="#676767" d="M117.711,29.511c-0.39,0.367-0.973,0.55-1.749,0.55h-1.394v2.98h-0.692v-6.99h2.086
			c0.771,0,1.352,0.184,1.744,0.55c0.392,0.367,0.588,0.854,0.588,1.46C118.294,28.661,118.1,29.144,117.711,29.511z
			 M117.582,28.061c0-0.967-0.54-1.45-1.62-1.45h-1.394v2.87h1.394C117.042,29.48,117.582,29.007,117.582,28.061z"/>
		<path fill="#676767" d="M120.839,27.791c0.313-0.207,0.696-0.31,1.151-0.31v0.73h-0.188c-0.501,0-0.902,0.137-1.205,0.41
			s-0.455,0.73-0.455,1.37v3.05h-0.691v-5.46h0.691v1.08C120.294,28.287,120.526,27.997,120.839,27.791z"/>
		<path fill="#676767" d="M124.021,32.775c-0.405-0.23-0.725-0.557-0.958-0.98s-0.351-0.918-0.351-1.485
			c0-0.566,0.118-1.062,0.355-1.485s0.56-0.75,0.969-0.98c0.408-0.23,0.866-0.345,1.374-0.345c0.507,0,0.967,0.115,1.379,0.345
			c0.411,0.23,0.734,0.557,0.968,0.98s0.352,0.918,0.352,1.485c0,0.56-0.119,1.053-0.356,1.48s-0.563,0.755-0.979,0.985
			s-0.876,0.345-1.383,0.345C124.883,33.121,124.427,33.005,124.021,32.775z M126.379,32.281c0.302-0.167,0.548-0.417,0.735-0.75
			c0.188-0.333,0.282-0.74,0.282-1.22s-0.092-0.887-0.276-1.22c-0.186-0.333-0.429-0.582-0.731-0.745
			c-0.304-0.164-0.634-0.245-0.988-0.245c-0.356,0-0.686,0.082-0.988,0.245c-0.304,0.163-0.546,0.412-0.728,0.745
			c-0.181,0.333-0.271,0.74-0.271,1.22s0.09,0.887,0.271,1.22c0.182,0.333,0.422,0.583,0.723,0.75
			c0.299,0.167,0.627,0.25,0.983,0.25C125.746,32.531,126.075,32.447,126.379,32.281z"/>
		<path fill="#676767" d="M129.394,28.826c0.224-0.423,0.531-0.75,0.923-0.98c0.393-0.23,0.835-0.345,1.329-0.345
			c0.476,0,0.903,0.117,1.286,0.35c0.381,0.233,0.662,0.537,0.84,0.91v-3.12h0.691v7.4h-0.691v-1.22
			c-0.165,0.38-0.436,0.692-0.812,0.935c-0.375,0.244-0.816,0.365-1.324,0.365c-0.494,0-0.937-0.117-1.329-0.35
			c-0.392-0.233-0.698-0.563-0.918-0.99c-0.222-0.427-0.331-0.92-0.331-1.48C129.058,29.741,129.169,29.249,129.394,28.826z
			 M133.505,29.15c-0.179-0.333-0.421-0.59-0.727-0.77c-0.308-0.18-0.645-0.27-1.014-0.27c-0.383,0-0.725,0.087-1.028,0.26
			c-0.303,0.173-0.541,0.425-0.716,0.755s-0.262,0.722-0.262,1.175c0,0.447,0.087,0.839,0.262,1.175s0.413,0.593,0.716,0.77
			c0.304,0.177,0.646,0.265,1.028,0.265c0.369,0,0.706-0.09,1.014-0.27c0.306-0.18,0.548-0.437,0.727-0.77
			c0.178-0.333,0.267-0.72,0.267-1.16S133.683,29.484,133.505,29.15z"/>
		<path fill="#676767" d="M140.72,27.581v5.46h-0.692v-0.96c-0.158,0.34-0.402,0.6-0.731,0.78c-0.329,0.18-0.699,0.27-1.107,0.27
			c-0.646,0-1.173-0.201-1.581-0.605c-0.408-0.403-0.612-0.988-0.612-1.755v-3.19h0.682v3.11c0,0.594,0.146,1.047,0.439,1.36
			c0.294,0.313,0.694,0.47,1.201,0.47c0.521,0,0.936-0.167,1.246-0.5c0.309-0.333,0.464-0.823,0.464-1.47v-2.97H140.72z"/>
		<path fill="#676767" d="M142.32,28.826c0.225-0.423,0.534-0.75,0.929-0.98c0.396-0.23,0.847-0.345,1.354-0.345
			c0.666,0,1.214,0.167,1.646,0.5c0.432,0.333,0.71,0.787,0.835,1.36h-0.741c-0.092-0.393-0.292-0.701-0.598-0.925
			c-0.307-0.223-0.688-0.335-1.142-0.335c-0.362,0-0.688,0.083-0.979,0.25s-0.519,0.415-0.687,0.745
			c-0.168,0.33-0.252,0.735-0.252,1.215s0.084,0.887,0.252,1.22c0.168,0.333,0.396,0.583,0.687,0.75
			c0.29,0.167,0.616,0.25,0.979,0.25c0.454,0,0.835-0.112,1.142-0.335c0.306-0.223,0.506-0.535,0.598-0.935h0.741
			c-0.125,0.56-0.404,1.01-0.84,1.35c-0.436,0.34-0.981,0.51-1.641,0.51c-0.508,0-0.959-0.115-1.354-0.345
			c-0.395-0.23-0.704-0.557-0.929-0.98c-0.224-0.423-0.336-0.918-0.336-1.485C141.984,29.744,142.097,29.249,142.32,28.826z"/>
		<path fill="#676767" d="M149.258,28.17v3.39c0,0.333,0.063,0.563,0.188,0.69c0.125,0.127,0.346,0.19,0.662,0.19h0.633v0.6h-0.742
			c-0.487,0-0.85-0.115-1.086-0.345c-0.238-0.23-0.356-0.608-0.356-1.135v-3.39h-0.751v-0.59h0.751v-1.37h0.701v1.37h1.483v0.59
			H149.258z"/>
		<path fill="#676767" d="M158.835,26.05v0.56h-1.917v6.43h-0.692v-6.43h-1.927v-0.56H158.835z"/>
		<path fill="#676767" d="M159.923,26.4c-0.099-0.1-0.149-0.223-0.149-0.37c0-0.147,0.051-0.269,0.149-0.365
			c0.098-0.097,0.217-0.145,0.355-0.145s0.257,0.048,0.355,0.145c0.1,0.097,0.148,0.218,0.148,0.365c0,0.146-0.049,0.27-0.148,0.37
			c-0.099,0.1-0.217,0.15-0.355,0.15S160.021,26.5,159.923,26.4z M160.624,27.581v5.46h-0.691v-5.46H160.624z"/>
		<path fill="#676767" d="M163.095,28.17v3.39c0,0.333,0.063,0.563,0.188,0.69c0.124,0.127,0.346,0.19,0.662,0.19h0.632v0.6h-0.741
			c-0.487,0-0.85-0.115-1.087-0.345s-0.355-0.608-0.355-1.135v-3.39h-0.751v-0.59h0.751v-1.37h0.701v1.37h1.482v0.59H163.095z"/>
		<path fill="#676767" d="M166.405,25.641v7.4h-0.691v-7.4H166.405z"/>
		<path fill="#676767" d="M172.839,30.561h-4.476c0.012,0.414,0.109,0.769,0.291,1.065c0.181,0.297,0.416,0.522,0.707,0.675
			c0.289,0.154,0.605,0.23,0.948,0.23c0.448,0,0.825-0.11,1.131-0.33c0.308-0.22,0.51-0.517,0.608-0.89h0.731
			c-0.132,0.533-0.414,0.968-0.846,1.305c-0.431,0.336-0.973,0.505-1.625,0.505c-0.508,0-0.962-0.115-1.363-0.345
			c-0.403-0.23-0.718-0.557-0.944-0.98c-0.228-0.423-0.341-0.918-0.341-1.485c0-0.566,0.112-1.063,0.336-1.49
			c0.224-0.426,0.537-0.753,0.938-0.98c0.402-0.227,0.859-0.34,1.374-0.34c0.514,0,0.963,0.112,1.35,0.335
			c0.385,0.224,0.682,0.528,0.889,0.915s0.312,0.81,0.312,1.27C172.859,30.254,172.853,30.434,172.839,30.561z M171.916,28.98
			c-0.168-0.293-0.397-0.513-0.688-0.66c-0.29-0.146-0.606-0.22-0.949-0.22c-0.335,0-0.646,0.073-0.928,0.22
			c-0.284,0.147-0.515,0.367-0.692,0.66c-0.179,0.293-0.277,0.647-0.296,1.06h3.795C172.164,29.627,172.084,29.274,171.916,28.98z"
			/>
	</g>
	<g>
		<g>
			<path fill-rule="evenodd" clip-rule="evenodd" fill="#606062" d="M105.293,64.925c0,1.1-0.9,2-2,2H22.197c-1.1,0-2-0.9-2-2
				V22.729c0-1.1,0.9-2,2-2h81.096c1.1,0,2,0.9,2,2V64.925z"/>
		</g>
		<path fill-rule="evenodd" clip-rule="evenodd" fill="#3A3A3C" d="M41.795,37.618c6.028-3.452,10.54,1.705,18.337,11.3
			c7.794,9.593,12.7,14.13,19.744,5.177c7.711-9.797,12.157-4.422,15.045-0.941c1.959,2.36,6.969,8.137,10.372,12.116V21.416
			c0-0.65-0.421-1.177-0.94-1.177H21.138c-0.519,0-0.94,0.527-0.94,1.177v43.23C22.95,60.536,36.397,40.708,41.795,37.618z
			 M75.679,39.069c2.597,0,4.701,2.108,4.701,4.708c0,2.6-2.104,4.708-4.701,4.708s-4.702-2.108-4.702-4.708
			C70.977,41.177,73.082,39.069,75.679,39.069z"/>
	</g>
	<g>
		<g>
			<g>
				<path fill="#606062" d="M46.725,82.11c0,0.825-0.675,1.5-1.5,1.5H21.728c-0.825,0-1.5-0.675-1.5-1.5V70.612
					c0-0.825,0.675-1.5,1.5-1.5h23.497c0.825,0,1.5,0.675,1.5,1.5V82.11z"/>
			</g>
			<g>
				<g>
					<path fill-rule="evenodd" clip-rule="evenodd" fill="#3A3A3C" d="M26.952,74.179c1.877-1.007,3.282,0.497,5.71,3.294
						c2.427,2.797,3.954,4.12,6.148,1.509c2.401-2.855,3.785-1.289,4.685-0.274c0.609,0.688,2.169,2.373,3.229,3.532V69.455
						c0-0.189-0.131-0.343-0.293-0.343H20.52c-0.161,0-0.292,0.154-0.292,0.343v12.604C21.084,80.861,25.271,75.08,26.952,74.179z
						 M37.503,74.895c0.81,0,1.464,0.647,1.464,1.446c0,0.798-0.654,1.445-1.464,1.445c-0.808,0-1.464-0.647-1.464-1.445
						C36.039,75.542,36.695,74.895,37.503,74.895z"/>
				</g>
			</g>
		</g>
	</g>
	<g>
		<g>
			<g>
				<path fill="#606062" d="M75.787,82.11c0,0.825-0.675,1.5-1.5,1.5H50.79c-0.825,0-1.5-0.675-1.5-1.5V70.612
					c0-0.825,0.675-1.5,1.5-1.5h23.497c0.825,0,1.5,0.675,1.5,1.5V82.11z"/>
			</g>
			<g>
				<g>
					<path fill-rule="evenodd" clip-rule="evenodd" fill="#3A3A3C" d="M56.015,74.179c1.877-1.007,3.282,0.497,5.71,3.294
						c2.427,2.797,3.954,4.12,6.148,1.509c2.401-2.855,3.785-1.289,4.685-0.274c0.609,0.688,2.169,2.373,3.229,3.532V69.455
						c0-0.189-0.131-0.343-0.293-0.343H49.582c-0.161,0-0.292,0.154-0.292,0.343v12.604C50.146,80.861,54.334,75.08,56.015,74.179z
						 M66.565,74.895c0.81,0,1.464,0.647,1.464,1.446c0,0.798-0.654,1.445-1.464,1.445c-0.808,0-1.464-0.647-1.464-1.445
						C65.102,75.542,65.758,74.895,66.565,74.895z"/>
				</g>
			</g>
		</g>
	</g>
	<g>
		<g>
			<g>
				<path fill="#606062" d="M105.262,82.11c0,0.825-0.675,1.5-1.5,1.5H80.265c-0.825,0-1.5-0.675-1.5-1.5V70.612
					c0-0.825,0.675-1.5,1.5-1.5h23.497c0.825,0,1.5,0.675,1.5,1.5V82.11z"/>
			</g>
			<g>
				<g>
					<path fill-rule="evenodd" clip-rule="evenodd" fill="#3A3A3C" d="M85.489,74.179c1.877-1.007,3.282,0.497,5.71,3.294
						c2.427,2.797,3.954,4.12,6.148,1.509c2.401-2.855,3.785-1.289,4.685-0.274c0.609,0.688,2.169,2.373,3.229,3.532V69.455
						c0-0.189-0.131-0.343-0.293-0.343H79.057c-0.161,0-0.292,0.154-0.292,0.343v12.604C79.621,80.861,83.809,75.08,85.489,74.179z
						 M96.04,74.895c0.81,0,1.464,0.647,1.464,1.446c0,0.798-0.654,1.445-1.464,1.445c-0.808,0-1.464-0.647-1.464-1.445
						C94.576,75.542,95.232,74.895,96.04,74.895z"/>
				</g>
			</g>
		</g>
	</g>
</g>
</svg>
