<?xml version="1.0" encoding="utf-8"?>
<!-- Generator: Adobe Illustrator 16.0.0, SVG Export Plug-In . SVG Version: 6.00 Build 0)  -->
<!DOCTYPE svg PUBLIC "-//W3C//DTD SVG 1.1//EN" "http://www.w3.org/Graphics/SVG/1.1/DTD/svg11.dtd">
<svg version="1.1" xmlns="http://www.w3.org/2000/svg" xmlns:xlink="http://www.w3.org/1999/xlink" x="0px" y="0px" width="70px"
	 height="70px" viewBox="0 0 70 70" enable-background="new 0 0 70 70" xml:space="preserve">
<g display="none">
	<path display="inline" d="M61.811,0H8.192C3.674,0,0,3.674,0,8.192v53.617c0,4.518,3.674,8.192,8.192,8.192h53.619
		c4.517,0,8.189-3.676,8.189-8.192V8.192C70,3.674,66.326,0,61.811,0z M8.192,4.468h53.619c2.051,0,3.723,1.67,3.723,3.724v9.819
		H4.468V8.192C4.468,6.138,6.138,4.468,8.192,4.468z M61.811,65.533H8.192c-2.054,0-3.724-1.672-3.724-3.725V22.478h61.064v39.331
		C65.532,63.861,63.861,65.533,61.811,65.533z"/>
</g>
<g>
	<path d="M8.189,70.001h53.618c4.519,0,8.192-3.674,8.192-8.192V8.192C70,3.675,66.326,0,61.809,0H8.189C3.673,0,0,3.676,0,8.192
		v53.616C0,66.327,3.674,70.001,8.189,70.001z M61.808,65.533H8.189c-2.051,0-3.723-1.671-3.723-3.725V51.99h61.065v9.818
		C65.532,63.863,63.861,65.533,61.808,65.533z M8.189,4.468h53.619c2.053,0,3.724,1.672,3.724,3.725v39.331L4.468,47.522V8.192
		C4.468,6.14,6.139,4.468,8.189,4.468z"/>
</g>
</svg>
