<?xml version="1.0" ?><!DOCTYPE svg  PUBLIC '-//W3C//DTD SVG 1.1//EN'  'http://www.w3.org/Graphics/SVG/1.1/DTD/svg11.dtd'><svg enable-background="new 0 0 32 32" height="32px" version="1.1" viewBox="0 0 32 32" width="32px" xml:space="preserve" xmlns="http://www.w3.org/2000/svg" xmlns:xlink="http://www.w3.org/1999/xlink"><g/><g/><g/><g/><g/><g/><g/><g><g><g><path d="M28,5c0-0.552-0.447-1-1-1H13     c-0.552,0-1,0.448-1,1v2c0,0.552,0.448,1,1,1h14c0.553,0,1-0.448,1-1V5z" fill="none" stroke="#231F20" stroke-miterlimit="10" stroke-width="2"/></g><g><path d="M28,15c0-0.552-0.447-1-1-1H13     c-0.552,0-1,0.448-1,1v2c0,0.552,0.448,1,1,1h14c0.553,0,1-0.448,1-1V15z" fill="none" stroke="#231F20" stroke-miterlimit="10" stroke-width="2"/></g><g><path d="M28,25c0-0.552-0.447-1-1-1H13     c-0.552,0-1,0.448-1,1v2c0,0.552,0.448,1,1,1h14c0.553,0,1-0.448,1-1V25z" fill="none" stroke="#231F20" stroke-miterlimit="10" stroke-width="2"/></g><g><path d="M8,5c0-0.552-0.448-1-1-1H5C4.448,4,4,4.448,4,5     v2c0,0.552,0.448,1,1,1h2c0.552,0,1-0.448,1-1V5z" fill="none" stroke="#231F20" stroke-miterlimit="10" stroke-width="2"/></g><g><path d="M8,15c0-0.552-0.448-1-1-1H5     c-0.552,0-1,0.448-1,1v2c0,0.552,0.448,1,1,1h2c0.552,0,1-0.448,1-1V15z" fill="none" stroke="#231F20" stroke-miterlimit="10" stroke-width="2"/></g><g><path d="M8,25c0-0.552-0.448-1-1-1H5     c-0.552,0-1,0.448-1,1v2c0,0.552,0.448,1,1,1h2c0.552,0,1-0.448,1-1V25z" fill="none" stroke="#231F20" stroke-miterlimit="10" stroke-width="2"/></g></g></g><g/><g/><g/><g/><g/><g/><g/><g/><g/><g/><g/><g/><g/><g/><g/><g/><g/></svg>