<?xml version="1.0" encoding="utf-8"?>
<!-- Generator: Adobe Illustrator 16.0.0, SVG Export Plug-In . SVG Version: 6.00 Build 0)  -->
<!DOCTYPE svg PUBLIC "-//W3C//DTD SVG 1.1//EN" "http://www.w3.org/Graphics/SVG/1.1/DTD/svg11.dtd">
<svg version="1.1" xmlns="http://www.w3.org/2000/svg" xmlns:xlink="http://www.w3.org/1999/xlink" x="0px" y="0px"
	 width="100px" height="100px" viewBox="0 0 100 100" enable-background="new 0 0 100 100" xml:space="preserve">
<g>
	<path d="M51.155,46.376l-5.028,12.571l-8.782-20.494L23.749,70.178h-7.323v4.98h5.188h28.68h2.78h11.033h20.056v-4.98H61.866
		L51.155,46.376z M29.167,70.178l8.178-19.08l8.177,19.08H29.167z M50.94,70.178l-2.038-4.756l2.523-6.309l4.978,11.064H50.94z"/>
	<path d="M72.178,40.3c4.107,0,7.448-3.34,7.448-7.448c0-4.107-3.341-7.448-7.448-7.448c-4.106,0-7.447,3.341-7.447,7.448
		C64.73,36.96,68.071,40.3,72.178,40.3z M72.178,29.39c1.909,0,3.464,1.553,3.464,3.463s-1.555,3.463-3.464,3.463
		c-1.908,0-3.463-1.554-3.463-3.463S70.27,29.39,72.178,29.39z"/>
	<path d="M86.487,11.769H13.512c-3.57,0-6.475,2.905-6.475,6.475v63.515c0,3.568,2.904,6.475,6.475,6.475h72.976
		c3.57,0,6.476-2.906,6.476-6.475V18.243C92.963,14.673,90.058,11.769,86.487,11.769z M87.981,81.758
		c0,0.822-0.671,1.494-1.494,1.494H13.512c-0.823,0-1.494-0.672-1.494-1.494V18.243c0-0.824,0.671-1.494,1.494-1.494h72.976
		c0.823,0,1.494,0.67,1.494,1.494V81.758z"/>
</g>
</svg>
