<?xml version="1.0" encoding="utf-8"?>
<!-- Generator: Adobe Illustrator 16.0.0, SVG Export Plug-In . SVG Version: 6.00 Build 0)  -->
<!DOCTYPE svg PUBLIC "-//W3C//DTD SVG 1.1//EN" "http://www.w3.org/Graphics/SVG/1.1/DTD/svg11.dtd">
<svg version="1.1" xmlns="http://www.w3.org/2000/svg" xmlns:xlink="http://www.w3.org/1999/xlink" x="0px" y="0px"
	 width="100px" height="100px" viewBox="0 0 100 100" enable-background="new 0 0 100 100" xml:space="preserve">
<g>
	<g>
		<path d="M98.941,26.947L88.416,7.512c-0.914-1.682-2.863-2.858-4.742-2.858H16.388c-1.881,0-3.833,1.177-4.747,2.863L1.117,26.949
			C0.459,28.164,0,29.892,0,31.151c0,0.045,0.008,0.09,0.014,0.134c0.008,0.059,0.016,0.12,0.02,0.181l0.037,0.552H0.001
			c0.011,3.838,0.26,12.519,5.698,16.542l0.275,0.203l-0.08,0.339c-0.056,0.232-0.082,0.44-0.082,0.638v40.013h-2.66
			c-1.491,0-2.704,1.243-2.704,2.771c0,1.524,1.212,2.766,2.704,2.766h93.154c1.492,0,2.705-1.241,2.705-2.766
			c0-1.527-1.213-2.771-2.705-2.771h-2.943V50.657c0-0.307-0.055-0.613-0.174-0.937l-0.146-0.406l0.365-0.22
			c6.516-3.904,6.523-13.691,6.523-17.375l0.035-0.234c0.012-0.069,0.025-0.138,0.027-0.209
			C100.051,29.97,99.617,28.19,98.941,26.947z M83.686,10.19l10.619,19.615H76.713L71.814,10.19H83.686z M52.734,10.19H66.23
			l4.906,19.615H52.734V10.19z M34.663,10.19h12.663v19.615H29.108L34.663,10.19z M45.713,35.339l-0.057,0.57
			c-0.939,9.293-5.124,9.297-7.372,9.299c-2.249-0.002-6.433-0.006-7.373-9.299l-0.057-0.57H45.713z M16.377,10.19h12.656
			l-5.555,19.615H5.754L16.377,10.19z M5.61,35.909l-0.057-0.57h14.859l-0.057,0.57c-0.94,9.293-5.124,9.297-7.372,9.299
			C10.733,45.206,6.547,45.202,5.61,35.909z M60.01,89.751H11.22V50.605l0.93,0.082c0.248,0.026,0.497,0.053,0.766,0.054h0.134
			c6.398-0.047,10.466-3.575,12.091-10.484l0.491-2.086l0.491,2.086c1.627,6.909,5.696,10.437,12.096,10.484h0.132
			c6.44-0.047,10.52-3.619,12.124-10.616l0.491-2.145l0.492,2.145c1.242,5.412,3.996,8.791,8.188,10.042l0.365,0.108V89.751z
			 M56.279,35.909l-0.059-0.57h14.861l-0.059,0.57c-0.938,9.293-5.123,9.297-7.373,9.299C61.402,45.206,57.219,45.202,56.279,35.909
			z M87.961,89.751H65.418V50.638l0.436-0.064c4.223-0.615,7.246-3.054,8.984-7.253l0.465-1.125l0.465,1.125
			c2.018,4.882,5.758,7.379,11.119,7.419h0.133c0.057,0,0.109-0.008,0.164-0.014c0.088-0.009,0.172-0.019,0.266-0.02l0.512-0.006
			V89.751z M94.322,35.909c-0.938,9.293-5.123,9.297-7.373,9.299c-2.246-0.002-6.432-0.006-7.371-9.299l-0.059-0.57h14.861
			L94.322,35.909z M73.076,65.932c-1.297,0-2.355,0.973-2.355,2.157c0,1.189,1.059,2.158,2.355,2.158
			c1.293,0,2.354-0.969,2.354-2.158C75.43,66.904,74.369,65.932,73.076,65.932z M30.346,59.054c-0.935-0.955-2.722-0.695-3.971,0.58
			l-5.943,6.088c-1.247,1.275-1.503,3.109-0.567,4.063c0.935,0.96,2.723,0.697,3.971-0.581l5.943-6.085
			C31.026,61.842,31.282,60.013,30.346,59.054z M46.029,59.484L29.31,76.602c-1.248,1.276-1.503,3.109-0.567,4.063
			c0.935,0.961,2.722,0.697,3.971-0.58l16.72-17.115c1.248-1.281,1.503-3.109,0.567-4.067
			C49.065,57.943,47.277,58.204,46.029,59.484z M46.029,75.647l-0.276,0.284c-1.247,1.275-1.501,3.107-0.566,4.064
			c0.936,0.958,2.722,0.694,3.972-0.581l0.274-0.282c1.248-1.277,1.503-3.105,0.567-4.064
			C49.065,74.112,47.277,74.372,46.029,75.647z"/>
	</g>
</g>
</svg>
