<?xml version="1.0" encoding="utf-8"?>
<!-- Generator: Adobe Illustrator 16.0.0, SVG Export Plug-In . SVG Version: 6.00 Build 0)  -->
<!DOCTYPE svg PUBLIC "-//W3C//DTD SVG 1.1//EN" "http://www.w3.org/Graphics/SVG/1.1/DTD/svg11.dtd">
<svg version="1.1" xmlns="http://www.w3.org/2000/svg" xmlns:xlink="http://www.w3.org/1999/xlink" x="0px" y="0px"
	 width="100px" height="100px" viewBox="0 0 100 100" enable-background="new 0 0 100 100" xml:space="preserve">
<path d="M83.975,15.424h-3.174v-5.059c0-3.456-2.811-6.266-6.265-6.266h-58.51c-3.454,0-6.265,2.81-6.265,6.265v15.1
	c0,3.454,2.811,6.265,6.266,6.265h11.07c1.116,4.327,5.019,7.549,9.69,7.549c4.671,0,8.574-3.222,9.69-7.549h28.058
	c3.454,0,6.265-2.811,6.265-6.265v-5.06h3.174c0.707,0,1.283,0.576,1.283,1.283v13.215c0,0.707-0.575,1.282-1.282,1.282H63.21
	c-3.453,0-6.263,2.809-6.263,6.263v5.062h-1.285c-3.454,0-6.265,2.811-6.265,6.265v35.86c0,3.455,2.811,6.266,6.266,6.266h7.549
	c3.456,0,6.266-2.811,6.266-6.266l-0.001-35.86c0-3.454-2.811-6.265-6.265-6.265h-1.284v-5.062c0-0.707,0.575-1.282,1.282-1.282
	h20.766c3.453,0,6.263-2.81,6.263-6.263V21.688C90.238,18.234,87.428,15.424,83.975,15.424z M36.788,34.297
	c-2.79,0-5.06-2.27-5.06-5.059c0-2.795,2.952-6.126,5.06-8.067c2.107,1.941,5.06,5.272,5.06,8.067
	C41.848,32.028,39.578,34.297,36.788,34.297z M75.82,25.464c0,0.708-0.576,1.284-1.284,1.284H46.492
	c-1.489-5.638-7.445-10.253-8.21-10.826l-1.494-1.121l-1.494,1.121c-0.765,0.573-6.721,5.188-8.21,10.826H16.027
	c-0.708,0-1.285-0.576-1.285-1.284v-15.1c0-0.708,0.576-1.284,1.284-1.284h58.51c0.708,0,1.284,0.577,1.284,1.285V25.464z
	 M64.496,53.774l0.001,35.86c0,0.709-0.577,1.285-1.285,1.285h-7.549c-0.708,0-1.285-0.577-1.285-1.285v-35.86
	c0-0.708,0.576-1.284,1.284-1.284h7.55C63.92,52.49,64.496,53.066,64.496,53.774z"/>
</svg>
