<?xml version="1.0" encoding="utf-8"?>
<!-- Generator: Adobe Illustrator 16.0.0, SVG Export Plug-In . SVG Version: 6.00 Build 0)  -->
<!DOCTYPE svg PUBLIC "-//W3C//DTD SVG 1.1//EN" "http://www.w3.org/Graphics/SVG/1.1/DTD/svg11.dtd">
<svg version="1.1" xmlns="http://www.w3.org/2000/svg" xmlns:xlink="http://www.w3.org/1999/xlink" x="0px" y="0px"
	 width="100px" height="100px" viewBox="0 0 100 100" enable-background="new 0 0 100 100" xml:space="preserve">
<g>
	<path d="M50.022,8.718c-2.318,0-4.651,0.266-6.931,0.79c-8.021,1.843-14.844,6.7-19.211,13.676
		c-4.367,6.975-5.756,15.235-3.912,23.255C23.206,60.52,35.542,70.354,49.97,70.354c2.318,0,4.65-0.267,6.931-0.79
		c8.021-1.844,14.843-6.7,19.21-13.675c4.368-6.976,5.757-15.235,3.912-23.256C76.787,18.552,64.45,8.718,50.022,8.718z
		 M73.721,54.393c-3.967,6.337-10.165,10.749-17.452,12.424c-2.074,0.478-4.192,0.719-6.299,0.719
		c-13.106,0-24.314-8.935-27.255-21.728c-1.676-7.287-0.414-14.791,3.555-21.128c3.967-6.337,10.166-10.75,17.453-12.424
		c2.074-0.477,4.194-0.718,6.3-0.718c13.106,0,24.313,8.934,27.253,21.727C78.952,40.552,77.689,48.056,73.721,54.393z"/>
	<path d="M87.353,30.945C83.325,13.429,67.978,1.196,50.03,1.196c-2.886,0-5.787,0.331-8.624,0.984
		C20.809,6.915,7.903,27.525,12.638,48.125c2.542,11.057,9.601,19.997,18.971,25.096c-0.361,0.414-0.6,0.938-0.6,1.53v21.703
		c0,0.858,0.467,1.646,1.218,2.059c0.752,0.415,1.669,0.384,2.391-0.075l15.377-9.771l15.376,9.771
		c0.384,0.243,0.821,0.366,1.26,0.366c0.389,0,0.778-0.097,1.132-0.291c0.75-0.412,1.218-1.2,1.218-2.059V74.751
		c0-0.613-0.249-1.163-0.634-1.581c5.719-3.109,10.587-7.626,14.137-13.293C87.916,51.198,89.646,40.924,87.353,30.945z
		 M64.282,92.179L51.255,83.9c-0.77-0.488-1.751-0.488-2.521,0l-13.027,8.278V75.121c4.425,1.765,9.23,2.752,14.254,2.752
		c2.884,0,5.786-0.329,8.622-0.981c1.969-0.453,3.859-1.093,5.699-1.829V92.179z M57.529,72.312
		c-2.491,0.574-5.037,0.864-7.568,0.864c-15.746,0-29.211-10.734-32.745-26.104C13.062,28.997,24.385,10.913,42.46,6.758
		c2.492-0.573,5.039-0.864,7.57-0.864c15.746,0,29.21,10.734,32.743,26.104C86.929,50.073,75.604,68.157,57.529,72.312z"/>
	<path d="M64.472,32.363l-7.466-1.085l-3.34-6.765c-0.694-1.408-2.102-2.283-3.671-2.283c-1.572,0-2.979,0.875-3.673,2.283
		l-3.338,6.765l-7.468,1.085c-1.553,0.226-2.819,1.294-3.304,2.788c-0.485,1.494-0.088,3.104,1.036,4.198l5.403,5.265l-1.275,7.437
		c-0.205,1.193,0.124,2.405,0.9,3.325c1.211,1.438,3.369,1.87,5.042,0.99l6.677-3.51l6.676,3.509
		c0.591,0.312,1.251,0.476,1.908,0.476c1.208,0,2.351-0.534,3.137-1.465c0.776-0.921,1.103-2.134,0.897-3.327l-1.274-7.433
		l5.401-5.267c1.124-1.097,1.522-2.705,1.037-4.199C67.293,33.657,66.025,32.588,64.472,32.363z M57.835,41.469
		c-0.966,0.939-1.407,2.294-1.181,3.627l1.123,6.544l-5.88-3.091c-1.171-0.614-2.634-0.614-3.809,0.001l-5.877,3.09l1.122-6.545
		c0.229-1.33-0.213-2.686-1.177-3.624l-4.756-4.635l6.573-0.956c1.337-0.193,2.49-1.033,3.084-2.24l2.938-5.953l2.937,5.95
		c0.596,1.211,1.749,2.05,3.086,2.243l6.57,0.956L57.835,41.469z"/>
</g>
</svg>
