<?xml version="1.0" encoding="utf-8"?>
<!-- Generator: Adobe Illustrator 16.0.0, SVG Export Plug-In . SVG Version: 6.00 Build 0)  -->
<!DOCTYPE svg PUBLIC "-//W3C//DTD SVG 1.1//EN" "http://www.w3.org/Graphics/SVG/1.1/DTD/svg11.dtd">
<svg version="1.1" xmlns="http://www.w3.org/2000/svg" xmlns:xlink="http://www.w3.org/1999/xlink" x="0px" y="0px"
	 width="100px" height="100px" viewBox="0 0 100 100" enable-background="new 0 0 100 100" xml:space="preserve">
<g>
	<path d="M70.465,81.95L52.373,92.003V57.398L83.655,40.02v35.999c0,1.311,1.063,2.373,2.373,2.373s2.372-1.063,2.372-2.373V35.987
		c0-0.054-0.018-0.105-0.021-0.159c-0.005-0.072-0.019-0.139-0.029-0.211c-0.04-0.249-0.111-0.488-0.226-0.71
		c-0.012-0.023-0.01-0.049-0.022-0.072c-0.004-0.008-0.012-0.012-0.016-0.018c-0.137-0.24-0.32-0.445-0.534-0.626
		c-0.056-0.047-0.112-0.087-0.173-0.129c-0.068-0.047-0.125-0.108-0.199-0.148l-28.695-15.94c-1.145-0.635-2.588-0.223-3.225,0.922
		c-0.637,1.146-0.225,2.589,0.922,3.227l24.961,13.865L50,53.288L18.857,35.987l25.09-13.938c1.145-0.636,1.557-2.08,0.922-3.226
		c-0.637-1.146-2.084-1.557-3.226-0.922L12.82,33.914c-0.074,0.042-0.131,0.101-0.199,0.148c-0.06,0.042-0.117,0.082-0.173,0.129
		c-0.213,0.181-0.398,0.386-0.534,0.626c-0.004,0.006-0.012,0.01-0.015,0.018c-0.014,0.023-0.012,0.049-0.023,0.072
		c-0.115,0.222-0.186,0.461-0.226,0.71c-0.011,0.072-0.024,0.139-0.028,0.211c-0.004,0.054-0.021,0.104-0.021,0.159v40.031
		c0,1.311,1.062,2.373,2.373,2.373s2.373-1.063,2.373-2.373V40.02l31.282,17.379v34.604L29.532,81.95
		c-1.145-0.638-2.589-0.225-3.227,0.922c-0.635,1.145-0.223,2.588,0.922,3.226l21.62,12.011c0.048,0.027,0.104,0.037,0.152,0.062
		c0.06,0.027,0.119,0.049,0.182,0.072c0.266,0.099,0.539,0.165,0.818,0.165s0.552-0.066,0.816-0.165
		c0.063-0.023,0.123-0.045,0.182-0.072c0.051-0.024,0.106-0.034,0.154-0.062L72.769,86.1c1.146-0.638,1.559-2.081,0.922-3.227
		C73.055,81.728,71.608,81.315,70.465,81.95z"/>
	<path d="M12.809,91.009l-2.685-0.656l19.057-11.571c1.12-0.68,1.477-2.14,0.797-3.259c-0.68-1.121-2.138-1.478-3.26-0.797
		L7.661,86.298l0.656-2.688c0.31-1.272-0.469-2.557-1.742-2.867c-1.271-0.311-2.555,0.469-2.867,1.742l-2.016,8.248
		c-0.002,0.01,0.001,0.02-0.001,0.029c-0.067,0.291-0.082,0.594-0.036,0.896c0.047,0.309,0.154,0.603,0.312,0.864
		c0.001,0.002,0.001,0.004,0.002,0.006c0.147,0.242,0.339,0.435,0.547,0.602c0.051,0.041,0.102,0.077,0.157,0.113
		c0.232,0.158,0.481,0.287,0.75,0.354c0.004,0,0.008,0.004,0.011,0.006l8.249,2.016c0.189,0.047,0.378,0.068,0.565,0.068
		c1.067,0,2.038-0.726,2.302-1.81C14.862,92.604,14.082,91.319,12.809,91.009z"/>
	<path d="M98.345,91.658c0.047-0.302,0.031-0.604-0.035-0.896c-0.002-0.01,0.002-0.02-0.002-0.029l-2.014-8.248
		c-0.311-1.273-1.594-2.051-2.868-1.742c-1.273,0.311-2.053,1.595-1.742,2.867l0.655,2.688L73.282,74.726
		c-1.119-0.677-2.58-0.322-3.26,0.797s-0.323,2.579,0.797,3.259l19.057,11.571l-2.686,0.656c-1.271,0.311-2.052,1.596-1.74,2.868
		c0.264,1.084,1.234,1.811,2.303,1.811c0.186,0,0.376-0.022,0.565-0.069l8.249-2.016c0.004-0.002,0.006-0.006,0.01-0.006
		c0.27-0.066,0.518-0.194,0.75-0.352c0.055-0.038,0.105-0.074,0.158-0.116c0.207-0.167,0.398-0.36,0.545-0.601
		c0.002-0.002,0.002-0.004,0.002-0.006C98.191,92.261,98.298,91.967,98.345,91.658z"/>
	<path d="M45.672,11.645l1.955-1.955v22.294c0,1.311,1.063,2.373,2.373,2.373c1.31,0,2.373-1.062,2.373-2.373V9.69l1.954,1.955
		c0.465,0.464,1.071,0.695,1.678,0.695c0.607,0,1.215-0.231,1.678-0.695c0.927-0.926,0.927-2.428,0-3.354l-6.004-6.004
		c-0.219-0.219-0.48-0.393-0.772-0.514c-0.581-0.239-1.232-0.239-1.813,0c-0.291,0.121-0.553,0.295-0.771,0.514L42.318,8.29
		c-0.927,0.926-0.927,2.428,0,3.354C43.245,12.571,44.746,12.571,45.672,11.645z"/>
</g>
</svg>
