<?xml version="1.0" encoding="utf-8"?>
<!DOCTYPE svg PUBLIC "-//W3C//DTD SVG 1.1//EN" "http://www.w3.org/Graphics/SVG/1.1/DTD/svg11.dtd">
<svg version="1.1" xmlns="http://www.w3.org/2000/svg" xmlns:xlink="http://www.w3.org/1999/xlink" x="0px" y="0px" width="220px"
	 height="250px" viewBox="0 0 220 250" enable-background="new 0 0 220 250" xml:space="preserve">
<g>
	<rect x="45.076" y="51.937" opacity="0.2" fill="#007CBA" enable-background="new" width="129.452" height="145.812"/>
</g>
<g>
	<g>
		<path fill="#007CBA" d="M198.917,0H21.086C9.491,0,0.095,9.396,0.095,20.991v208.021C0.095,240.607,9.491,250,21.086,250h177.831
			c11.596,0,20.988-9.393,20.988-20.988V20.991C219.905,9.396,210.408,0,198.917,0z M213.908,229.012
			c0,8.193-6.798,14.992-14.991,14.992H21.086c-8.297,0-14.995-6.694-14.995-14.992v-12.195h207.816V229.012z M213.908,210.816
			h-39.38v-0.007h-6v0.007H51.076v-0.007h-6v0.007H6.092V38.885h6.097v-0.01h192.675v0.01h9.044V210.816z M213.908,32.887H6.092
			V20.991c0-8.295,6.697-14.993,14.995-14.993h177.831c8.298,0,14.991,6.698,14.991,14.993V32.887z"/>
		<path fill="#007CBA" d="M45.076,54.937v3v133.812v3v3h129.452v-3v-3V57.937v-3v-3H45.076V54.937z M51.076,57.937h117.452v133.812
			H51.076V57.937z"/>
		<circle fill="#007CBA" cx="19.785" cy="20.034" r="3.899"/>
		<circle fill="#007CBA" cx="32.88" cy="20.034" r="3.899"/>
		<circle fill="#007CBA" cx="45.977" cy="20.034" r="3.899"/>
	</g>
</g>
</svg>
