<?xml version="1.0" encoding="utf-8"?>
<!-- Generator: Adobe Illustrator 18.0.0, SVG Export Plug-In . SVG Version: 6.00 Build 0)  -->
<!DOCTYPE svg PUBLIC "-//W3C//DTD SVG 1.1//EN" "http://www.w3.org/Graphics/SVG/1.1/DTD/svg11.dtd">
<svg version="1.1" xmlns="http://www.w3.org/2000/svg" xmlns:xlink="http://www.w3.org/1999/xlink" x="0px" y="0px"
	 viewBox="0 0 70 70" enable-background="new 0 0 70 70" xml:space="preserve">
<g>
	<path fill="#FFFFFF" d="M33.5,53.6c-10.2,0-18.5-8.1-18.5-18c0-9.9,8.3-18,18.5-18c7.2,0,13.4,4,16.5,9.9v0h9.9
		c-2.5-6-7.7-10.9-14.4-13.3c-2-0.9-4.8-1.5-8-1.7c-0.5,0-1,0-1.4,0c0,0-0.1,0-0.1,0c-0.1,0-0.2,0-0.3,0c-0.2,0-0.4,0-0.6,0
		c-0.2,0-0.3,0-0.5,0c-12.7,0-23,10.8-23,23c0,12.2,10.3,22,23,22c7.1,0,13.6-3.2,17.8-8.1l-7,0C42.1,52.1,38.1,53.6,33.5,53.6z"/>
	<path fill="#FFFFFF" d="M51.6,30.5l-4.4,12.2h-4l4.3-12.2h-8.4l-4.4,12.2h-4.1l4.4-12.2h-8.5l-4.3,12.2c-0.2,0.5-0.3,0.9-0.3,1.3
		c0,1.6,1.2,2.5,3.5,2.5h4.2c2.2,0,3.8-0.7,4.9-2.1c0.2,1.4,1.4,2.1,3.5,2.1H50c2.7,0,4.7-1.3,5.8-3.8L60,30.5H51.6z"/>
</g>
</svg>
