<?xml version="1.0" encoding="utf-8"?>
<!-- Generator: Adobe Illustrator 18.0.0, SVG Export Plug-In . SVG Version: 6.00 Build 0)  -->
<!DOCTYPE svg PUBLIC "-//W3C//DTD SVG 1.1//EN" "http://www.w3.org/Graphics/SVG/1.1/DTD/svg11.dtd">
<svg version="1.1" xmlns="http://www.w3.org/2000/svg" xmlns:xlink="http://www.w3.org/1999/xlink" x="0px" y="0px"
	 viewBox="0 0 70 70" enable-background="new 0 0 70 70" xml:space="preserve">
<g display="none">
	<g display="inline">
		<path fill="none" stroke="#000000" stroke-width="2" stroke-miterlimit="10" d="M32,33.6c0,1.1-0.9,2-2,2H9c-1.1,0-2-0.9-2-2V7.2
			c0-1.1,0.9-2,2-2h21c1.1,0,2,0.9,2,2V33.6z"/>
	</g>
	<g display="inline">
		<path fill="none" stroke="#000000" stroke-width="2" stroke-miterlimit="10" d="M63,26.3c0,1.1-0.9,2-2,2H40c-1.1,0-2-0.9-2-2V7
			c0-1.1,0.9-2,2-2h21c1.1,0,2,0.9,2,2V26.3z"/>
	</g>
	<g display="inline">
		<path fill="none" stroke="#000000" stroke-width="2" stroke-miterlimit="10" d="M38,36.4c0-1.1,0.9-2,2-2h21c1.1,0,2,0.9,2,2v26.4
			c0,1.1-0.9,2-2,2H40c-1.1,0-2-0.9-2-2V36.4z"/>
	</g>
	<g display="inline">
		<path fill="none" stroke="#000000" stroke-width="2" stroke-miterlimit="10" d="M7,43.7c0-1.1,0.9-2,2-2h21c1.1,0,2,0.9,2,2V63
			c0,1.1-0.9,2-2,2H9c-1.1,0-2-0.9-2-2V43.7z"/>
	</g>
</g>
<g>
	<path d="M33,5.4c-0.7-0.8-1.7-1.2-2.8-1.2H9.8c-2.2,0-3.9,1.7-3.9,3.9v25.6c0,2.2,1.7,3.9,3.9,3.9h20.3c2.2,0,3.9-1.7,3.9-3.9
		l0-25.5C34.1,7.1,33.7,6.2,33,5.4z M30.1,8.1v25.5H9.8l0-25.5l0-0.5v0.5H30.1z"/>
	<path d="M39.8,30.5h20.3c2.2,0,3.9-1.7,3.9-3.9L64,8c0.1-1-0.3-2-1-2.8C62.3,4.4,61.3,4,60.2,4H39.8c-2.2,0-3.9,1.7-3.9,3.9v18.7
		C35.9,28.8,37.6,30.5,39.8,30.5z M60.1,7.9v18.7H39.8l0-18.7l0-0.5v0.5H60.1z"/>
	<path d="M63,33.7c-0.7-0.8-1.7-1.2-2.8-1.2H39.8c-2.2,0-3.9,1.7-3.9,3.9V62c0,2.2,1.7,3.9,3.9,3.9h20.3c2.2,0,3.9-1.8,3.9-3.9
		l0-25.5C64.1,35.4,63.7,34.5,63,33.7z M60.1,36.4v25.5H39.8l0-25.5l0-0.5v0.5H60.1z"/>
	<path d="M33,40.7c-0.7-0.8-1.7-1.2-2.8-1.2H9.8c-2.2,0-3.9,1.8-3.9,3.9v18.7c0,2.2,1.7,3.9,3.9,3.9h20.3c2.2,0,3.9-1.8,3.9-3.9
		l0-18.6C34.1,42.4,33.7,41.5,33,40.7z M30.1,43.4v18.7H9.8l0-18.7l0-0.5v0.5H30.1z"/>
</g>
</svg>
