<?xml version="1.0" encoding="utf-8"?>
<!-- Generator: Adobe Illustrator 18.0.0, SVG Export Plug-In . SVG Version: 6.00 Build 0)  -->
<!DOCTYPE svg PUBLIC "-//W3C//DTD SVG 1.1//EN" "http://www.w3.org/Graphics/SVG/1.1/DTD/svg11.dtd">
<svg version="1.1" xmlns="http://www.w3.org/2000/svg" xmlns:xlink="http://www.w3.org/1999/xlink" x="0px" y="0px"
	 viewBox="0 0 70 70" enable-background="new 0 0 70 70" xml:space="preserve">
<g display="none">
	<g display="inline" opacity="0.2">
		<path d="M29.7,7.2c1.8-1.8,4-2.7,6.6-2.7s4.8,0.9,6.6,2.7c1.8,1.8,2.7,4,2.7,6.6h11.5h2.3v2.3v11.5v2.3h-2.3h-2.3
			c-1.3,0-2.5,0.4-3.3,1.3c-0.9,0.9-1.3,2-1.3,3.3c0,1.3,0.4,2.5,1.3,3.3c0.9,0.9,2,1.3,3.3,1.3h2.3h2.3v2.3V53v2.3h-2.3H45.5
			c0,2.6-0.9,4.8-2.7,6.6c-1.8,1.8-4,2.7-6.6,2.7c-2.6,0-4.8-0.9-6.6-2.7c-1.8-1.8-2.7-4-2.7-6.6H15.5h-2.3V53v-9.2
			c-2.6,0-4.8-0.9-6.6-2.7c-1.8-1.8-2.7-4-2.7-6.6c0-2.6,0.9-4.8,2.7-6.6c1.8-1.8,4-2.7,6.6-2.7v-9.2v-2.3h2.3h11.5
			C27.1,11.2,27.9,9,29.7,7.2z M39.6,10.4c-0.9-0.9-2-1.3-3.3-1.3c-1.3,0-2.5,0.4-3.3,1.3c-0.9,0.9-1.3,2-1.3,3.3v2.3v2.3h-2.3H17.8
			v9.2v2.3h-2.3h-2.3c-1.3,0-2.5,0.4-3.3,1.3c-0.9,0.9-1.3,2-1.3,3.3c0,1.3,0.4,2.5,1.3,3.3c0.9,0.9,2,1.3,3.3,1.3h2.3h2.3v2.3v9.2
			h11.5h2.3V53v2.3c0,1.3,0.4,2.5,1.3,3.3c0.9,0.9,2,1.3,3.3,1.3c1.3,0,2.5-0.4,3.3-1.3c0.9-0.9,1.3-2,1.3-3.3V53v-2.3h2.3h11.5
			v-6.9c-2.6,0-4.8-0.9-6.6-2.7c-1.8-1.8-2.7-4-2.7-6.6c0-2.6,0.9-4.8,2.7-6.6c1.8-1.8,4-2.7,6.6-2.7v-6.9H43.2h-2.3v-2.3v-2.3
			C40.9,12.4,40.5,11.3,39.6,10.4z"/>
	</g>
</g>
<g display="none">
	<path display="inline" fill="none" stroke="#000000" stroke-width="2" stroke-miterlimit="10" d="M30.2,14.2H19.3c-0.6,0-1,0.4-1,1
		v11.1c0,0.6-0.5,1-1,1c-4.4,0.5-7.8,3.8-7.8,7.8c0,3.9,3.5,7.2,7.9,7.6c0.5,0,0.9,0.4,0.9,1v11.2c0,0.5,0.4,1,1,1h11.2
		c0.5,0,0.9,0.3,0.9,0.7c0.3,4.7,3.9,8.4,8.2,8.4c4.1,0,7.5-3.7,7.8-8.4c0-0.4,0.4-0.8,0.9-0.8h11.2c0.6,0,1-0.4,1-1V43.3
		c0-0.4-0.5-0.6-1-0.6c-4.4-0.4-7.8-3.6-7.8-7.5c0-4.1,3.5-7.5,8-7.9c0.5,0,0.9-0.4,0.9-0.9V15.2c0-0.6-0.5-1-1-1H48.4
		c-0.5,0-1-0.5-1-1.1C46.9,8.6,43.5,5,39.3,5c-4.1,0-7.4,3.6-7.8,8.2C31.4,13.7,30.9,14.2,30.2,14.2z"/>
</g>
<path d="M58.9,40.4C58.9,40.4,58.9,40.4,58.9,40.4c-3.3-0.3-5.8-2.6-5.8-5.3c0-2.9,2.5-5.3,5.7-5.6c1.6,0,2.8-1.3,2.8-2.9V15.8
	c0-1.6-1.3-2.9-2.9-2.9l-9.9,0C48,7.8,43.9,4,39.1,4c-4.7,0-8.6,3.7-9.4,8.9h-9.9c-1.6,0-2.9,1.3-2.9,2.9l0,9.8
	c-5,0.9-8.5,4.8-8.5,9.4c0,4.5,3.6,8.3,8.5,9.1v10c0,1.6,1.3,2.9,2.9,2.9h9.9c0.9,5.1,5,8.9,9.7,8.9c4.7,0,8.6-3.7,9.4-8.9h9.9
	c1.6,0,2.9-1.3,2.9-2.9V43C61.6,41.6,60.4,40.4,58.9,40.4z M39.4,62.1c-3.1,0-5.7-2.7-5.9-6.2c0-1.5-1.3-2.7-2.8-2.7h0l-9.9,0v-9.8
	c0-1.6-1.2-2.9-2.7-2.9c0,0,0,0,0,0c-3.3-0.3-5.9-2.6-5.9-5.3c0-2.9,2.5-5.3,5.7-5.6c1.6,0,2.9-1.3,2.9-2.9l0-9.7h9.5
	c0.9,0,1.7-0.3,2.4-1c0.5-0.5,0.8-1.2,0.8-1.8c0.3-3.5,2.7-6.1,5.6-6.1c3,0,5.5,2.6,5.9,6c0,1.6,1.3,2.9,2.9,2.9l9.8,0v8.8
	c-5,0.8-8.5,4.8-8.5,9.4c0,4.5,3.6,8.3,8.5,9.1l0,9h-9.9c-0.8,0-1.5,0.3-2,0.8c-0.5,0.5-0.8,1.1-0.8,1.8
	C44.8,59.3,42.3,62.1,39.4,62.1z"/>
</svg>
