<?xml version="1.0" encoding="utf-8"?>
<!-- Generator: Adobe Illustrator 18.0.0, SVG Export Plug-In . SVG Version: 6.00 Build 0)  -->
<!DOCTYPE svg PUBLIC "-//W3C//DTD SVG 1.1//EN" "http://www.w3.org/Graphics/SVG/1.1/DTD/svg11.dtd">
<svg version="1.1" xmlns="http://www.w3.org/2000/svg" xmlns:xlink="http://www.w3.org/1999/xlink" x="0px" y="0px"
	 viewBox="0 0 70 70" enable-background="new 0 0 70 70" xml:space="preserve">
<g>
	<path d="M62.1,8.8H7.9C5.7,8.8,4,10.5,4,12.7v44.5c0,2.2,1.7,3.9,3.9,3.9h54.2c2.2,0,3.9-1.7,3.9-3.9V12.7
		C66,10.5,64.3,8.8,62.1,8.8z M40.9,49.4h-8.8l-2.5-4.8l5.4-7.2L40.9,49.4z M27.8,49.5H7.9v-5.4l10.6-14.2L27.8,49.5z M7.9,53.4
		h48.8c1.1,0,2-0.9,2-2c0-1.1-0.8-1.9-1.9-1.9H45.3L38,34.7l0-0.1c-0.7-1.1-1.8-1.7-3-1.7l-0.2,0c-1.4,0.2-2.1,1.1-2.6,1.8l-4.7,5.7
		l-6-13.4l-0.1-0.1c-0.6-1-1.7-1.6-3.1-1.6c0,0,0,0,0,0l-0.3,0c-1,0.3-1.5,0.5-2.4,1.6L7.9,37V12.7h54.2v44.6H7.9V53.4z"/>
	<path d="M50,18.6c-3.2,0-5.8,2.6-5.8,5.8s2.6,5.8,5.8,5.8s5.8-2.6,5.8-5.8C55.8,21.3,53.1,18.6,50,18.6z M50,22.5
		c1,0,1.9,0.9,1.9,1.9S51,26.3,50,26.3s-1.9-0.9-1.9-1.9S49,22.5,50,22.5z"/>
</g>
</svg>
