<?xml version="1.0" encoding="utf-8"?>
<!-- Generator: Adobe Illustrator 16.0.0, SVG Export Plug-In . SVG Version: 6.00 Build 0)  -->
<!DOCTYPE svg PUBLIC "-//W3C//DTD SVG 1.1//EN" "http://www.w3.org/Graphics/SVG/1.1/DTD/svg11.dtd">
<svg version="1.1" xmlns="http://www.w3.org/2000/svg" xmlns:xlink="http://www.w3.org/1999/xlink" x="0px" y="0px"
	 width="70px" height="70px" viewBox="0 0 70 70" enable-background="new 0 0 70 70" xml:space="preserve">
<g>
	<path d="M47.396,18.283c-1.125,0-2.074,0.424-2.904,1.297c-0.835,0.879-1.241,1.86-1.241,2.997s0.406,2.118,1.241,2.997
		c0.829,0.873,1.779,1.297,2.904,1.297c1.13,0,2.107-0.427,2.986-1.306c0.878-0.878,1.305-1.856,1.305-2.988
		s-0.427-2.109-1.305-2.988C49.502,18.71,48.525,18.283,47.396,18.283z"/>
	<path d="M64.176,15.991c0.287-3.058,0.384-5.969,0.288-8.649l-0.115-1.727l-1.741-0.116L60.027,5.5
		c-2.008,0-4.043,0.097-6.051,0.288c-6.527,0.568-11.013,2.082-13.335,4.498c-2.211,2.117-6.98,8.011-14.19,17.533
		c-0.497,0.504-0.863,0.96-1.131,1.408c-0.298,0.497-0.601,0.951-0.9,1.351l-0.164,0.218l-4.337-0.311
		c-0.213-0.013-0.428-0.02-0.64-0.02c-2.744,0-4.91,1.083-6.623,3.312l-4.802,5.824l-1.941,2.516l2.938,0.453l7.867,1.632
		l9.068,9.072l2.197,10.812l2.4-1.944l5.805-4.791c2.412-1.856,3.488-4.235,3.304-7.283L39.18,45.86l0.243-0.162
		c0.861-0.574,1.825-1.298,2.865-2.149c9.631-7.423,15.477-12.151,17.386-14.062C61.999,27.161,63.514,22.62,64.176,15.991z
		 M16.47,40.365l-3.986-0.752l3.024-3.559c1.053-1.37,2.464-2.024,4.187-1.918l1.839-0.001l-2.995,3.996
		C16.865,40.365,16.766,40.365,16.47,40.365z M33.908,54.501l-3.54,3.011l-0.741-3.896c-0.009-0.39-0.009-0.489,2.224-2.163
		l3.994-2.999v1.874C35.951,52.015,35.299,53.429,33.908,54.501z M40.006,40.696c-6.944,5.287-10.833,8.278-11.895,9.146
		l-0.347,0.284l-7.893-7.739l0.264-0.351c4.505-5.979,7.448-9.922,8.997-12.053C36.381,20.7,41.081,14.92,43.114,12.79
		c1.861-1.76,5.473-2.849,11.061-3.349c1.544-0.193,2.834-0.292,3.819-0.292h2.823v0.5c0,2.04-0.099,4.109-0.292,6.149
		c-0.5,5.69-1.592,9.308-3.339,11.056C55.043,28.9,49.266,33.555,40.006,40.696z"/>
	<path d="M22.444,55.56l-2.506-2.508c-0.979,0.813-2.542,1.6-4.75,2.395l-1.028,0.37l0.392-1.021c0.874-2.271,1.662-3.831,2.4-4.746
		l-2.513-2.629c-1.348,1.495-2.556,3.7-3.597,6.564c-0.472,1.415-0.858,2.769-1.144,4.009l-0.459,2.761l2.645-0.46l4.164-1.152
		C18.805,58.192,20.962,56.985,22.444,55.56z"/>
</g>
</svg>
