<svg xmlns="http://www.w3.org/2000/svg" viewBox="0 0 100 100"><path d="M50.022 8.718a31 31 0 00-6.931.79c-8.021 1.843-14.844 6.7-19.211 13.676-4.367 6.975-5.756 15.235-3.912 23.255C23.206 60.52 35.542 70.354 49.97 70.354c2.318 0 4.65-.267 6.931-.79 8.021-1.844 14.843-6.7 19.21-13.675 4.368-6.976 5.757-15.235 3.912-23.256C76.787 18.552 64.45 8.718 50.022 8.718zm23.699 45.675c-3.967 6.337-10.165 10.749-17.452 12.424a28.08 28.08 0 01-6.299.719c-13.106 0-24.314-8.935-27.255-21.728-1.676-7.287-.414-14.791 3.555-21.128 3.967-6.337 10.166-10.75 17.453-12.424a28.153 28.153 0 016.3-.718c13.106 0 24.313 8.934 27.253 21.727 1.676 7.287.413 14.791-3.555 21.128z"/><path d="M87.353 30.945C83.325 13.429 67.978 1.196 50.03 1.196c-2.886 0-5.787.331-8.624.984C20.809 6.915 7.903 27.525 12.638 48.125c2.542 11.057 9.601 19.997 18.971 25.096-.361.414-.6.938-.6 1.53v21.703a2.349 2.349 0 003.609 1.984l15.377-9.771 15.376 9.771a2.354 2.354 0 002.392.075 2.349 2.349 0 001.218-2.059V74.751a2.33 2.33 0 00-.634-1.581 38.102 38.102 0 0014.137-13.293c5.432-8.679 7.162-18.953 4.869-28.932zM64.282 92.179L51.255 83.9a2.354 2.354 0 00-2.521 0l-13.027 8.278V75.121a38.384 38.384 0 0014.254 2.752c2.884 0 5.786-.329 8.622-.981 1.969-.453 3.859-1.093 5.699-1.829v17.116zm-6.753-19.867a33.753 33.753 0 01-7.568.864c-15.746 0-29.211-10.734-32.745-26.104-4.154-18.075 7.169-36.159 25.244-40.314a33.835 33.835 0 017.57-.864c15.746 0 29.21 10.734 32.743 26.104 4.156 18.075-7.169 36.159-25.244 40.314z"/><path d="M64.472 32.363l-7.466-1.085-3.34-6.765a4.069 4.069 0 00-3.671-2.283 4.068 4.068 0 00-3.673 2.283l-3.338 6.765-7.468 1.085a4.069 4.069 0 00-3.304 2.788 4.07 4.07 0 001.036 4.198l5.403 5.265-1.275 7.437a4.075 4.075 0 00.9 3.325c1.211 1.438 3.369 1.87 5.042.99l6.677-3.51 6.676 3.509a4.104 4.104 0 001.908.476 4.1 4.1 0 003.137-1.465 4.075 4.075 0 00.897-3.327l-1.274-7.433 5.401-5.267a4.073 4.073 0 001.037-4.199 4.067 4.067 0 00-3.305-2.787zm-6.637 9.106a4.099 4.099 0 00-1.181 3.627l1.123 6.544-5.88-3.091a4.165 4.165 0 00-3.809.001l-5.877 3.09 1.122-6.545a4.09 4.09 0 00-1.177-3.624L37.4 36.836l6.573-.956a4.088 4.088 0 003.084-2.24l2.938-5.953 2.937 5.95a4.09 4.09 0 003.086 2.243l6.57.956-4.753 4.633z"/></svg>